<svg xmlns="http://www.w3.org/2000/svg" viewBox="0 0 400 300" width="406" height="306" class="illustration styles_illustrationTablet__1DWOa"><g id="_575_winners_outline" data-name="#575_winners_outline"><path d="M237.41,127.6s-18.12-24-20.6-32.33l-6.94,5.82s5.77,18.3,13.65,29.75S242.73,152,242.73,152Z" fill="#e28362"></path><path d="M242.73,153a1,1,0,0,1-.65-.24c-.12-.09-11.52-9.89-19.38-21.32s-13.55-29.27-13.79-30a1,1,0,0,1,.31-1.07l6.95-5.82a1,1,0,0,1,1.6.48c2.4,8,20.26,31.78,20.44,32a1,1,0,0,1,.18.39l5.32,24.37a1,1,0,0,1-.47,1.07A.94.94,0,0,1,242.73,153ZM211,101.42c1.09,3.32,6.43,18.85,13.31,28.86a123.24,123.24,0,0,0,16.75,18.87L236.48,128C234.8,125.78,220,105.92,216.35,97Z" fill="#093f68"></path><rect x="237.41" y="127.6" width="32.58" height="36.58" fill="#68e1fd"></rect><path d="M270,165.18H237.41a1,1,0,0,1-1-1V127.6a1,1,0,0,1,1-1H270a1,1,0,0,1,1,1v36.58A1,1,0,0,1,270,165.18Zm-31.58-2H269V128.6H238.41Z" fill="#093f68"></path><path d="M259.78,136.62a10.87,10.87,0,0,1-16.95-9h21.75a10.88,10.88,0,0,1-4.8,9" fill="#e28362"></path><path d="M253.71,139.48a11.89,11.89,0,0,1-11.88-11.88,1,1,0,0,1,1-1h21.75a1,1,0,0,1,1,1,11.88,11.88,0,0,1-11.87,11.88Zm-9.83-10.88a9.89,9.89,0,0,0,9.83,8.88,9.76,9.76,0,0,0,5.51-1.69h0a9.84,9.84,0,0,0,4.3-7.19Z" fill="#093f68"></path><path d="M254.68,78.55c-8.56-.42-17.38,2.11-20.85,10.8-2.12,5.3-2.18,11.21-1.57,16.88a8.78,8.78,0,0,0,1,3.78c1.2,1.92,2.91,2.17,4.87,1.75,2.51-.53,5.22-.28,7.8-.28h17.35c2.66,0,8.31,1.76,9.88-1s1.35-7.64,1.52-10.63c.22-4-.08-8.15-1.91-11.81C269.31,81,261.94,78.92,254.68,78.55Z" fill="#725858"></path><path d="M269.35,113a27.66,27.66,0,0,1-3.67-.32,20.5,20.5,0,0,0-2.37-.23H246l-1.93,0a25.2,25.2,0,0,0-5.66.29c-2.7.57-4.64-.15-5.93-2.2a9.72,9.72,0,0,1-1.18-4.2C230.5,99.21,231,93.69,232.9,89c4.27-10.68,15.5-11.74,21.83-11.42h0c9.5.47,15.89,3.85,19,10,1.65,3.31,2.28,7.22,2,12.31,0,.53,0,1.12-.06,1.75-.1,3.08-.23,6.91-1.58,9.32C273.13,112.6,271.32,113,269.35,113Zm-27.23-2.61,2,0,1.88,0h17.35a21.53,21.53,0,0,1,2.63.25c2.34.3,5.54.72,6.37-.75,1.12-2,1.24-5.69,1.33-8.4,0-.65,0-1.25.07-1.8.26-4.73-.31-8.32-1.8-11.3-2.78-5.56-8.43-8.48-17.28-8.93h0c-5.78-.29-16.06.65-19.87,10.18-1.76,4.39-2.24,9.6-1.51,16.39a7.91,7.91,0,0,0,.88,3.36c.84,1.32,1.94,1.7,3.82,1.3A20.09,20.09,0,0,1,242.12,110.42Z" fill="#093f68"></path><path d="M256.46,129.31v-3.55h-6.17v3.55" fill="#e28362"></path><path d="M256.46,130.31a1,1,0,0,1-1-1v-2.55h-4.17v2.55a1,1,0,0,1-2,0v-3.55a1,1,0,0,1,1-1h6.17a1,1,0,0,1,1,1v3.55A1,1,0,0,1,256.46,130.31Z" fill="#093f68"></path><ellipse cx="269.99" cy="109.73" rx="5.64" ry="5.17" fill="#e28362"></ellipse><path d="M270,115.9a6.19,6.19,0,1,1,6.65-6.17A6.43,6.43,0,0,1,270,115.9Zm0-10.34a4.19,4.19,0,1,0,4.65,4.17A4.43,4.43,0,0,0,270,105.56Z" fill="#093f68"></path><ellipse cx="237.08" cy="109.73" rx="5.64" ry="5.17" fill="#e28362"></ellipse><path d="M237.08,115.9a6.19,6.19,0,1,1,6.65-6.17A6.43,6.43,0,0,1,237.08,115.9Zm0-10.34a4.19,4.19,0,1,0,4.65,4.17A4.43,4.43,0,0,0,237.08,105.56Z" fill="#093f68"></path><path d="M253.38,126.57a18.09,18.09,0,0,0,18.08-18.08,88,88,0,0,0-.3-9.46,11.89,11.89,0,0,0-.49-2.66c-1.54-4.44-6.75-2.92-9.63-.87-2.24,1.59-4.39,3.6-7.12,3.93a8.5,8.5,0,0,1-5.54-1.52c-3.13-2-5.15-7.59-9.45-4.35s-3.63,10.11-3.63,14.93A18.08,18.08,0,0,0,253.38,126.57Z" fill="#e28362"></path><path d="M253.38,127.57a19.1,19.1,0,0,1-19.08-19.08c0-.61,0-1.25,0-1.91-.09-4.72-.21-10.6,4.06-13.82,3.75-2.83,6.33,0,8.22,2.07a13.76,13.76,0,0,0,2.37,2.25,7.56,7.56,0,0,0,4.88,1.36c2-.24,3.63-1.5,5.4-2.83l1.26-.93c2-1.42,5.28-2.78,8-1.92A4.92,4.92,0,0,1,271.61,96a12.35,12.35,0,0,1,.54,2.89,77.4,77.4,0,0,1,.31,8.56v1A19.1,19.1,0,0,1,253.38,127.57Zm-11.94-34a3.17,3.17,0,0,0-1.91.79c-3.45,2.6-3.35,7.69-3.26,12.18q0,1,0,1.95a17.08,17.08,0,1,0,34.16,0v-1a78.12,78.12,0,0,0-.29-8.35,11.58,11.58,0,0,0-.44-2.45,3,3,0,0,0-1.92-2c-1.84-.58-4.5.45-6.19,1.65-.41.29-.81.59-1.21.9-1.91,1.43-3.88,2.91-6.37,3.21a9.54,9.54,0,0,1-6.21-1.67,15.21,15.21,0,0,1-2.76-2.57C243.63,94.6,242.62,93.57,241.44,93.57Z" fill="#093f68"></path><path d="M253.47,112.48a6.7,6.7,0,0,1-1.48-.15,1.39,1.39,0,0,1-.93-.79c-.52-1.15.49-3.54,1.43-5.33a1,1,0,0,1,1.78.92,15.28,15.28,0,0,0-1.33,3.33,7.85,7.85,0,0,0,1.89-.09,1,1,0,0,1,.35,2A11,11,0,0,1,253.47,112.48Zm-.56-1.68h0Z" fill="#093f68"></path><polygon points="274.39 232.36 264.65 232.36 262.94 221.94 255.43 164.28 268.73 164.28 273.23 221.94 274.39 232.36" fill="#e28362"></polygon><path d="M274.4,233.36h-9.74a1,1,0,0,1-1-.84L262,222.1l-7.52-57.69a1,1,0,0,1,.24-.79,1,1,0,0,1,.76-.34h13.3a1,1,0,0,1,1,.92l4.5,57.66,1.17,10.39a1,1,0,0,1-.25.77A1,1,0,0,1,274.4,233.36Zm-8.9-2h7.78l-1-9.31-4.43-56.77H256.56l7.37,56.53Z" fill="#093f68"></path><polygon points="252.29 164.28 244.25 221.94 242.78 232.36 232.44 232.36 233.66 221.94 240.34 164.28 252.29 164.28" fill="#e28362"></polygon><path d="M242.79,233.36H232.45a1,1,0,0,1-.75-.34,1,1,0,0,1-.25-.78l7.9-68.08a1,1,0,0,1,1-.88h11.94a1,1,0,0,1,.76.34,1,1,0,0,1,.24.8l-9.51,68.08A1,1,0,0,1,242.79,233.36Zm-9.22-2h8.35l9.23-66.08h-9.91Z" fill="#093f68"></path><polygon points="264.65 232.36 265.39 241.13 285.6 241.13 274.4 232.36 264.65 232.36" fill="#fff"></polygon><path d="M285.6,242.13H265.39a1,1,0,0,1-1-.92l-.74-8.77a1,1,0,0,1,.26-.76,1,1,0,0,1,.74-.32h9.74a1,1,0,0,1,.61.21l11.2,8.77a1,1,0,0,1-.61,1.79Zm-19.29-2H282.7l-8.65-6.77h-8.31Z" fill="#093f68"></path><polygon points="243.29 232.36 243.29 241.13 222.61 241.13 232.45 232.36 243.29 232.36" fill="#fff"></polygon><path d="M243.29,242.13H222.61a1,1,0,0,1-.93-.65,1,1,0,0,1,.27-1.1l9.83-8.77a1,1,0,0,1,.67-.25h10.84a1,1,0,0,1,1,1v8.77A1,1,0,0,1,243.29,242.13Zm-18-2h17v-6.77h-9.46Z" fill="#093f68"></path><path d="M263.88,106.32a1,1,0,0,1-1-1,1.71,1.71,0,1,0-3.41,0,1,1,0,0,1-2,0,3.71,3.71,0,1,1,7.41,0A1,1,0,0,1,263.88,106.32Z" fill="#093f68"></path><path d="M248.5,106.32a1,1,0,0,1-1-1,1.71,1.71,0,1,0-3.41,0,1,1,0,0,1-2,0,3.71,3.71,0,1,1,7.41,0A1,1,0,0,1,248.5,106.32Z" fill="#093f68"></path><polygon points="237.41 164.18 233.35 200.27 251 200.27 255.29 177.06 257.47 200.27 274.96 200.37 269.99 164.18 237.41 164.18" fill="#093f68"></polygon><path d="M275,201.37h0l-17.48-.1a1,1,0,0,1-1-.9L255,184.31l-3,16.14a1,1,0,0,1-1,.82H233.35a1,1,0,0,1-1-1.11l4.07-36.09a1,1,0,0,1,1-.89H270a1,1,0,0,1,1,.86l5,36.19a1,1,0,0,1-.24.8A1,1,0,0,1,275,201.37Zm-16.58-2.09,15.43.08-4.69-34.18H238.31l-3.85,34.09h15.71l4.13-22.39a1,1,0,0,1,1-.82,1,1,0,0,1,.95.9Z" fill="#093f68"></path><polygon points="244.25 221.94 242.78 232.36 232.44 232.36 233.66 221.94 244.25 221.94" fill="#68e1fd"></polygon><path d="M242.79,233.36H232.45a1,1,0,0,1-.75-.34,1,1,0,0,1-.25-.78l1.21-10.42a1,1,0,0,1,1-.88h10.59a1,1,0,0,1,.75.34,1,1,0,0,1,.24.8l-1.46,10.42A1,1,0,0,1,242.79,233.36Zm-9.22-2h8.35l1.18-8.42h-8.55Z" fill="#093f68"></path><polygon points="274.39 232.36 264.65 232.36 262.94 221.94 273.23 221.94 274.39 232.36" fill="#68e1fd"></polygon><path d="M274.4,233.36h-9.74a1,1,0,0,1-1-.84L262,222.1a1,1,0,0,1,.22-.81,1,1,0,0,1,.77-.35h10.29a1,1,0,0,1,1,.89l1.17,10.42a1,1,0,0,1-.25.77A1,1,0,0,1,274.4,233.36Zm-8.9-2h7.78l-.95-8.42h-8.22Z" fill="#093f68"></path><path d="M256.84,115.7c-.88-.42-7.09-.61-7.09-.61s-.46,5.63,3.1,6S256.84,115.7,256.84,115.7Z" fill="#093f68"></path><circle cx="253.35" cy="148.17" r="4.36" fill="#ffbc0e"></circle><path d="M253.35,153.53a5.36,5.36,0,1,1,5.37-5.36A5.36,5.36,0,0,1,253.35,153.53Zm0-8.72a3.36,3.36,0,1,0,3.37,3.36A3.37,3.37,0,0,0,253.35,144.81Z" fill="#093f68"></path><path d="M253.35,144.81a1,1,0,0,1-.89-.56A117.19,117.19,0,0,1,246.31,128a1,1,0,0,1,.68-1.24,1,1,0,0,1,1.24.68,121.61,121.61,0,0,0,5.11,14c1.36-3,4-8.84,5.94-14.17a1,1,0,0,1,1.88.69c-2.8,7.56-6.86,16.19-6.9,16.27a1,1,0,0,1-.9.58Z" fill="#093f68"></path><path d="M270,127.6v9.68l12.12,6.53-12.68-1.24c-.07-.07-4.21-3-5-3.64s-3.07,1.16-1.84,3c.46.69,1.65.85,2.15,1.51-2.25.23-4.55.13-6.68.88-1.1.39-2.87.24-2.82,1.41,0,.17.67,2.45,8.1,1.12-.46,1.52,0,3.79,1.54,4.28,1.1.35,4.08.58,4.72-.65,0,0,15.34,4.22,24.57.93C308.24,146.36,270,127.6,270,127.6Z" fill="#e28362"></path><path d="M285.36,153.66a68.68,68.68,0,0,1-15.44-2.06c-1.42,1.17-4.35.8-5.36.47-1.6-.51-2.42-2.29-2.41-4-3.41.47-5.79.18-7.07-.85a2.11,2.11,0,0,1-.86-1.43c-.08-1.7,1.66-2,2.59-2.19a7.47,7.47,0,0,0,.89-.2,15.83,15.83,0,0,1,4.15-.74.91.91,0,0,1-.11-.16,3,3,0,0,1,.52-4,2.12,2.12,0,0,1,2.79-.29c.52.44,2.72,2,3.91,2.84l.84.6,7.45.73-7.73-4.17a1,1,0,0,1-.53-.88V127.6a1,1,0,0,1,.47-.85,1,1,0,0,1,1,0c2.9,1.42,28.26,14.08,27.83,21.68-.1,1.77-1.37,3.1-3.78,4A27.73,27.73,0,0,1,285.36,153.66Zm-15.78-4.19a.75.75,0,0,1,.26,0c.16,0,15.16,4.1,24,1,1.58-.57,2.4-1.3,2.45-2.19.26-4.52-14.8-13.76-25.27-19.05v7.47l11.59,6.24a1,1,0,0,1,.49,1.17,1,1,0,0,1-1.06.7l-12.68-1.23a1,1,0,0,1-.53-.23l-1-.71c-1.66-1.17-3.32-2.36-3.94-2.86a1.1,1.1,0,0,0-.55.54,1,1,0,0,0,.09,1.05,2.36,2.36,0,0,0,.72.45,3.9,3.9,0,0,1,1.4,1,1,1,0,0,1-.7,1.61c-.64.06-1.28.1-1.93.14a16.89,16.89,0,0,0-4.52.68,7.23,7.23,0,0,1-1.2.29c-.21,0-.51.09-.74.15.55.37,2.2,1,6.71.17a1,1,0,0,1,1.13,1.27c-.32,1.1.05,2.76.9,3,1.16.37,3.3.27,3.52-.16A1,1,0,0,1,269.58,149.47Z" fill="#093f68"></path><path d="M286.19,145.39h-.14L282,144.8a1,1,0,0,1-.85-1.14,1,1,0,0,1,1.13-.84l4.08.58a1,1,0,0,1-.14,2Z" fill="#093f68"></path><path d="M137.44,128.26s-17.84-20.59-19.52-28.83l-8,2.32s5.77,18.3,13.66,29.75,19.2,21.13,19.2,21.13Z" fill="#ffc9b0"></path><path d="M142.75,153.63a1,1,0,0,1-.65-.24c-.11-.1-11.51-9.9-19.38-21.32s-13.54-29.27-13.78-30a1,1,0,0,1,.68-1.26l8-2.32a1,1,0,0,1,.79.11,1,1,0,0,1,.46.65c1.62,7.89,19.13,28.17,19.3,28.37a1,1,0,0,1,.22.45l5.32,24.37a1,1,0,0,1-.46,1.07A1.07,1.07,0,0,1,142.75,153.63Zm-31.58-51.21c1.31,3.93,6.52,18.82,13.2,28.51a123,123,0,0,0,16.74,18.88l-4.6-21.09c-1.85-2.16-16.63-19.52-19.3-28Z" fill="#093f68"></path><circle cx="110.28" cy="123.55" r="4.36" fill="#ffbc0e"></circle><path d="M110.28,128.92a5.37,5.37,0,1,1,5.37-5.37A5.37,5.37,0,0,1,110.28,128.92Zm0-8.73a3.37,3.37,0,1,0,3.37,3.36A3.37,3.37,0,0,0,110.28,120.19Z" fill="#093f68"></path><path d="M110.3,120.06a1,1,0,0,1-.66-.25c-1.59-1.4-2.35-4.46-2.31-9.34a54.3,54.3,0,0,1,1.11-9.09,2.86,2.86,0,0,1,.62-1.49,2.73,2.73,0,0,1,1.34-.72,5.83,5.83,0,0,1,3.16-.11,3.37,3.37,0,0,1,2.49,2.6.94.94,0,0,1,0,.5,1,1,0,0,1,.65,0,1,1,0,0,1,.68,1.24c-.49,1.66-1.06,3.44-1.76,5.46-.22.64-.45,1.31-.67,2a36.61,36.61,0,0,1-3.77,8.79,1,1,0,0,1-.7.43Zm2-19.17a5.45,5.45,0,0,0-1.37.21,1.22,1.22,0,0,0-.39.15,1.76,1.76,0,0,0-.12.48,52.57,52.57,0,0,0-1.08,8.76c0,3.64.42,5.64.91,6.74a43.93,43.93,0,0,0,2.76-7c.23-.69.45-1.37.68-2,.69-2,1.25-3.74,1.73-5.36a.14.14,0,0,1,0-.06,1.66,1.66,0,0,1-.21.06,1,1,0,0,1-1.14-.83,1.47,1.47,0,0,0-1.06-1A2.75,2.75,0,0,0,112.29,100.89Z" fill="#093f68"></path><rect x="107.49" y="94.23" width="10.41" height="10.41" rx="3.32" transform="translate(207.38 216.16) rotate(-170.47)" fill="#ffc9b0"></rect><path d="M114.25,105.93a4.37,4.37,0,0,1-.72-.06l-3.72-.63a4.31,4.31,0,0,1-3.54-5l.62-3.72a4.34,4.34,0,0,1,5-3.55l3.72.63a4.32,4.32,0,0,1,3.54,5l-.63,3.72A4.33,4.33,0,0,1,114.25,105.93Zm-3.1-11a2.32,2.32,0,0,0-2.28,1.94l-.63,3.72a2.32,2.32,0,0,0,1.9,2.67h0l3.72.62a2.31,2.31,0,0,0,2.67-1.9l.63-3.72a2.33,2.33,0,0,0-1.91-2.67L111.53,95A1.58,1.58,0,0,0,111.15,94.94Z" fill="#093f68"></path><rect x="117.76" y="95.84" width="3.93" height="6.44" rx="1.96" transform="translate(207.26 227.45) rotate(-163.89)" fill="#ffc9b0"></rect><path d="M119.38,103.23a3,3,0,0,1-.83-.12h0a3,3,0,0,1-2-3.67l.7-2.41a3,3,0,1,1,5.69,1.64l-.7,2.42a3,3,0,0,1-2.84,2.14Zm.69-6.34a.93.93,0,0,0-.46.12.91.91,0,0,0-.46.57l-.7,2.42a1,1,0,0,0,.66,1.19h0a1,1,0,0,0,.73-.08.92.92,0,0,0,.46-.58l.7-2.41a1,1,0,0,0-.66-1.2A1.24,1.24,0,0,0,120.07,96.89Z" fill="#093f68"></path><path d="M169.92,127.6S188,103.74,190.77,95.09l6.69,6s-5.77,18.3-13.65,29.75S164.6,152,164.6,152Z" fill="#ffc9b0"></path><path d="M164.6,153a.94.94,0,0,1-.51-.14,1,1,0,0,1-.47-1.07l5.32-24.37a.93.93,0,0,1,.18-.39c.18-.24,18-23.82,20.7-32.21a1,1,0,0,1,.69-.66,1,1,0,0,1,.93.22l6.69,6a1,1,0,0,1,.29,1c-.24.75-5.91,18.58-13.79,30s-19.27,21.23-19.38,21.32A1,1,0,0,1,164.6,153ZM170.85,128l-4.61,21.12A122.74,122.74,0,0,0,183,130.28c6.91-10,12.25-25.62,13.33-28.88l-5.11-4.58C187.39,106,172.54,125.79,170.85,128Z" fill="#093f68"></path><rect x="137.34" y="127.6" width="32.58" height="36.58" transform="translate(307.25 291.78) rotate(-180)" fill="#68e1fd"></rect><path d="M169.92,165.18H137.34a1,1,0,0,1-1-1V127.6a1,1,0,0,1,1-1h32.58a1,1,0,0,1,1,1v36.58A1,1,0,0,1,169.92,165.18Zm-31.58-2h30.58V128.6H138.34Z" fill="#093f68"></path><path d="M147.55,136.62a10.87,10.87,0,0,0,16.95-9H142.75a10.88,10.88,0,0,0,4.8,9" fill="#ffc9b0"></path><path d="M153.62,139.48a11.78,11.78,0,0,1-6.63-2h0a11.88,11.88,0,0,1-5.24-9.85,1,1,0,0,1,1-1H164.5a1,1,0,0,1,1,1A11.89,11.89,0,0,1,153.62,139.48ZM143.8,128.6a9.89,9.89,0,0,0,4.31,7.19h0a9.76,9.76,0,0,0,5.51,1.69,9.89,9.89,0,0,0,9.83-8.88Z" fill="#093f68"></path><path d="M153,78.45c1.11.42,2,1.13,3.17,1,1.71-.16,2.74-1.16,4.71-.64a5.92,5.92,0,0,1,4,3.18,13.4,13.4,0,0,1,4.65,1.86,4.56,4.56,0,0,1,2,4.33c.07-.35,2.46,2.28,2.61,2.68.45,1.2.26,2.56.45,3.8a43.27,43.27,0,0,1,.43,11.54,8.78,8.78,0,0,1-1,3.78c-1.2,1.92-2.91,2.17-4.87,1.75-2.51-.53-5.22-.28-7.8-.28H144c-2.66,0-8.31,1.76-9.88-1-2-3.52-3.51-8.29-1.22-12a1.14,1.14,0,0,0,.19-.42,1.09,1.09,0,0,0-.25-.7,7.64,7.64,0,0,1-1.41-4.46,3.83,3.83,0,0,1,2.67-3.54c-1.22-2-.06-5,1.57-6.4a3.72,3.72,0,0,1,4.87-.11,4,4,0,0,1,7-3.07c-.52-.62,3.82-1.65,4.22-1.62A4.09,4.09,0,0,1,153,78.45Z" fill="#725858"></path><path d="M138,113c-2,0-3.78-.43-4.71-2.07-1.64-2.92-4-8.48-1.21-13a.59.59,0,0,0,0-.08,8.42,8.42,0,0,1-1.57-5,5,5,0,0,1,2.36-4A6.92,6.92,0,0,1,135,82.19a5.14,5.14,0,0,1,4.64-1,5,5,0,0,1,7.85-2.81,13.54,13.54,0,0,1,4.34-1.21,5.38,5.38,0,0,1,1.52.35h0c.36.14.69.3,1,.45a3.44,3.44,0,0,0,1.71.52,6.81,6.81,0,0,0,1.48-.36,5.89,5.89,0,0,1,3.58-.25,7,7,0,0,1,4.41,3.29,13.24,13.24,0,0,1,4.55,1.91,5.76,5.76,0,0,1,2.5,4.61,13.41,13.41,0,0,1,2.49,2.86,8.55,8.55,0,0,1,.4,2.7,13,13,0,0,0,.1,1.3,45.11,45.11,0,0,1,.44,11.8,9.72,9.72,0,0,1-1.18,4.2c-1.29,2-3.23,2.77-5.93,2.2a25.2,25.2,0,0,0-5.66-.29l-1.93,0H144a20.5,20.5,0,0,0-2.37.23A27.66,27.66,0,0,1,138,113Zm.37-30a3.17,3.17,0,0,0-2,.73c-1.35,1.14-2.26,3.68-1.37,5.12a1,1,0,0,1,.07.91,1,1,0,0,1-.69.59,2.83,2.83,0,0,0-1.9,2.62,6.55,6.55,0,0,0,1.26,3.86,2,2,0,0,1,.39,1.37,1.9,1.9,0,0,1-.32.79c-2.26,3.67-.19,8.46,1.24,11,.83,1.47,4,1,6.37.75a21.53,21.53,0,0,1,2.63-.25h17.35l1.88,0a26.3,26.3,0,0,1,6.13.33c1.88.4,3,0,3.81-1.3a7.77,7.77,0,0,0,.89-3.36,42,42,0,0,0-.43-11.28,11.45,11.45,0,0,1-.11-1.52,6.75,6.75,0,0,0-.29-2.08,18.5,18.5,0,0,0-1.91-2.06A1,1,0,0,1,170.6,88h0A3.63,3.63,0,0,0,169,84.69,12.56,12.56,0,0,0,164.65,83a1,1,0,0,1-.66-.55,5,5,0,0,0-3.32-2.63,3.91,3.91,0,0,0-2.45.23,8.11,8.11,0,0,1-1.92.44,5.17,5.17,0,0,1-2.76-.7,8.19,8.19,0,0,0-.85-.39h0a3.17,3.17,0,0,0-1-.22,15.8,15.8,0,0,0-3.2.93,1.08,1.08,0,0,1-.31.46,1,1,0,0,1-1.41-.13h0a3,3,0,0,0-5.26,2.3,1,1,0,0,1-1.69.84A2.1,2.1,0,0,0,138.35,83Zm10-3.85Zm0,0Z" fill="#093f68"></path><path d="M150.87,129.31v-3.55H157v3.55" fill="#ffc9b0"></path><path d="M157,130.31a1,1,0,0,1-1-1v-2.55h-4.17v2.55a1,1,0,0,1-2,0v-3.55a1,1,0,0,1,1-1H157a1,1,0,0,1,1,1v3.55A1,1,0,0,1,157,130.31Z" fill="#093f68"></path><ellipse cx="137.34" cy="109.73" rx="5.64" ry="5.17" fill="#ffc9b0"></ellipse><path d="M137.34,115.9a6.19,6.19,0,1,1,6.64-6.17A6.43,6.43,0,0,1,137.34,115.9Zm0-10.34a4.19,4.19,0,1,0,4.64,4.17A4.44,4.44,0,0,0,137.34,105.56Z" fill="#093f68"></path><ellipse cx="170.24" cy="109.73" rx="5.64" ry="5.17" fill="#ffc9b0"></ellipse><path d="M170.25,115.9a6.19,6.19,0,1,1,6.64-6.17A6.43,6.43,0,0,1,170.25,115.9Zm0-10.34a4.19,4.19,0,1,0,4.64,4.17A4.43,4.43,0,0,0,170.25,105.56Z" fill="#093f68"></path><path d="M154,126.57a18.08,18.08,0,0,1-18.08-18.08c0-2.24-.55-7.43,1.24-9.15a6.57,6.57,0,0,1,1.92-1,7,7,0,0,0,3.77-4.61,6.56,6.56,0,0,0,6-1.82,6.64,6.64,0,0,0,5.94,1.81,12,12,0,0,0,5.7-2.88,2,2,0,0,0,1.37,2.42c2,.69,3.71-1.18,5.6-.57,1.51.49,2.88,2.7,3.5,4,1.68,3.62,1.16,7.9,1.16,11.78A18.08,18.08,0,0,1,154,126.57Z" fill="#ffc9b0"></path><path d="M154,127.57a19.1,19.1,0,0,1-19.08-19.08c0-.37,0-.82,0-1.32-.1-2.87-.23-6.81,1.57-8.55a5.32,5.32,0,0,1,1.74-1l.46-.2a5.93,5.93,0,0,0,3.21-3.93,1,1,0,0,1,1.18-.75,5.54,5.54,0,0,0,5-1.54,1,1,0,0,1,.73-.3,1,1,0,0,1,.73.33,5.63,5.63,0,0,0,5,1.5,11.16,11.16,0,0,0,5.22-2.66,1,1,0,0,1,1.57,1.13.6.6,0,0,0,0,.46,1.31,1.31,0,0,0,.72.65,3.57,3.57,0,0,0,2.24-.28,5.13,5.13,0,0,1,3.34-.3c2.22.72,3.8,3.94,4.1,4.58,1.46,3.15,1.37,6.62,1.29,10,0,.75,0,1.49,0,2.22A19.1,19.1,0,0,1,154,127.57ZM143.5,94.81a7.88,7.88,0,0,1-4.05,4.4l-.53.23a3.69,3.69,0,0,0-1.12.62c-1.16,1.12-1,5-1,7,0,.52,0,1,0,1.38a17.08,17.08,0,0,0,34.16,0c0-.75,0-1.5,0-2.27.08-3.13.16-6.36-1.11-9.09-.69-1.51-1.91-3.2-2.9-3.52a3.51,3.51,0,0,0-2.09.3,5.24,5.24,0,0,1-3.53.27,3.34,3.34,0,0,1-1.79-1.54,11.93,11.93,0,0,1-4.79,2,7.82,7.82,0,0,1-6.11-1.45A7.74,7.74,0,0,1,143.5,94.81Z" fill="#093f68"></path><path d="M153.86,112.48a11,11,0,0,1-1.71-.14,1,1,0,1,1,.35-2,7.85,7.85,0,0,0,1.89.09,15.28,15.28,0,0,0-1.33-3.33,1,1,0,1,1,1.78-.92c.94,1.79,1.95,4.18,1.43,5.33a1.39,1.39,0,0,1-.93.79A6.7,6.7,0,0,1,153.86,112.48Z" fill="#093f68"></path><polygon points="132.93 232.36 142.67 232.36 144.39 221.94 151.9 164.28 138.6 164.28 134.1 221.94 132.93 232.36" fill="#ffc9b0"></polygon><path d="M142.67,233.36h-9.74a1,1,0,0,1-.74-.34,1,1,0,0,1-.25-.77l1.17-10.42,4.5-57.63a1,1,0,0,1,1-.92h13.3a1,1,0,0,1,1,1.13l-7.51,57.66-1.72,10.45A1,1,0,0,1,142.67,233.36Zm-8.62-2h7.78l1.58-9.58,7.35-56.5H139.53L135.1,222Z" fill="#093f68"></path><polygon points="155.03 164.28 163.08 221.94 164.54 232.36 174.88 232.36 173.67 221.94 166.98 164.28 155.03 164.28" fill="#ffc9b0"></polygon><path d="M174.88,233.36H164.54a1,1,0,0,1-1-.86L154,164.42a1,1,0,0,1,.24-.8,1,1,0,0,1,.75-.34H167a1,1,0,0,1,1,.88l7.9,68.08a1,1,0,0,1-.25.78A1,1,0,0,1,174.88,233.36Zm-9.47-2h8.35l-7.67-66.08h-9.91Z" fill="#093f68"></path><polygon points="142.67 232.36 141.93 241.13 121.73 241.13 132.93 232.36 142.67 232.36" fill="#fff"></polygon><path d="M141.93,242.13h-20.2a1,1,0,0,1-.61-1.79l11.2-8.77a1,1,0,0,1,.61-.21h9.74a1,1,0,0,1,.74.32,1,1,0,0,1,.26.76l-.74,8.77A1,1,0,0,1,141.93,242.13Zm-17.3-2H141l.57-6.77h-8.31Z" fill="#093f68"></path><polygon points="164.04 232.36 164.04 241.13 184.72 241.13 174.88 232.36 164.04 232.36" fill="#fff"></polygon><path d="M184.72,242.13H164a1,1,0,0,1-1-1v-8.77a1,1,0,0,1,1-1h10.84a1,1,0,0,1,.66.25l9.84,8.77a1,1,0,0,1-.66,1.75Zm-19.68-2h17.05l-7.59-6.77H165Z" fill="#093f68"></path><path d="M153.15,120.32a11,11,0,0,1-8-3.53,1,1,0,1,1,1.55-1.26c.23.28,5.37,6.28,14.26-.18a1,1,0,0,1,1.4.22,1,1,0,0,1-.22,1.4C158.66,119.48,155.65,120.32,153.15,120.32Z" fill="#093f68"></path><path d="M148.86,106.32a1,1,0,0,1-1-1,1.71,1.71,0,1,0-3.41,0,1,1,0,0,1-2,0,3.71,3.71,0,1,1,7.41,0A1,1,0,0,1,148.86,106.32Z" fill="#093f68"></path><path d="M164.24,106.32a1,1,0,0,1-1-1,1.71,1.71,0,1,0-3.41,0,1,1,0,0,1-2,0,3.71,3.71,0,1,1,7.41,0A1,1,0,0,1,164.24,106.32Z" fill="#093f68"></path><polygon points="169.92 164.18 173.98 200.27 156.32 200.27 152.04 177.06 149.86 200.27 132.37 200.37 137.34 164.18 169.92 164.18" fill="#093f68"></polygon><path d="M132.37,201.37a1,1,0,0,1-1-1.14l5-36.19a1,1,0,0,1,1-.86h32.58a1,1,0,0,1,1,.89L175,200.16a1,1,0,0,1-1,1.11H156.32a1,1,0,0,1-1-.82l-3-16.14-1.51,16.06a1,1,0,0,1-1,.9l-17.48.1Zm5.84-36.19-4.69,34.18,15.43-.08,2.1-22.32a1,1,0,0,1,.95-.9,1,1,0,0,1,1,.82l4.13,22.39h15.7L169,165.18Z" fill="#093f68"></path><polygon points="163.08 221.94 164.54 232.36 174.88 232.36 173.67 221.94 163.08 221.94" fill="#68e1fd"></polygon><path d="M174.88,233.36H164.54a1,1,0,0,1-1-.86l-1.46-10.42a1,1,0,0,1,.24-.8,1,1,0,0,1,.75-.34h10.59a1,1,0,0,1,1,.88l1.21,10.42a1,1,0,0,1-.25.78A1,1,0,0,1,174.88,233.36Zm-9.47-2h8.35l-1-8.42h-8.55Z" fill="#093f68"></path><polygon points="132.93 232.36 142.67 232.36 144.39 221.94 134.1 221.94 132.93 232.36" fill="#68e1fd"></polygon><path d="M142.67,233.36h-9.74a1,1,0,0,1-.74-.34,1,1,0,0,1-.25-.77l1.17-10.42a1,1,0,0,1,1-.89h10.29a1,1,0,0,1,.77.35,1,1,0,0,1,.22.81l-1.72,10.42A1,1,0,0,1,142.67,233.36Zm-8.62-2h7.78l1.38-8.42H135Z" fill="#093f68"></path><path d="M104.3,102.63a2.49,2.49,0,0,1-1.28-.35c-1.09-.64-1.52-2-1.16-3.79a11.4,11.4,0,0,1,3.17-6.1,8.41,8.41,0,0,1,6.6-2.4,6.74,6.74,0,0,1,5.64,4.34,1,1,0,0,1-.63,1.27,1,1,0,0,1-1.27-.62,4.75,4.75,0,0,0-4-3,6.4,6.4,0,0,0-5,1.85,9.49,9.49,0,0,0-2.6,5c-.17.83-.08,1.51.22,1.68s.77,0,1.33-.33a11.77,11.77,0,0,0,3.32-3.58l.15-.23a7.64,7.64,0,0,1,3.26-3.23,1,1,0,1,1,.75,1.85,5.87,5.87,0,0,0-2.33,2.48l-.16.23a13.73,13.73,0,0,1-3.93,4.18A4.09,4.09,0,0,1,104.3,102.63Z" fill="#093f68"></path><path d="M187.73,85a12,12,0,0,1-12-12V68.83a1,1,0,0,1,1-1h11a1,1,0,0,1,0,2h-10V73a10,10,0,0,0,10,10,1,1,0,1,1,0,2Z" fill="#093f68"></path><path d="M218.81,85a1,1,0,0,1,0-2,10,10,0,0,0,10-10V69.83h-10a1,1,0,0,1,0-2h11a1,1,0,0,1,1,1V73A12,12,0,0,1,218.81,85Z" fill="#093f68"></path><rect x="199.24" y="97.33" width="8.25" height="15.21" fill="#ffbc0e"></rect><path d="M207.5,113.54h-8.26a1,1,0,0,1-1-1V97.33a1,1,0,0,1,1-1h8.26a1,1,0,0,1,1,1v15.21A1,1,0,0,1,207.5,113.54Zm-7.26-2h6.26V98.33h-6.26Z" fill="#093f68"></path><path d="M186.93,61.31h32.88a0,0,0,0,1,0,0V86.37a16.44,16.44,0,0,1-16.44,16.44h0a16.44,16.44,0,0,1-16.44-16.44V61.31a0,0,0,0,1,0,0Z" fill="#ffbc0e"></path><path d="M203.37,103.81a17.46,17.46,0,0,1-17.44-17.44V61.31a1,1,0,0,1,1-1h32.88a1,1,0,0,1,1,1V86.37A17.46,17.46,0,0,1,203.37,103.81Zm-15.44-41.5V86.37a15.44,15.44,0,0,0,30.88,0V62.31Z" fill="#093f68"></path><rect x="194.89" y="111.62" width="16.96" height="5" rx="2.11" fill="#ffbc0e"></rect><path d="M209.75,117.63H197a3.11,3.11,0,0,1-3.1-3.11v-.79a3.11,3.11,0,0,1,3.1-3.11h12.76a3.11,3.11,0,0,1,3.1,3.11v.79A3.11,3.11,0,0,1,209.75,117.63Zm-12.76-5a1.11,1.11,0,0,0-1.1,1.11v.79a1.11,1.11,0,0,0,1.1,1.11h12.76a1.11,1.11,0,0,0,1.1-1.11v-.79a1.11,1.11,0,0,0-1.1-1.11Z" fill="#093f68"></path><path d="M190.14,100.17a24.72,24.72,0,0,1,3.3-6.37,1.2,1.2,0,0,1,.68-.54.79.79,0,0,1,.79.61,2.29,2.29,0,0,1,0,1.07l-1.53,7.87" fill="#ffc9b0"></path><path d="M193.34,103.81l-.19,0a1,1,0,0,1-.79-1.17L193.85,95a23.25,23.25,0,0,0-2.76,5.53,1,1,0,0,1-1.9-.65,25.86,25.86,0,0,1,3.44-6.64,2.1,2.1,0,0,1,1.34-.94,1.78,1.78,0,0,1,1.9,1.31,3.2,3.2,0,0,1,0,1.55L194.33,103A1,1,0,0,1,193.34,103.81Z" fill="#093f68"></path><path d="M217.46,99.81,216.3,95.2c-.12-.46-.38-1-.86-1a.79.79,0,0,0-.44.21,3.36,3.36,0,0,0-.88,2.29q-.35,3-.42,6.11" fill="#e28362"></path><path d="M213.7,103.81h0a1,1,0,0,1-1-1c.05-2,.2-4.14.42-6.19a4.4,4.4,0,0,1,1.23-2.94,1.8,1.8,0,0,1,1-.45c.34,0,1.46,0,1.9,1.76l1.16,4.6a1,1,0,1,1-1.94.49l-1.12-4.45a4.56,4.56,0,0,0-.26,1.21c-.22,2-.36,4-.41,6A1,1,0,0,1,213.7,103.81Z" fill="#093f68"></path><path d="M193.89,137.47a1,1,0,0,1-.84-1.54c1.24-2,2.76-4.07,5.17-4.57a8.8,8.8,0,0,1,2.34-.06,9.19,9.19,0,0,0,1.66,0,1.92,1.92,0,0,0,1.29-.85.43.43,0,0,0,.05-.43,1,1,0,0,1,1.82-.83,2.44,2.44,0,0,1-.11,2.21,3.91,3.91,0,0,1-2.76,1.87,9,9,0,0,1-2.07,0,7.29,7.29,0,0,0-1.82,0c-1.64.34-2.82,2-3.88,3.68A1,1,0,0,1,193.89,137.47Z" fill="#dfeaef"></path><path d="M220.19,172.57a1,1,0,0,1-1-1,20.86,20.86,0,0,1,1.4-7.89,1,1,0,1,1,1.86.73,18.8,18.8,0,0,0-1.26,7.12,1,1,0,0,1-1,1Z" fill="#dfeaef"></path><path d="M195.18,178.45a.55.55,0,0,1-.18,0,1.35,1.35,0,0,1-1-.85,1.59,1.59,0,0,1,.18-1.51,2.37,2.37,0,0,1,1.39-.83l4.66-1.3a1,1,0,1,1,.53,1.93l-4.61,1.28a1,1,0,0,1,0,.48A1,1,0,0,1,195.18,178.45Z" fill="#dfeaef"></path><path d="M164.35,66.67a1.24,1.24,0,0,1-.27,0,1,1,0,0,1-.69-1.23,5.65,5.65,0,0,1,4.69-4,1,1,0,0,1,1.11.87,1,1,0,0,1-.87,1.11,3.71,3.71,0,0,0-3,2.58A1,1,0,0,1,164.35,66.67Z" fill="#dfeaef"></path><path d="M127.27,71.58a1,1,0,0,1-.86-.49,14.25,14.25,0,0,0-3.84-4.23,1,1,0,0,1,1.18-1.62,16.43,16.43,0,0,1,4.38,4.83,1,1,0,0,1-.35,1.37A1,1,0,0,1,127.27,71.58Z" fill="#dfeaef"></path><path d="M115.08,165a1.14,1.14,0,0,1-.4-.08,1,1,0,0,1-.51-1.32,2.8,2.8,0,0,0-3.2-3.84,1,1,0,1,1-.45-2,4.79,4.79,0,0,1,5.48,6.59A1,1,0,0,1,115.08,165Z" fill="#dfeaef"></path><path d="M118.09,187.05a1,1,0,0,1-.67-.25,1,1,0,0,1-.07-1.42,4.65,4.65,0,0,1,5.4-1,1,1,0,0,1-.88,1.8,2.68,2.68,0,0,0-3,.58A1,1,0,0,1,118.09,187.05Z" fill="#dfeaef"></path><path d="M211,200.72a1,1,0,0,1-.81-.41,14.9,14.9,0,0,0-4.75-4.22,1,1,0,0,1,1-1.75,17,17,0,0,1,5.39,4.79,1,1,0,0,1-.22,1.4A1,1,0,0,1,211,200.72Z" fill="#dfeaef"></path><path d="M291.71,109.82h0a7.4,7.4,0,0,1-4.39-1.62,1,1,0,0,1,1.25-1.56,5.36,5.36,0,0,0,3.2,1.18,1,1,0,0,1,0,2Z" fill="#dfeaef"></path><path d="M280.81,125.63a1,1,0,0,1-.28-2l5.25-1.53a1,1,0,0,1,1.24.67,1,1,0,0,1-.68,1.25l-5.24,1.53A1,1,0,0,1,280.81,125.63Z" fill="#dfeaef"></path><path d="M251.56,66.29a1,1,0,0,1-.6-.19,6.84,6.84,0,0,1-2.56-3.29,3.54,3.54,0,0,1-1.76-.92,3.44,3.44,0,0,1-1.13-2.61,1,1,0,0,1,1-1,1,1,0,0,1,1,1,1.49,1.49,0,0,0,.5,1.09,2,2,0,0,0,.29.22,4.09,4.09,0,0,1,.83-1.65,3.12,3.12,0,0,1,2.27-1.14,1,1,0,0,1,1,.8,3.48,3.48,0,0,1-.65,2.76,3.57,3.57,0,0,1-1.32,1.11,5.44,5.44,0,0,0,1.71,1.95,1,1,0,0,1,.21,1.4A1,1,0,0,1,251.56,66.29Z" fill="#dfeaef"></path><path d="M286.48,75.65a1,1,0,0,1-.47-.12A6.25,6.25,0,0,0,281.8,75a1,1,0,0,1-.44-1.95,8.24,8.24,0,0,1,5.58.72,1,1,0,0,1,.42,1.35A1,1,0,0,1,286.48,75.65Z" fill="#dfeaef"></path><path d="M286.07,175.19a1,1,0,0,1-.73-1.68,7.91,7.91,0,0,1,3.44-2.15,1,1,0,1,1,.59,1.91,5.88,5.88,0,0,0-2.57,1.61A1,1,0,0,1,286.07,175.19Z" fill="#dfeaef"></path><path d="M291,203.32a1,1,0,0,1-.33-.06,9.79,9.79,0,0,1-5.07-4.13,1,1,0,0,1,1.71-1,7.91,7.91,0,0,0,4,3.29,1,1,0,0,1-.34,1.94Z" fill="#dfeaef"></path><path d="M292.1,220.27a1,1,0,0,1-.83-.44,1,1,0,0,1,.27-1.39l3.38-2.25a1,1,0,1,1,1.11,1.66l-3.38,2.25A.94.94,0,0,1,292.1,220.27Z" fill="#dfeaef"></path><path d="M250.75,226.15a1,1,0,0,1-.33-2l5-1.7a1,1,0,1,1,.64,1.9l-4.94,1.69A1,1,0,0,1,250.75,226.15Z" fill="#dfeaef"></path><path d="M216.63,146.22h-.11a13.89,13.89,0,0,1-5.39-1.74,1,1,0,0,1-.37-1.36,1,1,0,0,1,1.36-.38,12,12,0,0,0,4.61,1.49,1,1,0,0,1-.1,2Z" fill="#dfeaef"></path><path d="M186.21,163.94h-.05a7.31,7.31,0,0,1-4.8-2.18,1,1,0,0,1,1.43-1.4,5.26,5.26,0,0,0,3.47,1.58,1,1,0,0,1,0,2Z" fill="#dfeaef"></path><path d="M143.45,64a2.37,2.37,0,0,1-1.08-.27,1.75,1.75,0,0,1-1-2.15,2,2,0,0,1,.46-.73,8.9,8.9,0,0,0-1.23.05,1,1,0,0,1-.16-2,6.09,6.09,0,0,1,3.4.41l.21.12a9,9,0,0,1,6-.37,1,1,0,0,1,.69,1.23,1,1,0,0,1-1.24.69,7.05,7.05,0,0,0-4.19.12l.06.19a2.34,2.34,0,0,1-.36,1.92A1.94,1.94,0,0,1,143.45,64Z" fill="#dfeaef"></path><path d="M198,204.11a1,1,0,0,1-.82-.41,3,3,0,0,0-2.28-1.17,3.11,3.11,0,0,0-2.42.85A1,1,0,1,1,191,202a5.23,5.23,0,0,1,7.78.52,1,1,0,0,1-.23,1.4A1,1,0,0,1,198,204.11Z" fill="#dfeaef"></path><path d="M209.3,231.7a1,1,0,0,1-.89-.56,1,1,0,0,1,.45-1.34,7.51,7.51,0,0,1,6.51,0,1,1,0,0,1-.86,1.8,5.55,5.55,0,0,0-4.76,0A1,1,0,0,1,209.3,231.7Z" fill="#dfeaef"></path><path d="M119.31,222.16a1,1,0,0,1-1-.7,3,3,0,0,0-2.19-1.89,3.66,3.66,0,0,0-.56-.1,2.3,2.3,0,0,1-.17.48A2.17,2.17,0,0,1,113,221a1.63,1.63,0,0,1-1.35-1.63,1,1,0,0,1,.31-.71,4.41,4.41,0,0,1,1.43-.91l-.15-.33c-.94-1.89-1.83-2.78-2.74-2.7a1,1,0,0,1-1.08-.92,1,1,0,0,1,.92-1.07c2.7-.2,4.2,2.81,4.69,3.81a8.4,8.4,0,0,1,.39.87,6.31,6.31,0,0,1,1.26.19,5,5,0,0,1,3.59,3.22,1,1,0,0,1-.65,1.26A1,1,0,0,1,119.31,222.16Z" fill="#dfeaef"></path></g></svg>