<svg xmlns="http://www.w3.org/2000/svg" viewBox="0 0 400 300" width="406" height="306" class="illustration styles_illustrationTablet__1DWOa"><g id="_535_instagram_post_outline" data-name="#535_instagram_post_outline"><rect x="132.71" y="57.74" width="134.59" height="184.52" fill="#fff"></rect><path d="M267.29,243.26H132.71a1,1,0,0,1-1-1V57.74a1,1,0,0,1,1-1H267.29a1,1,0,0,1,1,1V242.26A1,1,0,0,1,267.29,243.26Zm-133.58-2H266.29V58.74H133.71Z" fill="#093f68"></path><rect x="142.84" y="80.64" width="113" height="110.37" fill="#68e1fd"></rect><path d="M255.84,192h-113a1,1,0,0,1-1-1V80.64a1,1,0,0,1,1-1h113a1,1,0,0,1,1,1V191A1,1,0,0,1,255.84,192Zm-112-2h111V81.64h-111Z" fill="#093f68"></path><circle cx="147.91" cy="68.69" r="5.07" fill="#093f68"></circle><path d="M183.2,66.38H159.36a1,1,0,0,1,0-2H183.2a1,1,0,0,1,0,2Z" fill="#dfeaef"></path><path d="M176.07,72H159.36a1,1,0,0,1,0-2h16.71a1,1,0,0,1,0,2Z" fill="#dfeaef"></path><circle cx="247.26" cy="68.4" r="0.94" fill="#093f68"></circle><circle cx="250.21" cy="68.4" r="0.94" fill="#093f68"></circle><circle cx="253.17" cy="68.4" r="0.94" fill="#093f68"></circle><path d="M255.84,213.53a1,1,0,0,1-.55-.17l-5.49-3.68-5.48,3.68a1,1,0,0,1-1,0,1,1,0,0,1-.53-.88V197.81a1,1,0,0,1,1-1h12.08a1,1,0,0,1,1,1v14.72a1,1,0,0,1-.53.88A1,1,0,0,1,255.84,213.53Zm-6-6.05a1,1,0,0,1,.56.17l4.48,3V198.81H244.76v11.84l4.48-3A1,1,0,0,1,249.8,207.48Z" fill="#093f68"></path><path d="M153.62,198.88c.09-.13.17-.26.26-.38a5.27,5.27,0,0,1,2.22-1.85,4.63,4.63,0,0,1,2.21-.36,4.51,4.51,0,0,1,4.16,3.87,8.09,8.09,0,0,1,0,1.84,7.41,7.41,0,0,1-.38,1.74,7,7,0,0,1-1.46,2.4,24.56,24.56,0,0,1-2.08,2l-3.78,3.32-1.08,1-.07.06-.26-.25c-1.22-1.15-2.48-2.25-3.75-3.35-.83-.72-1.66-1.43-2.43-2.2a9.89,9.89,0,0,1-1.49-1.86,6.42,6.42,0,0,1-.84-2.36,9,9,0,0,1-.11-1.87,4.43,4.43,0,0,1,3-4.09,4.64,4.64,0,0,1,5,1.18,6,6,0,0,1,.85,1.08Z" fill="#f56132"></path><path d="M153.59,213.5a1,1,0,0,1-.65-.24l-.27-.25c-1.21-1.14-2.45-2.23-3.71-3.32l-.18-.16c-.77-.66-1.57-1.35-2.31-2.1a10.46,10.46,0,0,1-1.64-2,7.69,7.69,0,0,1-1-2.72,10.41,10.41,0,0,1-.12-2.07,5.43,5.43,0,0,1,3.69-5,5.65,5.65,0,0,1,6,1.41l.21.21a5.89,5.89,0,0,1,2.07-1.48,5.55,5.55,0,0,1,7.76,4.27,8.49,8.49,0,0,1,0,2.08,8.58,8.58,0,0,1-.42,2,8.31,8.31,0,0,1-1.66,2.72,26.45,26.45,0,0,1-2.17,2.09l-1.35,1.19-2.42,2.13-.72.66-.35.33A1.19,1.19,0,0,1,153.59,213.5Zm-4.22-16.23a4.16,4.16,0,0,0-1.31.23,3.42,3.42,0,0,0-2.32,3.18,8,8,0,0,0,.1,1.68,5.37,5.37,0,0,0,.71,2,8.33,8.33,0,0,0,1.34,1.66c.69.7,1.42,1.33,2.2,2l.17.15c1.15,1,2.26,2,3.36,3l.49-.45,2.43-2.14,1.34-1.18a21.42,21.42,0,0,0,2-1.92,6.14,6.14,0,0,0,1.27-2.06,6.44,6.44,0,0,0,.32-1.5,7.24,7.24,0,0,0,0-1.61,3.43,3.43,0,0,0-.95-2,3.47,3.47,0,0,0-2.3-1.06,3.57,3.57,0,0,0-1.74.28,4.31,4.31,0,0,0-1.8,1.51l-.23.35a1,1,0,0,1-1.68,0l.84-.54-.85.52a4.69,4.69,0,0,0-.74-1A3.76,3.76,0,0,0,149.37,197.27Z" fill="#093f68"></path><path d="M177.85,212.47a8.65,8.65,0,0,1-4-1l-5.18.94a1,1,0,0,1-1.1-1.37l2-4.77a8.74,8.74,0,0,1-.35-2.42,8.6,8.6,0,1,1,8.6,8.6Zm-3.82-3a1,1,0,0,1,.51.13,6.53,6.53,0,0,0,3.31.9,6.6,6.6,0,1,0-6.6-6.6,6.69,6.69,0,0,0,.36,2.15,1,1,0,0,1,0,.71l-1.44,3.4,3.7-.68Z" fill="#093f68"></path><path d="M200.12,205.2a1,1,0,0,1-.34-.06l-6.49-2.32a1,1,0,0,1-.67-.95,1,1,0,0,1,.68-.94l15.33-5.27a1,1,0,0,1,1,1.71L200.77,205A1,1,0,0,1,200.12,205.2Zm-3.47-3.3,3.26,1.16,4.43-3.81Z" fill="#093f68"></path><path d="M202.11,212.53H202a1,1,0,0,1-.88-.74l-2-7.33a1,1,0,0,1,.32-1l8.83-7.59a1,1,0,0,1,1.26,0,1,1,0,0,1,.3,1.22L203,212A1,1,0,0,1,202.11,212.53Zm-.86-8,1.1,4.06,3.79-8.26Z" fill="#093f68"></path><path d="M180,222.42H147.35a1,1,0,0,1,0-2H180a1,1,0,0,1,0,2Z" fill="#dfeaef"></path><path d="M245.16,230.31h-30a1,1,0,0,1,0-2h30a1,1,0,1,1,0,2Z" fill="#dfeaef"></path><path d="M204.54,230.31H147.35a1,1,0,1,1,0-2h57.19a1,1,0,1,1,0,2Z" fill="#dfeaef"></path><path d="M247.91,107.92a5.18,5.18,0,0,0-7.17,1.47l-31.21,40.46H189.16l-31.22-40.46a5.17,5.17,0,0,0-8.64,5.69l30.91,47c.46.71,1.77,29,1.77,29h34.73s1.3-28.27,1.77-29l30.91-46.95A5.17,5.17,0,0,0,247.91,107.92Z" fill="#ffbc0e"></path><path d="M216.71,192H182a1,1,0,0,1-1-.95c-.47-10.22-1.34-26.78-1.69-28.6l-30.83-46.83a6.18,6.18,0,0,1,10.32-6.79l30.87,40H209L240,108.78a6.17,6.17,0,0,1,10.27,6.85l-30.83,46.83c-.35,1.82-1.21,18.38-1.68,28.6A1,1,0,0,1,216.71,192Zm-33.78-2h32.82c1.29-27.6,1.71-28.25,1.89-28.53l30.91-46.95a4.16,4.16,0,0,0-1.19-5.78h0a4.18,4.18,0,0,0-5.78,1.19l-31.26,40.52a1,1,0,0,1-.79.39H189.16a1,1,0,0,1-.79-.39L157.15,110a4.21,4.21,0,0,0-2.69-1.85,4.17,4.17,0,0,0-4.33,6.38L181,161.48C181.22,161.76,181.65,162.41,182.93,190Z" fill="#093f68"></path><rect x="196.04" y="153.77" width="6.61" height="36.68" fill="#093f68"></rect><path d="M202.65,191.45H196a1,1,0,0,1-1-1V153.77a1,1,0,0,1,1-1h6.61a1,1,0,0,1,1,1v36.68A1,1,0,0,1,202.65,191.45Zm-5.61-2h4.61V154.77H197Z" fill="#093f68"></path><path d="M153.93,102.17c.24-2.15.64-4.31.94-6.45a5.06,5.06,0,0,1,.18-.86,1.86,1.86,0,0,1,1.43-1.28c1.64-.22,2.38,1.61,2.24,2.9-.2,1.92-.25,3.84-.29,5.79a3.32,3.32,0,0,0,.13,1.18,5.05,5.05,0,0,0,.85,1.22,7.24,7.24,0,0,1,1.21,3.72,10.54,10.54,0,0,1-.32,4.71c-1.11,3.11-3.8,3.3-6.67,3.07-2.54-.21-5.43-1.63-6.52-4.06-1.24-2.76-.09-5.44,2.08-7.32a55.72,55.72,0,0,1-.6-7.07,5.5,5.5,0,0,1,.1-1.72c.64-2.42,2.79-1,3.27.67a45.71,45.71,0,0,1,1.07,4.45,4.6,4.6,0,0,0,.79,2.2C153.85,102.94,153.89,102.55,153.93,102.17Z" fill="#ffc9b0"></path><path d="M155.19,117.25c-.62,0-1.19,0-1.65-.09-2.72-.22-6-1.74-7.34-4.64s-.52-5.76,1.92-8.1a60.71,60.71,0,0,1-.53-6.66,6.36,6.36,0,0,1,.13-2c.48-1.81,1.67-2,2.16-2,1.4,0,2.65,1.34,3,2.67.19.65.37,1.32.53,2,0-.14.05-.29.07-.43.13-.79.25-1.58.36-2.36a6.26,6.26,0,0,1,.22-1,2.86,2.86,0,0,1,2.24-2,2.73,2.73,0,0,1,2.3.75,4.06,4.06,0,0,1,1.08,3.24c-.21,1.89-.25,3.84-.29,5.71a2.49,2.49,0,0,0,.07.81,2.36,2.36,0,0,0,.42.6l.29.36a8.27,8.27,0,0,1,1.41,4.22,11.65,11.65,0,0,1-.38,5.16C160.07,116.71,157.31,117.25,155.19,117.25Zm-5.27-21.53h0a1.14,1.14,0,0,0-.25.54,5,5,0,0,0-.06,1.42,55.68,55.68,0,0,0,.58,6.94,1,1,0,0,1-.33.93c-1,.86-3.15,3.18-1.81,6.16.95,2.13,3.61,3.29,5.68,3.46,2.95.24,4.81-.08,5.64-2.41a9.64,9.64,0,0,0,.28-4.26,6.57,6.57,0,0,0-1-3.23l-.23-.28a4.08,4.08,0,0,1-.77-1.19,4,4,0,0,1-.19-1.55c0-1.92.09-3.91.3-5.88a2.13,2.13,0,0,0-.49-1.6.71.71,0,0,0-.63-.2.89.89,0,0,0-.61.61,3.87,3.87,0,0,0-.14.68c-.11.8-.24,1.59-.36,2.39-.21,1.33-.43,2.69-.57,4h0c-.05.37-.08.75-.11,1.12a1,1,0,0,1-1.76.57,5.26,5.26,0,0,1-1-2.56l0-.1c-.28-1.47-.63-2.93-1.05-4.35A1.82,1.82,0,0,0,149.92,95.72Z" fill="#093f68"></path><path d="M157.87,105a4.07,4.07,0,0,0-2.19.33,21.05,21.05,0,0,0-3.42,1.64,1.35,1.35,0,0,0-.76.85,1,1,0,0,0,.19.66,2.57,2.57,0,0,0,2.17.95c.83,0,1.64-.2,2.47-.17a10.65,10.65,0,0,0-3,2.56,1.34,1.34,0,0,0-.29.52c-.15.6.48,1.08,1,1.38" fill="#ffc9b0"></path><path d="M154,114.67a1,1,0,0,1-.49-.13c-1.61-.9-1.63-1.94-1.5-2.48a2.14,2.14,0,0,1,.49-.91,7.91,7.91,0,0,1,.71-.81,3.3,3.3,0,0,1-2.39-1.36,2,2,0,0,1-.34-1.34,2.32,2.32,0,0,1,1.24-1.58,21.52,21.52,0,0,1,3.59-1.72,4.91,4.91,0,0,1,2.72-.37,1,1,0,1,1-.39,2,3.22,3.22,0,0,0-1.64.29,19.42,19.42,0,0,0-3.25,1.56,1.13,1.13,0,0,0-.25.17,2,2,0,0,0,1.34.43,8,8,0,0,0,1.06-.08,9.25,9.25,0,0,1,1.42-.09,1,1,0,0,1,.47,1.87,9.7,9.7,0,0,0-2.74,2.32l0,.06a2,2,0,0,0,.47.33,1,1,0,0,1-.48,1.88Z" fill="#093f68"></path><path d="M244.9,102.17c-.24-2.15-.64-4.31-.94-6.45a6.25,6.25,0,0,0-.18-.86,1.86,1.86,0,0,0-1.43-1.28c-1.64-.22-2.38,1.61-2.24,2.9.2,1.92.24,3.84.28,5.79a3.11,3.11,0,0,1-.12,1.18,4.83,4.83,0,0,1-.86,1.22,7.33,7.33,0,0,0-1.2,3.72,10.54,10.54,0,0,0,.32,4.71c1.11,3.11,3.8,3.3,6.67,3.07,2.54-.21,5.43-1.63,6.52-4.06,1.23-2.76.08-5.44-2.08-7.32a55.72,55.72,0,0,0,.6-7.07,5.82,5.82,0,0,0-.1-1.72c-.64-2.42-2.79-1-3.27.67a45.71,45.71,0,0,0-1.07,4.45,4.6,4.6,0,0,1-.79,2.2C245,102.94,244.94,102.55,244.9,102.17Z" fill="#ffc9b0"></path><path d="M243.64,117.25c-2.12,0-4.88-.54-6-3.81a11.65,11.65,0,0,1-.38-5.16,8.27,8.27,0,0,1,1.41-4.22l.29-.36a2.36,2.36,0,0,0,.42-.6,2.27,2.27,0,0,0,.06-.81c0-1.87-.08-3.82-.28-5.71a4,4,0,0,1,1.08-3.24,2.71,2.71,0,0,1,2.29-.75,2.83,2.83,0,0,1,2.24,2,4.73,4.73,0,0,1,.22,1c.12.78.24,1.57.37,2.36l.06.43q.25-1,.54-2a3.57,3.57,0,0,1,3-2.67c.49,0,1.68.22,2.16,2a6.67,6.67,0,0,1,.13,2,60.71,60.71,0,0,1-.53,6.66c2.44,2.34,3.16,5.34,1.92,8.1s-4.63,4.42-7.35,4.64C244.83,117.2,244.26,117.25,243.64,117.25Zm-1.56-22.69a.7.7,0,0,0-.5.21,2.17,2.17,0,0,0-.48,1.6c.21,2,.25,4,.29,5.88a4.14,4.14,0,0,1-.18,1.55,4.08,4.08,0,0,1-.77,1.19l-.23.28a6.57,6.57,0,0,0-1,3.23,9.78,9.78,0,0,0,.27,4.26c.84,2.33,2.71,2.65,5.65,2.41,2.07-.17,4.73-1.33,5.68-3.46,1.34-3-.82-5.3-1.82-6.16a1,1,0,0,1-.33-.93,55.69,55.69,0,0,0,.59-6.94,5,5,0,0,0-.07-1.42,1.17,1.17,0,0,0-.25-.55c-.2,0-.87.5-1.09,1.25-.42,1.42-.77,2.88-1.05,4.35l0,.1a5.26,5.26,0,0,1-1,2.56,1,1,0,0,1-1.76-.57c0-.37-.07-.75-.11-1.12h0c-.14-1.33-.36-2.69-.57-4-.13-.8-.25-1.59-.37-2.39a3.16,3.16,0,0,0-.13-.68.9.9,0,0,0-.61-.61Z" fill="#093f68"></path><path d="M241,105a4.07,4.07,0,0,1,2.19.33,21.05,21.05,0,0,1,3.42,1.64c.33.2.7.46.75.85a.94.94,0,0,1-.18.66,2.57,2.57,0,0,1-2.17.95c-.83,0-1.64-.2-2.47-.17a10.65,10.65,0,0,1,3,2.56,1.48,1.48,0,0,1,.29.52c.14.6-.48,1.08-1,1.38" fill="#ffc9b0"></path><path d="M244.8,114.67a1,1,0,0,1-.49-1.88,1.9,1.9,0,0,0,.48-.33l0-.06a9.7,9.7,0,0,0-2.74-2.32,1,1,0,0,1,.47-1.87,10.93,10.93,0,0,1,1.42.09,8.43,8.43,0,0,0,1.06.08,1.8,1.8,0,0,0,1.31-.46l-.22-.14a19.42,19.42,0,0,0-3.25-1.56,3.22,3.22,0,0,0-1.64-.29,1,1,0,0,1-.4-2,4.92,4.92,0,0,1,2.73.37,21.52,21.52,0,0,1,3.59,1.72,2.29,2.29,0,0,1,1.23,1.58A1.86,1.86,0,0,1,248,109a3.28,3.28,0,0,1-2.39,1.36,8,8,0,0,1,.72.81,2.17,2.17,0,0,1,.49.9c.13.55.11,1.59-1.5,2.49A1,1,0,0,1,244.8,114.67Z" fill="#093f68"></path><path d="M196,152.9h6.68a0,0,0,0,1,0,0v3.85a2.84,2.84,0,0,1-2.84,2.84h-1a2.84,2.84,0,0,1-2.84-2.84V152.9A0,0,0,0,1,196,152.9Z" fill="#ffc9b0"></path><path d="M199.88,160.59h-1a3.84,3.84,0,0,1-3.84-3.84V152.9a1,1,0,0,1,1-1h6.69a1,1,0,0,1,1,1v3.85A3.85,3.85,0,0,1,199.88,160.59ZM197,153.9v2.85a1.84,1.84,0,0,0,1.84,1.84h1a1.84,1.84,0,0,0,1.84-1.84V153.9Z" fill="#093f68"></path><path d="M179,135.7c-2.4-3-2.82-7.42-3.38-11a35,35,0,0,1,.2-10.16c.93-6.26,4.1-12.88,11.36-12.78a1.2,1.2,0,0,0,.5,0,1.63,1.63,0,0,0,.62-.52c3.53-4.2,8-3.57,12.88-2.91a30,30,0,0,1,14.35,5.66A20,20,0,0,1,223.35,117a24.72,24.72,0,0,1-.59,8.12c-1.11,5.08-2.29,10.93-7.3,13.66a22.47,22.47,0,0,1-6.79,2.07c-4.79.9-9.68,1.59-14.52,1a38.47,38.47,0,0,1-9.52-2.52,14.6,14.6,0,0,1-4.69-2.65A7.58,7.58,0,0,1,179,135.7Z" fill="#725858"></path><path d="M197.75,143a33.07,33.07,0,0,1-3.71-.2,38.82,38.82,0,0,1-9.77-2.58,15.69,15.69,0,0,1-5-2.84,11.73,11.73,0,0,1-1-1.09h0c-2.31-2.91-2.89-6.87-3.41-10.37l-.17-1.15a35.34,35.34,0,0,1,.2-10.45c1.3-8.76,5.81-13.73,12.36-13.64a1.21,1.21,0,0,0,.19,0s.06-.11.13-.19c3.9-4.63,8.91-4,13.75-3.28a31,31,0,0,1,14.88,5.86,20.9,20.9,0,0,1,8.16,13.73,25,25,0,0,1-.61,8.45l-.07.32c-1.13,5.21-2.42,11.12-7.72,14a23.66,23.66,0,0,1-7.09,2.18A61.14,61.14,0,0,1,197.75,143Zm-10.7-40.32c-7.6,0-9.67,8.33-10.2,11.93a33.36,33.36,0,0,0-.2,9.85l.17,1.16c.48,3.25,1,6.94,3,9.42h0a9.48,9.48,0,0,0,.8.87A14.14,14.14,0,0,0,185,138.4a37.2,37.2,0,0,0,9.27,2.45c4.76.55,9.64-.17,14.22-1a21.71,21.71,0,0,0,6.49-2c4.5-2.45,5.69-7.88,6.73-12.68l.07-.32a23.07,23.07,0,0,0,.57-7.78,18.83,18.83,0,0,0-7.4-12.39,29,29,0,0,0-13.87-5.46c-4.75-.65-8.81-1.2-12,2.56a2.34,2.34,0,0,1-1,.82,2.19,2.19,0,0,1-.86.11Z" fill="#093f68"></path><ellipse cx="182.01" cy="135.54" rx="6.49" ry="5.6" fill="#ffc9b0"></ellipse><path d="M182,142.14c-4.13,0-7.5-3-7.5-6.6s3.37-6.6,7.5-6.6,7.49,3,7.49,6.6S186.14,142.14,182,142.14Zm0-11.2c-3,0-5.5,2.07-5.5,4.6s2.47,4.6,5.5,4.6,5.49-2.06,5.49-4.6S185,130.94,182,130.94Z" fill="#093f68"></path><ellipse cx="216.74" cy="135.54" rx="6.49" ry="5.6" fill="#ffc9b0"></ellipse><path d="M216.74,142.14c-4.14,0-7.5-3-7.5-6.6s3.36-6.6,7.5-6.6,7.49,3,7.49,6.6S220.87,142.14,216.74,142.14Zm0-11.2c-3,0-5.5,2.07-5.5,4.6s2.47,4.6,5.5,4.6,5.49-2.06,5.49-4.6S219.77,130.94,216.74,130.94Z" fill="#093f68"></path><path d="M185.38,126.77a2,2,0,0,1-.2-4l8.6-.9a2,2,0,1,1,.42,4l-8.61.9Z" fill="#093f68"></path><path d="M199.37,152.9A17.92,17.92,0,0,1,181.45,135c0-3.9.16-7.84,0-11.74-.21-5.06,3.45-10.13,7.22-13.3A6.94,6.94,0,0,0,192.1,114a20.53,20.53,0,0,0,5.15,1.78,7,7,0,0,1-.93-5.59l7.86,1.88a26.63,26.63,0,0,1,7.81,2.76c7,4.29,5.31,13.16,5.31,20.15A17.92,17.92,0,0,1,199.37,152.9Z" fill="#ffc9b0"></path><path d="M199.37,153.9A18.94,18.94,0,0,1,180.45,135c0-1.31,0-2.63,0-3.94,0-2.55.07-5.19,0-7.76-.23-5.5,3.77-10.89,7.58-14.11A1,1,0,0,1,189,109a1,1,0,0,1,.67.7,5.9,5.9,0,0,0,3,3.44,13.47,13.47,0,0,0,2.86,1.15,8.1,8.1,0,0,1-.1-4.34,1,1,0,0,1,1.2-.71l7.87,1.88a27.37,27.37,0,0,1,8.09,2.87c6.4,3.91,6.12,11.16,5.88,17.55,0,1.18-.09,2.35-.09,3.46A19,19,0,0,1,199.37,153.9Zm-11.09-42.27c-3.1,2.94-6,7.27-5.83,11.57.11,2.62.07,5.29,0,7.87,0,1.3,0,2.61,0,3.91a16.93,16.93,0,0,0,33.85,0c0-1.15,0-2.31.09-3.54.23-6.13.47-12.46-4.92-15.76A26.26,26.26,0,0,0,204,113l-6.83-1.63a6,6,0,0,0,1,3.81,1,1,0,0,1-1.07,1.53,21.41,21.41,0,0,1-5.4-1.88A8.45,8.45,0,0,1,188.28,111.63Z" fill="#093f68"></path><path d="M200.71,136.78a6.41,6.41,0,0,1-1.7-.23,1,1,0,0,1-.68-1.23,1,1,0,0,1,1.23-.69s2.39.65,2.84-.73c.35-1-1.69-3.87-3.8-5.9a1,1,0,0,1,1.38-1.45c.88.85,5.25,5.21,4.32,8A3.46,3.46,0,0,1,200.71,136.78Z" fill="#093f68"></path><circle cx="190.9" cy="125.31" r="1.44" fill="#093f68"></circle><circle cx="209.01" cy="125.31" r="1.44" fill="#093f68"></circle><path d="M204.09,139h-7.41s.94,11.27,3.7,10.33S204.09,139,204.09,139Z" fill="#093f68"></path><path d="M200.06,150.35A2,2,0,0,1,199,150c-2.32-1.52-3.09-8.77-3.28-11a1.05,1.05,0,0,1,.26-.76,1,1,0,0,1,.74-.32h7.41a1,1,0,0,1,.74.33,1,1,0,0,1,.25.77c-.23,2.35-1.25,10.11-4.37,11.17A2.11,2.11,0,0,1,200.06,150.35ZM197.78,140c.46,4.24,1.5,8.1,2.3,8.38,1.16-.4,2.36-4.46,2.88-8.38Zm6.31,0h0Z" fill="#093f68"></path></g></svg>