<svg xmlns="http://www.w3.org/2000/svg" viewBox="0 0 400 300" width="406" height="306" class="illustration styles_illustrationTablet__1DWOa"><g id="_232_designer_outline" data-name="#232_designer_outline"><path d="M257,209.72c4.51,5.64-7.83,17.23-13.65,10.85C236.5,213.07,252.65,204.28,257,209.72Z" fill="#ffc9b0"></path><path d="M247.53,223.44a6.44,6.44,0,0,1-4.93-2.2,6.3,6.3,0,0,1-1.58-6.6c1.35-3.94,6.16-6.78,10-7.44,3-.52,5.37.16,6.76,1.9,2.71,3.39.47,8.28-3.14,11.36A11.46,11.46,0,0,1,247.53,223.44ZM252.87,209a9.28,9.28,0,0,0-1.52.14c-3.78.66-7.48,3.34-8.43,6.12a4.39,4.39,0,0,0,1.16,4.6c2.46,2.7,6.41,1.47,9.25-.95s4.77-6.22,2.88-8.6h0A4.15,4.15,0,0,0,252.87,209Z" fill="#093f68"></path><path d="M192.38,63.46s-4.77-8.84-8.61-8-2.33,3.44-1.51,4,6.86,1,8,5.79Z" fill="#68e1fd"></path><path d="M190.29,66.21a1.19,1.19,0,0,1-.32,0,1,1,0,0,1-.66-.71c-.77-3.19-4.29-4.16-6.18-4.68a5,5,0,0,1-1.43-.52A3.4,3.4,0,0,1,180.32,57c.17-.9.87-2.06,3.24-2.56,4.45-.94,9.17,7.56,9.7,8.53a1,1,0,0,1-.24,1.24L190.93,66A1,1,0,0,1,190.29,66.21Zm-6-9.83-.3,0c-1,.21-1.62.57-1.7,1a1.47,1.47,0,0,0,.54,1.19c.08,0,.5.16.84.25,1.86.52,5.5,1.52,7.08,4.69l.36-.3C189.28,60.1,186.29,56.38,184.28,56.38Z" fill="#093f68"></path><path d="M190.95,171.27H213a25.49,25.49,0,0,1,25.49,25.49v45.57a0,0,0,0,1,0,0H165.46a0,0,0,0,1,0,0V196.75A25.49,25.49,0,0,1,190.95,171.27Z" fill="#68e1fd"></path><path d="M238.53,243.33H165.46a1,1,0,0,1-1-1V196.75A26.51,26.51,0,0,1,191,170.27H213a26.51,26.51,0,0,1,26.49,26.48v45.58A1,1,0,0,1,238.53,243.33Zm-72.07-2h71.07V196.75A24.51,24.51,0,0,0,213,172.27H191a24.51,24.51,0,0,0-24.49,24.48Z" fill="#093f68"></path><path d="M225.22,222.59a1,1,0,0,1-1-1V186a1,1,0,0,1,2,0v35.56A1,1,0,0,1,225.22,222.59Z" fill="#093f68"></path><path d="M180.88,243.33a1,1,0,0,1-1-1V186a1,1,0,1,1,2,0v56.3A1,1,0,0,1,180.88,243.33Z" fill="#093f68"></path><polygon points="216.23 198.32 187.76 198.32 180.88 204.97 180.88 242.33 223.11 242.33 223.11 204.97 216.23 198.32" fill="#093f68"></polygon><path d="M223.11,243.33H180.88a1,1,0,0,1-1-1V205a1,1,0,0,1,.3-.72l6.89-6.65a1,1,0,0,1,.69-.28h28.47a1,1,0,0,1,.69.28l6.89,6.65a1,1,0,0,1,.3.72v37.36A1,1,0,0,1,223.11,243.33Zm-41.23-2h40.23V205.4l-6.29-6.08H188.17l-6.29,6.08Z" fill="#093f68"></path><path d="M187.76,201.08a1,1,0,0,1-1-1V171.27a1,1,0,1,1,2,0v28.81A1,1,0,0,1,187.76,201.08Z" fill="#093f68"></path><path d="M216.39,201.08a1,1,0,0,1-1-1V171.27a1,1,0,1,1,2,0v28.81A1,1,0,0,1,216.39,201.08Z" fill="#093f68"></path><path d="M160,163.12c1.08,2.39,3.39,3.18,7.41,3,8.64-.4,17.38,0,26,0h47.71c2.84,0,4.3-1.39,4.46-4.26.71-12.37,0-24.56-.81-36.89-.68-11.1-2.19-22.48-7.78-32.31-10.79-19-39.69-27.66-52.2-11.41,0,0-8.93-3-17.4,7.46-6.94,8.55-7.6,19.91-7.72,30.42l-.45,39.07A12.09,12.09,0,0,0,160,163.12Z" fill="#725858"></path><path d="M166.21,167.15c-2.9,0-5.8-.61-7.16-3.62a12.79,12.79,0,0,1-.84-5.37l.45-39.08c.12-10.9.84-22.28,7.94-31,7.53-9.29,15.44-8.47,17.8-8,4.89-6,12.38-8.93,21.17-8.33,12.88.9,25.85,9.08,32.28,20.38,5.82,10.23,7.27,22.29,7.91,32.74.75,12.1,1.52,24.59.81,37-.2,3.4-2.08,5.19-5.46,5.2H193.4c-2.81,0-5.62,0-8.44-.08-5.77-.08-11.73-.16-17.55.11C167,167.13,166.62,167.15,166.21,167.15Zm15.44-85.34c-3.11,0-8.34,1.14-13.5,7.5-6.7,8.25-7.37,19.25-7.49,29.8l-.45,39.07a11,11,0,0,0,.67,4.53h0c.62,1.38,1.83,2.62,6.44,2.41,5.88-.27,11.87-.19,17.67-.11,2.81,0,5.61.08,8.41.08h47.71c2.32,0,3.33-1,3.46-3.32.71-12.3,0-24.17-.8-36.75-.67-10.75-2.06-22-7.66-31.89C230,82.39,217.67,74.61,205.43,73.76c-8.35-.57-15.4,2.29-19.85,8.07a1,1,0,0,1-1.11.34A9.76,9.76,0,0,0,181.65,81.81Z" fill="#093f68"></path><path d="M195.94,171.27h11.75a0,0,0,0,1,0,0V178a5,5,0,0,1-5,5h-1.77a5,5,0,0,1-5-5v-6.76A0,0,0,0,1,195.94,171.27Z" fill="#ffc9b0"></path><path d="M202.7,184h-1.77a6,6,0,0,1-6-6v-6.76a1,1,0,0,1,1-1h11.75a1,1,0,0,1,1,1V178A6,6,0,0,1,202.7,184Zm-5.76-11.75V178a4,4,0,0,0,4,4h1.77a4,4,0,0,0,4-4v-5.76Z" fill="#093f68"></path><ellipse cx="168.23" cy="140.74" rx="11.42" ry="9.84" fill="#ffc9b0"></ellipse><path d="M168.23,151.58c-6.85,0-12.42-4.86-12.42-10.84s5.57-10.84,12.42-10.84,12.42,4.86,12.42,10.84S175.07,151.58,168.23,151.58Zm0-19.68c-5.75,0-10.42,4-10.42,8.84s4.67,8.84,10.42,8.84,10.42-4,10.42-8.84S174,131.9,168.23,131.9Z" fill="#093f68"></path><ellipse cx="234.79" cy="140.74" rx="11.42" ry="9.84" fill="#ffc9b0"></ellipse><path d="M234.79,151.58c-6.84,0-12.41-4.86-12.41-10.84S228,129.9,234.79,129.9s12.42,4.86,12.42,10.84S241.64,151.58,234.79,151.58Zm0-19.68c-5.74,0-10.41,4-10.41,8.84s4.67,8.84,10.41,8.84,10.42-4,10.42-8.84S240.54,131.9,234.79,131.9Z" fill="#093f68"></path><path d="M222.76,111.55,211.62,97.23s-2.51,8.82-4.05,14.28L190,111.46l-4.14-12.79L181,111.43l-13.62,0v27a34.43,34.43,0,0,0,34.43,34.44h0a34.44,34.44,0,0,0,34.44-34.44V111.59Z" fill="#ffc9b0"></path><path d="M201.81,173.81a35.47,35.47,0,0,1-35.43-35.44v-27a1,1,0,0,1,1-1l12.93,0,4.63-12.12a1,1,0,0,1,1-.64,1,1,0,0,1,.92.69l3.92,12.1,16.07.05C208.36,105,210.65,97,210.65,97a1,1,0,0,1,1.76-.34l10.84,13.94,13,0a1,1,0,0,1,1,1v26.78A35.48,35.48,0,0,1,201.81,173.81Zm-33.43-61.42v26a33.44,33.44,0,1,0,66.87,0V112.59l-12.5,0a1,1,0,0,1-.78-.38L212,99.4c-.82,2.9-2.41,8.49-3.51,12.38a1,1,0,0,1-1,.73h0L190,112.46a1,1,0,0,1-.94-.69l-3.27-10.09-3.86,10.11a1,1,0,0,1-.93.64h0Z" fill="#093f68"></path><path d="M186.13,148.14a12.26,12.26,0,1,1,12.25-12.26A12.27,12.27,0,0,1,186.13,148.14Zm0-22.51a10.26,10.26,0,1,0,10.25,10.25A10.27,10.27,0,0,0,186.13,125.63Z" fill="#093f68"></path><path d="M217.5,148.14a12.26,12.26,0,1,1,12.25-12.26A12.27,12.27,0,0,1,217.5,148.14Zm0-22.51a10.26,10.26,0,1,0,10.25,10.25A10.26,10.26,0,0,0,217.5,125.63Z" fill="#093f68"></path><circle cx="187.19" cy="136.55" r="3.19" fill="#093f68"></circle><circle cx="215.57" cy="135.88" r="3.19" fill="#093f68"></circle><path d="M201.24,147.45a20.49,20.49,0,0,1-3.11-.26,1,1,0,0,1,.35-2,15,15,0,0,0,4.72.05c.19-.92-1-4.33-2.69-7.53a1,1,0,0,1,1.78-.93c1.11,2.14,3.61,7.34,2.7,9.38a1.72,1.72,0,0,1-1.16,1A10.71,10.71,0,0,1,201.24,147.45Z" fill="#093f68"></path><path d="M177.24,124.59a2,2,0,0,1-.25-4l15.09-1.88a2,2,0,0,1,.5,4l-15.09,1.88Z" fill="#093f68"></path><path d="M224.48,125a2.2,2.2,0,0,1-.36,0l-15-2.73a2,2,0,0,1,.72-3.94l15,2.74a2,2,0,0,1-.35,4Z" fill="#093f68"></path><path d="M203.72,160a22.14,22.14,0,0,1-15.7-6.68,1,1,0,0,1,1.49-1.33c.38.42,9.46,10.31,23.51,3.86a1,1,0,1,1,.84,1.82A24.14,24.14,0,0,1,203.72,160Z" fill="#093f68"></path><path d="M206.24,135.38a1,1,0,0,1-.57-.18,6.57,6.57,0,0,0-7.77,0,1,1,0,0,1-1.41-.18,1,1,0,0,1,.17-1.4,8.62,8.62,0,0,1,10.16,0,1,1,0,0,1,.25,1.39A1,1,0,0,1,206.24,135.38Z" fill="#093f68"></path><path d="M174.8,133.7a1.26,1.26,0,0,1-.27,0l-6.57-1.8a1,1,0,1,1,.53-1.92l6.57,1.79a1,1,0,0,1-.26,2Z" fill="#093f68"></path><path d="M229.25,133.7a1,1,0,0,1-.26-2l6.57-1.79a1,1,0,1,1,.52,1.92l-6.57,1.8A1.09,1.09,0,0,1,229.25,133.7Z" fill="#093f68"></path><path d="M171,92.44c5.35-1.4,17-8.61,25.6-9.55s28.86,1.4,34.91-1.86,7.91-14.89-.93-23.27-34,.47-50.27,10-22.34,11.4-22.11,17.92S165.62,93.83,171,92.44Z" fill="#68e1fd"></path><path d="M167.35,93.9a12,12,0,0,1-7.07-2.07,7.68,7.68,0,0,1-3.11-6.11c-.21-5.89,4.08-8.31,14.46-14.15,2.38-1.35,5.07-2.87,8.14-4.66,15.37-9,41.76-19.07,51.46-9.87,4.72,4.46,7,10.29,6.23,16-.53,4-2.59,7.33-5.51,8.9-4.08,2.2-13.52,2-22.64,1.84a116.67,116.67,0,0,0-12.63.14c-5.24.57-11.85,3.63-17.16,6.09a58.53,58.53,0,0,1-8.3,3.42h0A15.11,15.11,0,0,1,167.35,93.9Zm52.47-38.5A48.29,48.29,0,0,0,208.45,57a112.16,112.16,0,0,0-27.67,11.61c-3.08,1.81-5.79,3.33-8.17,4.68C162.71,78.89,159,81,159.17,85.65a5.69,5.69,0,0,0,2.31,4.58c2.2,1.64,5.83,2.13,9.24,1.24h0a58.15,58.15,0,0,0,8-3.31c5.45-2.52,12.22-5.66,17.78-6.26a116.43,116.43,0,0,1,12.89-.15c8.45.16,18,.35,21.65-1.6,2.36-1.27,4-4,4.48-7.4.67-5-1.38-10.24-5.62-14.26C227.45,56.21,223.78,55.4,219.82,55.4Z" fill="#093f68"></path><path d="M179.24,242.4c-3.52,3.22-11.36,5.58-15.26-1s-11.69-34.82-11.69-34.82l9.13-8.22,18.22,29.91C182.15,232.51,182.76,239.19,179.24,242.4Z" fill="#ffc9b0"></path><path d="M171.19,246.59a10.81,10.81,0,0,1-1.5-.11,9.1,9.1,0,0,1-6.58-4.61c-3.92-6.66-11.46-33.91-11.78-35.06a1,1,0,0,1,.29-1l9.13-8.22a1,1,0,0,1,1.52.22l18.23,29.91c2.74,4.68,3.29,11.89-.58,15.43A13.64,13.64,0,0,1,171.19,246.59Zm-17.77-39.72c1.15,4.1,7.94,28.07,11.42,34A7,7,0,0,0,170,244.5a11.3,11.3,0,0,0,8.58-2.83c3-2.78,2.56-8.93.21-12.93l-17.59-28.87Z" fill="#093f68"></path><rect x="146.68" y="181.41" width="8.35" height="10.33" transform="translate(-55.2 63.65) rotate(-20.22)" fill="#68e1fd"></rect><path d="M148.72,193.87a1,1,0,0,1-.94-.65l-3.57-9.7a1,1,0,0,1,.6-1.28l7.83-2.89a1,1,0,0,1,.76,0,1,1,0,0,1,.52.56l3.57,9.7a1,1,0,0,1-.59,1.28l-7.83,2.89A1,1,0,0,1,148.72,193.87Zm-2.28-10.1,2.87,7.82,6-2.2-2.88-7.82Z" fill="#093f68"></path><path d="M152.47,180.48a8.74,8.74,0,0,0-.88-6.47c-3-5.33-5.85,1.49-8.89-9,0,0-4.16,6.21-2.45,11.28,1.86,5.57,5.78,6.6,5.78,6.6Z" fill="#ffbc0e"></path><path d="M146,183.85a1,1,0,0,1-.25,0c-.19,0-4.47-1.24-6.48-7.25-1.84-5.48,2.39-11.89,2.57-12.16a1,1,0,0,1,1-.43,1,1,0,0,1,.8.71c1.61,5.55,3,5.7,4.41,5.86a4.93,4.93,0,0,1,4.39,3,9.68,9.68,0,0,1,1,7.26,1,1,0,0,1-.6.64l-6.44,2.37A1.07,1.07,0,0,1,146,183.85Zm-3.56-16.4c-1,2.11-2.26,5.56-1.28,8.49,1.4,4.17,4,5.51,4.83,5.85l5.6-2.07a7.88,7.88,0,0,0-.9-5.23,3,3,0,0,0-2.87-2C145.81,172.31,144.08,171.75,142.47,167.45Zm10,13h0Zm0,0h0Z" fill="#093f68"></path><path d="M149.51,192.58c1.41,4.93,3.29,10.67,5.53,16.74,4.45,12.1,9.13,22.28,12.23,27l3.37-1.24c-.72-5.62-3.76-16.4-8.22-28.5-2.24-6.07-4.53-11.66-6.65-16.33Z" fill="#ad7972"></path><path d="M167.27,237.34a1,1,0,0,1-.84-.45c-3.26-5-8-15.42-12.33-27.22-2.17-5.88-4.09-11.7-5.55-16.81a1,1,0,0,1,.61-1.22l6.26-2.31a1,1,0,0,1,1.26.53c2.21,4.85,4.52,10.52,6.68,16.4,4.35,11.8,7.52,22.8,8.27,28.71A1,1,0,0,1,171,236l-3.38,1.25A1,1,0,0,1,167.27,237.34ZM150.73,193.2c1.41,4.85,3.22,10.28,5.25,15.78,4.11,11.16,8.54,21,11.7,26.14l1.86-.68c-.9-5.94-3.94-16.33-8.06-27.49-2-5.5-4.17-10.8-6.24-15.42Z" fill="#093f68"></path><rect x="147.37" y="196.98" width="10.97" height="3.91" rx="1.73" transform="translate(-59.35 65.1) rotate(-20.22)" fill="#ffc9b0"></rect><path d="M149.41,203.17a2.74,2.74,0,0,1-1.15-.25,2.69,2.69,0,0,1-1.41-1.53l-.16-.43a2.73,2.73,0,0,1,1.62-3.5l7-2.6a2.75,2.75,0,0,1,3.51,1.62l.15.42a2.66,2.66,0,0,1-.08,2.09,2.73,2.73,0,0,1-1.53,1.42L150.35,203A2.56,2.56,0,0,1,149.41,203.17Zm6.89-6.48a.8.8,0,0,0-.26.05l-7,2.59a.73.73,0,0,0-.43.94l.15.43a.8.8,0,0,0,.38.41.73.73,0,0,0,.56,0l7-2.6h0a.67.67,0,0,0,.41-.38.7.7,0,0,0,0-.55l-.16-.43a.73.73,0,0,0-.38-.41A.82.82,0,0,0,156.3,196.69Z" fill="#093f68"></path><rect x="155.15" y="198.26" width="11.8" height="3.63" rx="1.82" transform="translate(293.13 -20.21) rotate(69.78)" fill="#ffc9b0"></rect><path d="M162.46,206.73a2.84,2.84,0,0,1-2.64-1.84L157,197.22a2.81,2.81,0,0,1,1.67-3.62,2.86,2.86,0,0,1,2.15.09,2.8,2.8,0,0,1,1.47,1.59l2.82,7.66a2.82,2.82,0,0,1-1.67,3.62A3,3,0,0,1,162.46,206.73Zm-2.82-11.3a.92.92,0,0,0-.28,0,.84.84,0,0,0-.46.43.79.79,0,0,0,0,.62l2.82,7.66h0a.79.79,0,0,0,.42.46.81.81,0,0,0,1.11-1L160.41,196a.81.81,0,0,0-.43-.46A.77.77,0,0,0,159.64,195.43Z" fill="#093f68"></path><rect x="148.72" y="200.65" width="10.97" height="3.91" rx="1.73" transform="translate(-60.53 65.8) rotate(-20.22)" fill="#ffc9b0"></rect><path d="M150.76,206.84a2.73,2.73,0,0,1-2.56-1.78l-.16-.43a2.74,2.74,0,0,1,1.62-3.5l7-2.6a2.75,2.75,0,0,1,3.51,1.62l.16.42a2.74,2.74,0,0,1-1.62,3.51h0l-7.05,2.59A2.52,2.52,0,0,1,150.76,206.84Zm6.89-6.48a.7.7,0,0,0-.25,0L150.35,203a.76.76,0,0,0-.41.38.73.73,0,0,0,0,.56l.16.42a.71.71,0,0,0,.93.44l7.05-2.6a.73.73,0,0,0,.43-.93l-.16-.43a.7.7,0,0,0-.38-.41A.78.78,0,0,0,157.65,200.36Zm.75,2.78h0Z" fill="#093f68"></path><rect x="150.07" y="204.32" width="10.97" height="3.91" rx="1.73" transform="translate(-61.72 66.49) rotate(-20.22)" fill="#ffc9b0"></rect><path d="M152.11,210.51a2.66,2.66,0,0,1-1.14-.25,2.7,2.7,0,0,1-1.42-1.53l-.16-.43a2.74,2.74,0,0,1,1.62-3.5l7.05-2.6a2.74,2.74,0,0,1,3.5,1.62l.16.43a2.74,2.74,0,0,1-1.62,3.5l-7,2.59A2.61,2.61,0,0,1,152.11,210.51ZM159,204a.74.74,0,0,0-.25.05l-7.05,2.59a.8.8,0,0,0-.41.38.73.73,0,0,0,0,.56l.16.43a.76.76,0,0,0,.38.41.7.7,0,0,0,.55,0l7-2.6h0a.72.72,0,0,0,.43-.93l-.16-.43A.72.72,0,0,0,159,204Z" fill="#093f68"></path><rect x="151.43" y="207.99" width="10.97" height="3.91" rx="1.73" transform="translate(-62.9 67.18) rotate(-20.22)" fill="#ffc9b0"></rect><path d="M153.46,214.18a2.73,2.73,0,0,1-2.56-1.78l-.15-.43a2.73,2.73,0,0,1,1.61-3.5l7-2.6a2.73,2.73,0,0,1,3.5,1.62l.16.43a2.72,2.72,0,0,1-1.62,3.5l-7,2.59A2.61,2.61,0,0,1,153.46,214.18Zm6.89-6.47a.73.73,0,0,0-.25,0l-7,2.59a.73.73,0,0,0-.44.94l.16.43a.76.76,0,0,0,.38.41.72.72,0,0,0,.56,0l7-2.6h0a.72.72,0,0,0,.43-.93l-.15-.43A.74.74,0,0,0,160.35,207.71Z" fill="#093f68"></path><path d="M251,194.64c-7.66-2.89-23.12-4.78-36.45,8.8s-8.8,30,5.28,36.48,26.12,3.36,28.91-5.44S242.19,225,246,220.36s8.57.57,12.6-6.79S258.68,197.53,251,194.64Z" fill="#fff"></path><path d="M234.1,244.38a35.5,35.5,0,0,1-14.68-3.55c-7.28-3.36-12.2-9.33-13.49-16.36-1.36-7.43,1.46-15.15,7.92-21.73,12.24-12.48,27.41-12.85,37.52-9h0a15.15,15.15,0,0,1,8.92,8.84,13.71,13.71,0,0,1-.86,11.51c-2.51,4.6-5.54,4.82-8,5-1.86.13-3.33.24-4.71,1.94-1.18,1.45-.77,2.07.7,3.84,1.66,2,3.92,4.73,2.27,10a12.94,12.94,0,0,1-7.42,8A20.15,20.15,0,0,1,234.1,244.38Zm5.39-50.8c-7.83,0-16.61,2.81-24.21,10.56-6,6.11-8.62,13.2-7.38,20,1.17,6.39,5.68,11.82,12.36,14.91,8,3.67,15.7,4.38,21.23,1.94a11,11,0,0,0,6.31-6.78c1.33-4.19-.31-6.16-1.9-8.07-1.4-1.68-3-3.59-.71-6.38,1.93-2.37,4.15-2.53,6.12-2.68,2.35-.17,4.38-.31,6.37-4a11.78,11.78,0,0,0,.74-9.85,13.18,13.18,0,0,0-7.76-7.67h0A31.88,31.88,0,0,0,239.49,193.58Z" fill="#093f68"></path><path d="M228.63,200.21c.08.39.28.75.36,1.14a3,3,0,0,1-1.44,2.65,8.38,8.38,0,0,0-2.38,2.08,3.36,3.36,0,0,0,1.09,4.24,4.85,4.85,0,0,0,4.59.35c1.56-.64,3.22-1.93,4.72-1.18a8,8,0,0,1,1.44,1.23,4.83,4.83,0,0,0,6.61-.6,5.51,5.51,0,0,0,0-6.82c-2.12-2.62-.34-7-4.93-7.42C236.33,195.65,228,196.72,228.63,200.21Z" fill="#ffbc0e"></path><path d="M239.91,212.76a5.31,5.31,0,0,1-3.56-1.29,5.22,5.22,0,0,1-.48-.46,3.28,3.28,0,0,0-.74-.62c-.66-.33-1.51,0-2.72.65-.4.2-.79.39-1.18.55a5.82,5.82,0,0,1-5.55-.45,4.34,4.34,0,0,1-1.37-5.57,6.38,6.38,0,0,1,2.05-1.94l.59-.42c.58-.44,1.16-1.11,1.05-1.68a1.87,1.87,0,0,0-.13-.4,4.71,4.71,0,0,1-.22-.73h0a3,3,0,0,1,.81-2.68c2.27-2.48,8.6-3,10.3-2.83,3.61.36,4.12,2.86,4.53,4.86a6.69,6.69,0,0,0,1.08,2.93,6.52,6.52,0,0,1,0,8.09,5.87,5.87,0,0,1-4,2Zm-5.31-4.5a3.09,3.09,0,0,1,1.42.34,4.89,4.89,0,0,1,1.27,1,4.4,4.4,0,0,0,.38.37,3.45,3.45,0,0,0,2.55.78,3.81,3.81,0,0,0,2.64-1.27,4.53,4.53,0,0,0-.05-5.55,8.34,8.34,0,0,1-1.48-3.78c-.42-2.06-.71-3.07-2.77-3.27-1.74-.18-7.08.5-8.62,2.19a1,1,0,0,0-.33,1h0a3.24,3.24,0,0,0,.13.41,4.75,4.75,0,0,1,.23.73,3.81,3.81,0,0,1-1.81,3.64l-.66.47a4.73,4.73,0,0,0-1.46,1.32,2.35,2.35,0,0,0,.8,2.92,3.89,3.89,0,0,0,3.63.23c.35-.14.69-.31,1-.49A7.26,7.26,0,0,1,234.6,208.26Z" fill="#093f68"></path><path d="M249,206.65a5.09,5.09,0,0,0-1.39,3,2.49,2.49,0,0,0,.76,2.08,2.7,2.7,0,0,0,1.69.5,7.25,7.25,0,0,0,4.27-1.59c1.6-1.23,4.27-4.71,1.79-6.38C253.86,202.81,250.43,205.05,249,206.65Z" fill="#093f68"></path><path d="M250.05,213.26h0a3.64,3.64,0,0,1-2.31-.72,3.44,3.44,0,0,1-1.13-2.92,6.09,6.09,0,0,1,1.65-3.64h0c1.79-2,5.65-4.37,8.41-2.52a3.1,3.1,0,0,1,1.46,2.55c.06,2.15-1.93,4.48-3.2,5.45A8.15,8.15,0,0,1,250.05,213.26Zm-.35-5.93a4,4,0,0,0-1.13,2.42A1.54,1.54,0,0,0,249,211a1.82,1.82,0,0,0,1.06.27,6,6,0,0,0,3.66-1.39c1-.77,2.45-2.56,2.41-3.8a1.09,1.09,0,0,0-.57-.94c-1.52-1-4.41.65-5.82,2.2Z" fill="#093f68"></path><path d="M255.49,202.47c-.4-.93-1.17-2-2.16-1.77S252,202,251.84,203c-.46,2.6-.54,5.25-1,7.85a.8.8,0,0,0,.1.7.68.68,0,0,0,.46.16,5.39,5.39,0,0,0,4.9-2.86C257.18,207,256.25,204.25,255.49,202.47Z" fill="#ffc9b0"></path><path d="M251.69,212.69l-.4,0a1.65,1.65,0,0,1-1.08-.45,1.74,1.74,0,0,1-.37-1.59c.24-1.3.38-2.65.52-3.95s.27-2.59.5-3.9c.32-1.81,1.08-2.84,2.28-3.07s2.53.64,3.27,2.37h0c1.34,3.15,1.6,5.5.77,7.17A6.5,6.5,0,0,1,251.69,212.69Zm1.86-11h0c-.2,0-.51.44-.68,1.45-.22,1.23-.35,2.51-.48,3.75s-.27,2.53-.49,3.8a4.53,4.53,0,0,0,3.53-2.31c.37-.76.53-2.33-.82-5.51C254.28,202.18,253.84,201.67,253.55,201.67Z" fill="#093f68"></path><path d="M216.1,211.05c-1.84.66-3.65,2.1-3.6,3.94a24.39,24.39,0,0,0,.51,2.63c.28,2.13-.9,4.53.29,6.31a4.62,4.62,0,0,0,3.56,1.65c2,.17,4.36-.35,5.35-2.12a2.53,2.53,0,0,1,.69-1,2.4,2.4,0,0,1,1.06-.26,3.73,3.73,0,0,0,2.87-2.27c.79-2-.6-4.14-2-5.55-1.66-1.72-4.24-3.75-6.75-3.73A6.48,6.48,0,0,0,216.1,211.05Z" fill="#f56132"></path><path d="M217.62,226.61l-.84,0a5.47,5.47,0,0,1-4.31-2.1c-.94-1.41-.74-3-.56-4.47a9.3,9.3,0,0,0,.11-2.26c-.05-.31-.13-.64-.22-1a7.44,7.44,0,0,1-.3-1.75c-.06-2.47,2.26-4.18,4.27-4.9h0a7.32,7.32,0,0,1,2.34-.45h0c3.08,0,6,2.52,7.44,4,2.18,2.27,2.95,4.61,2.17,6.62a4.72,4.72,0,0,1-3.65,2.89l-.25,0a1.71,1.71,0,0,0-.41.07,2.19,2.19,0,0,0-.23.38c0,.09-.09.18-.14.27C222.13,225.65,220.12,226.61,217.62,226.61Zm.53-15h0a5.53,5.53,0,0,0-1.68.33h0c-1.49.54-3,1.66-2.94,3a5.84,5.84,0,0,0,.23,1.3,8.88,8.88,0,0,1,.27,1.23,11,11,0,0,1-.1,2.76c-.16,1.25-.29,2.33.24,3.12a3.72,3.72,0,0,0,2.8,1.21c1.61.14,3.62-.22,4.4-1.61l.1-.2a2.75,2.75,0,0,1,.91-1.14,2.82,2.82,0,0,1,1.28-.39l.19,0a2.71,2.71,0,0,0,2.08-1.65c.67-1.72-1-3.71-1.75-4.49C223.16,214.05,220.58,211.66,218.15,211.66Zm-2.05-.61h0Z" fill="#093f68"></path><path d="M225.27,231.58a4.51,4.51,0,0,0,1.83,3.22,8.92,8.92,0,0,0,3.47,1.51,18.35,18.35,0,0,0,9.86-.38,3.89,3.89,0,0,0,1.59-.85,2.86,2.86,0,0,0,0-3.6,7.21,7.21,0,0,0-3.21-2.16c-2.27-.94-2.53-4.62-5.66-4.72-1.35,0-2.11.87-3,1.73-1.44,1.4-1.5,1.2-3.44,1.21C225,227.55,225.21,230.47,225.27,231.58Z" fill="#70cc40"></path><path d="M234.82,237.8a19.79,19.79,0,0,1-4.48-.51,9.67,9.67,0,0,1-3.85-1.7,5.5,5.5,0,0,1-2.22-4v-.14c-.06-1.11-.18-3.19.85-4.28a2.09,2.09,0,0,1,1.57-.67h.64c1.14,0,1.14,0,2.12-.93l.28-.28a4.56,4.56,0,0,1,3.44-1.73c2.32.07,3.41,1.68,4.29,3a4.58,4.58,0,0,0,1.72,1.81,8.21,8.21,0,0,1,3.64,2.49,3.89,3.89,0,0,1-.08,4.9,4.58,4.58,0,0,1-2,1.1A19,19,0,0,1,234.82,237.8Zm-8.13-9.26a.16.16,0,0,0-.13,0c-.28.31-.39,1.25-.3,2.8v.15h0a3.51,3.51,0,0,0,1.44,2.48,7.86,7.86,0,0,0,3.09,1.33,17.45,17.45,0,0,0,9.32-.36,3,3,0,0,0,1.19-.6,1.93,1.93,0,0,0-.11-2.31,6.52,6.52,0,0,0-2.8-1.83,6.27,6.27,0,0,1-2.61-2.54c-.86-1.28-1.46-2.06-2.7-2.1-.71,0-1.2.4-2,1.16l-.3.29c-1.44,1.39-1.88,1.5-3.53,1.49Z" fill="#093f68"></path></g></svg>