<svg id="Layer_1" data-name="Layer 1" xmlns="http://www.w3.org/2000/svg" xmlns:xlink="http://www.w3.org/1999/xlink" viewBox="0 0 385.81 295.51" width="406" height="306" class="illustration styles_illustrationTablet__1DWOa"><defs><linearGradient id="linear-gradient" x1="207.27" y1="62.54" x2="204.23" y2="237.15" gradientUnits="userSpaceOnUse"><stop offset="0.01"></stop><stop offset="0.13" stop-opacity="0.69"></stop><stop offset="0.25" stop-opacity="0.32"></stop><stop offset="1" stop-opacity="0"></stop></linearGradient></defs><title>1</title><path d="M399.57,258a52.44,52.44,0,0,1-2.05,9.44c-5.26,16.71-18.46,31.22-33.9,40.22-17.92,10.47-33,14.91-48.46,14.91a99.57,99.57,0,0,1-23.36-3c-1-.24-2-.5-3.07-.77-2.57-.68-5.2-1.43-7.89-2.27l-3.26-1-1.66-.56c-2.22-.74-4.47-1.53-6.78-2.37l-3.49-1.29c-11.31-4.22-22.2-10.11-33.32-14.93-10.25-4.43-20.71-8-31.83-8.41-28-1.14-53,17.48-80.66,22.26C86.63,315.94,51.28,299.73,32,272.13q-1.44-2.06-2.75-4.17c-.27-.42-.52-.85-.78-1.27-.69-1.14-1.34-2.27-2-3.43-.29-.52-.57-1.05-.84-1.58s-.6-1.16-.88-1.74l-.07-.14c-.3-.59-.58-1.17-.85-1.76h0a100.79,100.79,0,0,1-6.18-17.12,110.08,110.08,0,0,1,3.17-65.35c.69-1.87,1.43-3.72,2.24-5.55C27,161,32.41,152.47,39.84,146c15-13.05,36-16.18,54-24.57a121.85,121.85,0,0,0,24.36-15.39c26.28-20.83,47-50.08,76.64-66.39a103.26,103.26,0,0,1,41-12.17,116.64,116.64,0,0,1,69.12,16c13.54,8.11,26.18,17.47,37.11,42.48,6.05,13.82,11.56,32.43,16.43,58.23a86.37,86.37,0,0,0,2.17,8.88c6.48,21.58,20.73,42.08,30.17,63.24,4.8,10.75,8.33,21.69,9,33A48,48,0,0,1,399.57,258Z" transform="translate(-14.15 -27.1)" fill="#68e1fd" opacity="0.18" style="isolation: isolate;"></path><path d="M162.59,260.9c-1.77.07-3.84.3-4.75,1.82a24.23,24.23,0,0,1-1,2.39c-1,1.31-2.9,1.19-4.52,1a56,56,0,0,0-29.19,4.55c6.82,3.2,14.54,3.79,22.06,4.33,55.21,4,110.61,7.93,165.88,4.76,3.26-.18,6.7-.46,9.37-2.34,1.31-.92,2.43-2.43,2.16-4-.39-2.23-3.07-3.1-5.29-3.53L250.87,257.1c-7-1.35-14.2-2.68-21.38-2.47-6.67.18-12.11,2.86-18.46,4.14C195.72,261.85,178.2,260.31,162.59,260.9Z" transform="translate(-14.15 -27.1)" fill="#68e1fd" opacity="0.39"></path><path d="M281,270.27l-64.47-.38a8.2,8.2,0,0,1-8.2-8.21V151.82a8.2,8.2,0,0,1,8.2-8.2H283a8.2,8.2,0,0,1,8.2,8.2l-1.95,110.25A8.21,8.21,0,0,1,281,270.27Z" transform="translate(-14.15 -27.1)" fill="#68e1fd"></path><path d="M284.14,176.88,274,179.46a99.66,99.66,0,0,1-49.13,0l-10.11-2.58v-26h69.35Z" transform="translate(-14.15 -27.1)" fill="#020202" opacity="0.1" style="isolation: isolate;"></path><rect x="204.79" y="127.68" width="61.61" height="16.3" fill="#fff" style="isolation: isolate;"></rect><rect x="204.82" y="166.21" width="13.23" height="13.63" fill="#020202" opacity="0.1" style="isolation: isolate;"></rect><rect x="220.91" y="166.21" width="13.23" height="13.63" fill="#020202" opacity="0.1" style="isolation: isolate;"></rect><rect x="236.99" y="166.21" width="13.23" height="13.63" fill="#020202" opacity="0.1" style="isolation: isolate;"></rect><rect x="252.59" y="166.21" width="13.23" height="13.63" fill="#020202" opacity="0.1" style="isolation: isolate;"></rect><rect x="204.82" y="183.42" width="13.23" height="13.63" fill="#020202" opacity="0.1" style="isolation: isolate;"></rect><rect x="220.91" y="183.42" width="13.23" height="13.63" fill="#020202" opacity="0.1" style="isolation: isolate;"></rect><rect x="236.99" y="183.42" width="13.23" height="13.63" fill="#020202" opacity="0.1" style="isolation: isolate;"></rect><rect x="252.59" y="183.42" width="13.23" height="13.63" fill="#020202" opacity="0.1" style="isolation: isolate;"></rect><rect x="252.59" y="200.63" width="13.23" height="30.83" fill="#020202" opacity="0.1" style="isolation: isolate;"></rect><rect x="204.82" y="200.63" width="13.23" height="13.63" fill="#020202" opacity="0.1" style="isolation: isolate;"></rect><rect x="220.91" y="200.63" width="13.23" height="13.63" fill="#020202" opacity="0.1" style="isolation: isolate;"></rect><rect x="236.99" y="200.63" width="13.23" height="13.63" fill="#020202" opacity="0.1" style="isolation: isolate;"></rect><rect x="204.82" y="217.83" width="13.23" height="13.63" fill="#020202" opacity="0.1" style="isolation: isolate;"></rect><rect x="220.91" y="217.83" width="13.23" height="13.63" fill="#020202" opacity="0.1" style="isolation: isolate;"></rect><rect x="236.99" y="217.83" width="13.23" height="13.63" fill="#020202" opacity="0.1" style="isolation: isolate;"></rect><path d="M152.23,116.14c.12,0,0-.18-.08-.22a14.58,14.58,0,0,0-1.76-.21,2.26,2.26,0,0,1-1.55-.76,2.8,2.8,0,0,1-.44-1.34l-1.1-7.46c-.9-6.06-.39-12.1-.7-18.22a6.29,6.29,0,0,1,.09-1.89,12.64,12.64,0,0,1,.54-1.45,14.09,14.09,0,0,0,.54-5.86,1.67,1.67,0,0,0-.52-1.4c-.79-.51-1.66.5-2.05,1.36l-1,2.24a.69.69,0,0,1-.21.31.7.7,0,0,1-.6,0c-1.65-.45-3.46-1-4.33-2.49-.64-1.09-.78-2.67-2-3.15a2.17,2.17,0,0,0-2.6,1.37,6.44,6.44,0,0,0-.15,3.21c.27,2.14.6,4.39,1.95,6.06A19,19,0,0,1,138,88.31a7.23,7.23,0,0,1,.68,3.42l.68,23.34c.06,2.32.18,4.78,1.52,6.67,1.67,2.34,4.74,3.13,7.56,3.66a10.93,10.93,0,0,0,4.33.21,4,4,0,0,0,3.12-2.72,4.8,4.8,0,0,0-.95-3.56C154.27,118.27,152.7,117.31,152.23,116.14Z" transform="translate(-14.15 -27.1)" fill="#f9d0b4"></path><path d="M141.92,84.21a9.35,9.35,0,0,1-3.54.25,3.24,3.24,0,0,1-2.25-.72,3.12,3.12,0,0,1-.48-2.46.5.5,0,0,1,.12-.34.52.52,0,0,1,.39-.07l5.63.49c.83.07,2.58-.19,2.23,1A3.28,3.28,0,0,1,141.92,84.21Z" transform="translate(-14.15 -27.1)" fill="#e2b596"></path><path d="M230.62,134.23l-9.56,1.82-5.23,1-5-7.39c-2.42-2.27-2.38-2.74-3.75.28-3.76,8.26-9.93,23.37-10.41,34.68l-3-.34-38.35-4.51L166,125.21l-14.07,1.44L149.45,115l22.93-7.49a36.59,36.59,0,0,1,7.34-1.25c7.3-.46,20.41-1,28.65,2.22C219.34,112.66,230.62,134.23,230.62,134.23Z" transform="translate(-14.15 -27.1)" fill="#68e1fd"></path><path d="M229.12,133.58s4.09,6.3,3.07,8.75S210,153.78,210,153.78c-1.5.06-2.53,1.63-3,3.07a34.45,34.45,0,0,0-.78,4.65,6.37,6.37,0,0,1-2.08,4.11,2.49,2.49,0,0,1-1.59.58,2.71,2.71,0,0,1-1.11-.34,5.83,5.83,0,0,1-2.75-4.64,12,12,0,0,1,1.09-5.46H197.3c-.4-.84.8-1.47,1.67-1.76,3.75-1.25,20.33-13.9,20.45-14.81s-2.52-3-2.52-3A27.73,27.73,0,0,1,229.12,133.58Z" transform="translate(-14.15 -27.1)" fill="#f9d0b4"></path><path d="M181.83,96.49a9.34,9.34,0,0,0,.37,2.74,6.29,6.29,0,0,0,1.65,2.65c.75.72,1.77,1.18,2,2.29a5,5,0,0,1-.14,2.06,14.94,14.94,0,0,0-.47,2.47,3.45,3.45,0,0,0,.63,2.37,3.86,3.86,0,0,0,3,1.21,5.37,5.37,0,0,0,4.32-1.72,10.88,10.88,0,0,0,1.45-3.33c.46-1.34.82-2.71,1.32-4a77.39,77.39,0,0,0,2.77-7.83,13.47,13.47,0,0,0-.22-8.49c-1-2.26-4.13-3.34-6.43-3.38A10.45,10.45,0,0,0,185.32,86c-1.44,1.27-2.19,3.57-2.72,5.33A17.51,17.51,0,0,0,181.83,96.49Z" transform="translate(-14.15 -27.1)" fill="#f9d0b4"></path><path d="M183.75,85.16a4.86,4.86,0,0,1-1-1.71,8.44,8.44,0,0,1-.45-4.91,5.36,5.36,0,0,1,3-3.74,5.86,5.86,0,0,1,2.34-.4,3.63,3.63,0,0,1,1.22.2c1.62.62,2,2.84,3.45,3.83a1.46,1.46,0,0,1,1.39-1.11,2,2,0,0,1,1.56.92,11.35,11.35,0,0,1,.9,1.64,7.73,7.73,0,0,0,2.22,2.57.73.73,0,0,0,.47.2c.21,0,.38-.17.58-.26.59-.24,1.21.33,1.41.93a16.05,16.05,0,0,0,.43,1.85c.35.75,1.15,1.18,1.69,1.8a4.49,4.49,0,0,1,.36,4.76,13.18,13.18,0,0,1-3.23,3.84.9.9,0,0,0-1.24-.21,4.23,4.23,0,0,0-1,1,1.53,1.53,0,0,1-1.2.65c-.06-1.44.7-2.8.83-4.24a6,6,0,0,0-3.11-5.4,10.62,10.62,0,0,0-6.36-1.12C186.71,86.37,184.76,86.21,183.75,85.16Z" transform="translate(-14.15 -27.1)" fill="#473f47"></path><path d="M199,94.55a2.06,2.06,0,0,1,1.31-.13,1.56,1.56,0,0,1,.92,1.49,3.06,3.06,0,0,1-.7,1.89A7.34,7.34,0,0,1,199,99.17a2.3,2.3,0,0,1-1.08.51,1.53,1.53,0,0,1-1.53-1,2.54,2.54,0,0,1,.18-1.94A4,4,0,0,1,199,94.55Z" transform="translate(-14.15 -27.1)" fill="#f9d0b4"></path><circle cx="125.58" cy="33.41" r="22.05" fill="#f8c244"></circle><circle cx="139.73" cy="60.51" r="18.79" transform="translate(43.47 161.65) rotate(-80.78)" fill="#e8a825"></circle><path d="M138,72.35v-3A8.7,8.7,0,0,1,133.45,68l.71-2a8,8,0,0,0,4.27,1.28c2.13,0,3.55-1.22,3.55-2.92s-1.16-2.65-3.36-3.56c-3.05-1.19-4.93-2.57-4.93-5.16s1.76-4.35,4.51-4.8v-3h1.85v2.89a8,8,0,0,1,3.88,1l-.74,2a7.07,7.07,0,0,0-3.75-1c-2.3,0-3.16,1.37-3.16,2.56,0,1.55,1.1,2.33,3.69,3.4,3.07,1.25,4.63,2.8,4.63,5.46a5.19,5.19,0,0,1-4.71,5.07v3.1Z" transform="translate(-14.15 -27.1)" fill="#f8c244"></path><path d="M145.06,78.71a3.66,3.66,0,0,1,1.72-2.36.5.5,0,0,1,.43,0,1,1,0,0,1,.27.4,7.22,7.22,0,0,1,.3,2.41,13.14,13.14,0,0,1,0,1.66,3.68,3.68,0,0,1-1.55,2.84c-.5.27-2,.37-2-.81a13,13,0,0,1,.4-2A18.69,18.69,0,0,1,145.06,78.71Z" transform="translate(-14.15 -27.1)" fill="#f9d0b4"></path><path d="M155.33,159.76s.65,49.61,3.19,68c2.49,17.93,4.19,32,4.26,33.28l6-.77,5.9-77.69,7.49,32.33L197.22,216l-.58-51.43Z" transform="translate(-14.15 -27.1)" fill="#473f47"></path><path d="M149.33,244.93s49.6-19.43,47.89-28.89l-15.09-1.17L145.3,241.21Z" transform="translate(-14.15 -27.1)" fill="#473f47"></path><path d="M161.71,265.9a.66.66,0,0,0,0,.48.69.69,0,0,0,.41.24c4.41,1.38,8.88,2.78,13.5,2.93.63,0,1.41-.09,1.59-.68a1.44,1.44,0,0,0-.24-1.07,14.16,14.16,0,0,0-5.1-5.24c-1.3-.78-2.83-1.43-3.51-2.79a18.19,18.19,0,0,1-3,.47c-.68,0-1.89-.24-2.4.29a5.92,5.92,0,0,0-.7,2.4C162,263.91,161.85,264.91,161.71,265.9Z" transform="translate(-14.15 -27.1)" fill="#473f47"></path><path d="M150.43,245.22a1.76,1.76,0,0,1-.16-1.15,10.19,10.19,0,0,0-1.24,5.45,35.5,35.5,0,0,1-.13,5.65,2,2,0,0,1-1,1.66c-.79.33-1.63-.32-2.19-1a15.64,15.64,0,0,1-3.59-12.24,1.32,1.32,0,0,1,.18-.59,1.65,1.65,0,0,1,1-.52c1.9-.48,2.72-1.75,4.16-2.85C148.8,241,149.57,243.53,150.43,245.22Z" transform="translate(-14.15 -27.1)" fill="#473f47"></path><path d="M221.06,136.05l-5.23,1-5-7.39c-2.42-2.27-2.38-2.74-3.75.28-3.76,8.26-9.93,23.37-10.41,34.68l-3-.34a5.13,5.13,0,0,1-.88-2.75c-.23-3.07.79-6.58-1.19-8.93-.46-.54-1.1-1.1-1-1.81a2.12,2.12,0,0,1,.69-1.12,38.44,38.44,0,0,0,7.2-10.88c1-2.27,1.78-4.64,2.94-6.84a45,45,0,0,1,4-6c1-1.35,2.2-2.8,3.85-3.16,1.89-.42,3.83.78,5,2.33a27.11,27.11,0,0,1,2.54,5.22,10.14,10.14,0,0,0,1.85,2.94c.55.57,1.73.79,2.15,1.31A1.46,1.46,0,0,1,221.06,136.05Z" transform="translate(-14.15 -27.1)" fill="url(#linear-gradient)"></path></svg>