<svg xmlns="http://www.w3.org/2000/svg" viewBox="0 0 400 300" width="406" height="306" class="illustration styles_illustrationTablet__1DWOa"><g id="_548_eating_ice_cream_flatline" data-name="#548_eating_ice_cream_flatline"><path d="M106.94,139.22a1.26,1.26,0,0,1,.2-1.17c.45-.43,1.18-.08,1.66.3a29.34,29.34,0,0,1,4.36,4.55,55,55,0,0,1-5.19-8.06c-.43-.83-.68-2.15.21-2.46a1.48,1.48,0,0,1,1,.1,8.94,8.94,0,0,1,2.75,1.56,11.85,11.85,0,0,1-3.36-3.92,2.33,2.33,0,0,1-.34-1c0-.87.89-1.48,1.73-1.69,2.2-.53,4.44.64,6.31,1.93a11.82,11.82,0,0,1,4.36,4.55,8.85,8.85,0,0,1,0,6.58c-.91,2.52-4.17,8.76-7.56,7.8C110.32,147.45,107.45,141.82,106.94,139.22Z" fill="#fff"></path><path d="M113.84,148.85a3.26,3.26,0,0,1-.87-.12c-3-.87-6-6.67-6.52-9.42h0a1.68,1.68,0,0,1,.34-1.62c.55-.53,1.44-.43,2.32.27l.1.07c-.59-1-1.15-1.95-1.68-3a3.18,3.18,0,0,1-.33-2.38,1.35,1.35,0,0,1,.81-.79,1.89,1.89,0,0,1,1.13,0,12.26,12.26,0,0,1-1-1.57,2.71,2.71,0,0,1-.4-1.28,2.48,2.48,0,0,1,2.11-2.17c2.52-.61,5,.84,6.72,2a12.33,12.33,0,0,1,4.53,4.77,9.23,9.23,0,0,1,0,6.94C120.32,142.89,117.36,148.85,113.84,148.85Zm-6.41-9.73c.5,2.53,3.3,7.93,5.82,8.64,2.89.83,6-4.79,7-7.48a8.43,8.43,0,0,0,0-6.2,11.38,11.38,0,0,0-4.19-4.35c-1.64-1.13-3.81-2.36-5.91-1.85-.67.16-1.35.62-1.35,1.2a1.82,1.82,0,0,0,.28.81,11.53,11.53,0,0,0,2.84,3.45,4.08,4.08,0,0,1,.39.31.5.5,0,0,1-.61.79c-.14-.1-.26-.2-.39-.31A8.51,8.51,0,0,0,109,133a1.14,1.14,0,0,0-.68-.1.32.32,0,0,0-.21.2,2.23,2.23,0,0,0,.29,1.56,54.5,54.5,0,0,0,5.14,8,.51.51,0,0,1-.09.7.49.49,0,0,1-.69-.07,30.25,30.25,0,0,0-4.28-4.48c-.37-.28-.84-.5-1-.33s-.12.36,0,.71Z" fill="#231f20"></path><path d="M291.36,161.07s-1.43,41.73-14.95,35.54-41-51.25-41-51.25l15.85-19.57s22.17,35.9,23.73,33.93,6.19-12.54,6.19-12.54Z" fill="#fff"></path><path d="M279.05,197.73a6.76,6.76,0,0,1-2.84-.67c-13.5-6.19-40.13-49.59-41.26-51.44a.5.5,0,0,1,0-.57l15.85-19.57a.49.49,0,0,1,.42-.19.49.49,0,0,1,.39.24c7.75,12.54,20.66,32.47,23,33.72,1.62-2.26,6-12.16,6-12.27a.52.52,0,0,1,.41-.29.5.5,0,0,1,.46.2l10.2,13.88a.53.53,0,0,1,.1.32c-.05,1.24-1.14,30.4-9.85,35.78A5.61,5.61,0,0,1,279.05,197.73ZM236,145.4c2.43,3.94,28,44.95,40.63,50.75a4.87,4.87,0,0,0,4.87-.13c7.92-4.9,9.26-32.35,9.36-34.79l-9.59-13c-1.11,2.51-4.55,10.15-5.9,11.85a.73.73,0,0,1-.61.27c-2.63-.16-18.25-25-23.58-33.64Z" fill="#231f20"></path><path d="M266.71,174.58a.51.51,0,0,1-.17,0,.48.48,0,0,1-.3-.63l4.93-14.08a.5.5,0,0,1,.63-.31.51.51,0,0,1,.31.64l-4.93,14.08A.51.51,0,0,1,266.71,174.58Z" fill="#231f20"></path><path d="M184.49,230.36l71-14s-3.17-18.22-6.74-37.43c-.27-1.48,1.69-5.1,2-6.71a42.94,42.94,0,0,0,1-8.22,57.39,57.39,0,0,0-1.91-14.19c-2.43-10-7.57-19.1-13.63-27.3a28.84,28.84,0,0,0-6-6.46c-1.79-1.29-3.86-1.37-5.62-2.51-4.61-3-6.36-7.52-12.53-8.19-6.46-.7-9.56,3.17-14.7,5.59,0,0-35.6,16.79-41.71,44C151.71,172.87,184.49,230.36,184.49,230.36Z" fill="#68e1fd"></path><polygon points="255.55 216.34 264.37 259.71 174.43 259.71 184.49 230.37 255.55 216.34" fill="#231f20"></polygon><path d="M264.37,260.21H174.43A.48.48,0,0,1,174,260a.52.52,0,0,1-.07-.45L184,230.21a.49.49,0,0,1,.38-.33l71-14a.51.51,0,0,1,.59.4l8.82,43.36a.5.5,0,0,1-.11.42A.46.46,0,0,1,264.37,260.21Zm-89.24-1h88.63l-8.6-42.28L184.87,230.8Z" fill="#231f20"></path><path d="M229.12,125c-3.78-.84-7.4-1.73-11.41-.94-6,1.19-11.36,4.24-17.48,5.23-6.54,1.06-13.56.63-20.16.49-1.94,0,0,2.54-1.62,1.44-5.6-3.88-5.53-11.84-5.66-17.83-.29-13.78.68-27.77,4.14-41.16,1.8-7,8.87-32.61,20.4-21.89-2.59-2.41,9.6-8.5,11.3-9,15.84-4.82,30.67,8.85,34.6,23.36,2.85,10.53,3.3,21.05,8.62,30.87,2.34,4.34,5.34,8.61,5.64,13.53.37,5.92-3.51,11.58-8.73,14.41s-11.5,3.13-17.33,2C230.65,125.29,229.88,125.12,229.12,125Z" fill="#fff"></path><path d="M179,131.94a1.6,1.6,0,0,1-.84-.36c-5.59-3.87-5.74-11.42-5.86-17.5l0-.73c-.33-15.68,1-29.18,4.15-41.29,2.62-10.16,7.13-22.68,13.69-24.6,2.11-.62,4.26-.1,6.42,1.52.95-3.12,10.5-7.75,11.94-8.19A23.66,23.66,0,0,1,227.19,43,35.92,35.92,0,0,1,243.71,64.5c.93,3.43,1.61,6.9,2.27,10.25,1.42,7.17,2.75,13.94,6.31,20.51.42.8.87,1.58,1.33,2.38,2,3.55,4.11,7.22,4.37,11.35.36,5.8-3.26,11.78-9,14.89-6.15,3.33-13,3-17.66,2.05-.79-.15-1.56-.32-2.33-.49l-.56-.12c-3.56-.8-6.93-1.55-10.64-.82a56.6,56.6,0,0,0-8.13,2.49,51.44,51.44,0,0,1-9.37,2.74c-5.56.9-11.43.74-17.1.58l-3.16-.08c-.22,0-.34,0-.37.08s-.06.4,0,.59.06.74-.31,1A.63.63,0,0,1,179,131.94Zm12.84-83.73a5,5,0,0,0-1.43.21c-4.78,1.4-9.4,9.88-13,23.89-3.1,12-4.44,25.44-4.12,41l0,.73c.11,5.81.25,13,5.31,16.62a1.43,1.43,0,0,1,.33-1.06,1.52,1.52,0,0,1,1.13-.39l3.15.08c5.63.16,11.46.32,16.92-.56a51.48,51.48,0,0,0,9.19-2.7,58.66,58.66,0,0,1,8.27-2.53c3.92-.78,7.39,0,11.06.82l.56.13h0c.76.17,1.52.33,2.3.48,4.5.87,11.11,1.24,17-2,5.4-2.93,8.81-8.53,8.47-13.94-.24-3.91-2.28-7.48-4.24-10.93-.46-.8-.91-1.59-1.34-2.39-3.63-6.71-5-13.87-6.41-20.8-.65-3.33-1.33-6.78-2.25-10.18A34.93,34.93,0,0,0,226.7,43.9a22.69,22.69,0,0,0-17.92-2.15c-1.54.47-10.72,5.14-11.29,7.58a.58.58,0,0,0,.18.6h0a.48.48,0,0,1,0,.7.5.5,0,0,1-.71,0h0A7.74,7.74,0,0,0,191.85,48.21Z" fill="#231f20"></path><path d="M237.29,70.44S243,86.69,240.15,99a18.07,18.07,0,0,1-14,14l-.1,21.81s.05,11.16-13.62,9.37a23.48,23.48,0,0,1-18.31-13.6l-1.36-40.13s15.53-8.85,14.26-23.26C207.07,67.21,225.45,76.21,237.29,70.44Z" fill="#fff"></path><path d="M215.31,144.9a22.66,22.66,0,0,1-2.89-.2c-13.8-1.8-18.67-13.8-18.71-13.92a.85.85,0,0,1,0-.17l-1.36-40.13a.5.5,0,0,1,.25-.45c.15-.09,15.24-8.86,14-22.78a.5.5,0,0,1,.22-.45.48.48,0,0,1,.5,0c.18.09,18.3,8.82,29.78,3.23a.49.49,0,0,1,.41,0,.47.47,0,0,1,.28.29c.06.17,5.76,16.53,2.88,28.84a18.75,18.75,0,0,1-13.94,14.31l-.1,21.41a10.68,10.68,0,0,1-3.37,7.48A11.59,11.59,0,0,1,215.31,144.9Zm-20.64-14.41a23.15,23.15,0,0,0,17.88,13.22c4.37.57,7.74-.15,10-2.15a9.81,9.81,0,0,0,3-6.73l.1-21.82a.5.5,0,0,1,.42-.49,17.72,17.72,0,0,0,13.54-13.64c2.53-10.8-1.73-24.88-2.66-27.75-10.66,4.76-25.76-1.48-29.38-3.11.58,13-12.29,21.48-14.3,22.72Z" fill="#231f20"></path><path d="M200.38,87.68S193.7,72.5,186.07,82s3.39,20,10.13,19.16" fill="#fff"></path><path d="M195.37,101.74c-3.87,0-8.48-3-10.84-7.23a10.89,10.89,0,0,1,1.15-12.8c2-2.47,4.1-3.57,6.3-3.28,5.12.67,8.71,8.7,8.86,9a.49.49,0,0,1-.26.66.51.51,0,0,1-.66-.25c0-.08-3.51-7.86-8.08-8.46-1.82-.24-3.64.74-5.38,2.91A10,10,0,0,0,185.4,94c2.32,4.14,7.14,7.13,10.73,6.67a.49.49,0,0,1,.56.43.5.5,0,0,1-.43.56A6.54,6.54,0,0,1,195.37,101.74Z" fill="#231f20"></path><path d="M229.89,99.25a18.22,18.22,0,0,1-4.19-.56.5.5,0,0,1-.36-.61.52.52,0,0,1,.62-.36s4.39,1.17,6.61,0c.06,0,.12-.07.15-.22.4-1.72-3.61-7.92-6.23-11.42a.51.51,0,0,1,.1-.7.5.5,0,0,1,.7.1c.73,1,7,9.51,6.4,12.25a1.26,1.26,0,0,1-.66.88A7,7,0,0,1,229.89,99.25Z" fill="#231f20"></path><path d="M226.2,113s-11.66,1.41-18.35-.33c0,0,7.23,17.22,18.31,17.18Z" fill="#231f20"></path><path d="M226.12,130.37c-11.26,0-18.43-16.77-18.73-17.49a.52.52,0,0,1,.08-.52.49.49,0,0,1,.51-.15c6.51,1.69,18,.32,18.16.31a.47.47,0,0,1,.39.12.5.5,0,0,1,.17.38l0,16.85A.53.53,0,0,1,226.12,130.37Zm-17.39-17c1.64,3.45,8,15.54,16.93,15.94l0-15.78C223.39,113.82,214.69,114.63,208.73,113.41Z" fill="#231f20"></path><path d="M172.83,105.45c-.53,12.82-1,36.42,19.17,30.12a17.19,17.19,0,0,0,9.9-8.18c3.8-7.07-7-16.91-12.09-21.35" fill="#fff"></path><path d="M185.86,137.11a11.22,11.22,0,0,1-7-2.22c-7.48-5.74-6.85-21.17-6.5-29.46a.52.52,0,0,1,.52-.48.51.51,0,0,1,.48.52c-.32,7.53-1,23.2,6.11,28.63,3,2.29,7.16,2.63,12.41,1a16.63,16.63,0,0,0,9.61-7.94c3.75-7-8.09-17.33-12-20.73a.51.51,0,0,1,0-.71.51.51,0,0,1,.71,0c7,6.12,15.9,15.06,12.2,22a17.68,17.68,0,0,1-10.2,8.42A21.23,21.23,0,0,1,185.86,137.11Z" fill="#231f20"></path><path d="M213.34,85.28a.52.52,0,0,1-.38-.17.51.51,0,0,1,0-.71c2-1.74,3.87-2.48,5.5-2.19a4,4,0,0,1,2.66,1.85.5.5,0,1,1-.88.48,3,3,0,0,0-2-1.35c-1.32-.22-2.88.44-4.65,2A.52.52,0,0,1,213.34,85.28Z" fill="#231f20"></path><path d="M231.24,82.27a.47.47,0,0,1-.3-.1.51.51,0,0,1-.11-.7c.09-.11,2.06-2.74,4.68-2.76h0A4.9,4.9,0,0,1,239.41,81a.51.51,0,0,1-.1.7.52.52,0,0,1-.7-.09,4,4,0,0,0-3.09-1.86c-2.11,0-3.86,2.33-3.88,2.36A.51.51,0,0,1,231.24,82.27Z" fill="#231f20"></path><circle cx="236.03" cy="83.99" r="8.38" fill="#231f20"></circle><path d="M236,92.87a8.92,8.92,0,1,1,.59,0Zm0-16.76-.53,0a7.75,7.75,0,1,0,.53,0Z" fill="#231f20"></path><circle cx="218.39" cy="85.14" r="8.38" fill="#231f20"></circle><path d="M218.38,94a8.57,8.57,0,1,1,.59,0Zm0-16.75-.52,0a7.75,7.75,0,1,0,.52,0Z" fill="#231f20"></path><path d="M210,86.18h0L199.21,86a.5.5,0,0,1-.49-.51.55.55,0,0,1,.51-.49l10.81.22a.5.5,0,0,1,.49.51A.49.49,0,0,1,210,86.18Z" fill="#231f20"></path><path d="M226.46,101.65s-.1,4.29.88,5.74a3.38,3.38,0,0,0,2.58,1.45,3.34,3.34,0,0,0,2.71-1.18,5.81,5.81,0,0,0,1-3.77c0-1.94,2.64-2.16.82-1.82C234,102.15,226.46,101.65,226.46,101.65Z" fill="#231f20"></path><path d="M230.08,109.35h-.19a3.89,3.89,0,0,1-3-1.67c-1-1.54-1-5.57-1-6a.5.5,0,0,1,.53-.49c2.83.19,7.48.46,7.92.43l.52-.11a.6.6,0,0,1,.67.31.55.55,0,0,1-.31.63,1.7,1.7,0,0,0-1.13,1.49A6.31,6.31,0,0,1,233,108,3.93,3.93,0,0,1,230.08,109.35ZM227,102.19c0,1.4.16,4,.8,4.92a2.82,2.82,0,0,0,4.49.23,5.42,5.42,0,0,0,.91-3.45,2.38,2.38,0,0,1,.41-1.33C232,102.5,228.84,102.31,227,102.19Z" fill="#231f20"></path><circle cx="256.44" cy="124.8" r="18.52" fill="#68e1fd"></circle><circle cx="241.89" cy="109.5" r="12.03" fill="#68e1fd"></circle><polygon points="292.01 181.32 275.36 128.09 251.23 143.28 292.01 181.32" fill="#fff"></polygon><path d="M292,181.82a.49.49,0,0,1-.34-.14l-40.78-38a.5.5,0,0,1,.07-.79l24.13-15.19a.49.49,0,0,1,.44,0,.48.48,0,0,1,.3.32l16.66,53.22a.51.51,0,0,1-.21.57A.56.56,0,0,1,292,181.82Zm-40-38.46L291,179.66l-15.9-50.8Z" fill="#231f20"></path><path d="M289.51,145.65a9.32,9.32,0,0,0-.48-2.73,7.62,7.62,0,0,0-2-2.72,22,22,0,0,0-11.24-5.59c-1.48-.25-3.37-.13-4,1.25-.48,1.1.21,2.34.95,3.28a22.74,22.74,0,0,0,6,5.1c-2.34.39-4.65,1.22-3.77,4.06.5,1.57,3.84,4.95,5.6,5a20.32,20.32,0,0,0-3.4.25c-.8.13-1.74.45-1.91,1.24a1.8,1.8,0,0,0,.14,1c1.1,2.82,4.22,4.18,7,5.26a5.58,5.58,0,0,0-2.51.14,1.89,1.89,0,0,0-1.29,1.94c.19,1,1.34,1.45,2.33,1.71a16.1,16.1,0,0,0,6.36.84,5.75,5.75,0,0,0,5-4.6c.66-2.78-.81-4.22-1.76-6.69C289.56,151.69,289.72,148.53,289.51,145.65Z" fill="#fff"></path><path d="M286.16,166.25a20.48,20.48,0,0,1-5.27-.93c-.66-.18-2.42-.66-2.69-2.11a2.37,2.37,0,0,1,1.61-2.49l.33-.11c-2.22-1-4.28-2.4-5.15-4.65a2.23,2.23,0,0,1-.17-1.31c.13-.59.64-1.35,2.32-1.62.42-.07.85-.12,1.28-.16a11.31,11.31,0,0,1-3.87-4.42,3.26,3.26,0,0,1,.17-2.75,4.4,4.4,0,0,1,2.77-1.7,21.67,21.67,0,0,1-5.13-4.55c-1.14-1.44-1.49-2.72-1-3.79.58-1.35,2.26-1.92,4.5-1.54a22.5,22.5,0,0,1,11.5,5.72,8.13,8.13,0,0,1,2.16,2.9,9.6,9.6,0,0,1,.51,2.88h0c.05.69.08,1.4.11,2.11a20.55,20.55,0,0,0,.94,6.47,17.3,17.3,0,0,0,.81,1.78c.77,1.54,1.49,3,1,5.2a6.23,6.23,0,0,1-5.38,5A9.32,9.32,0,0,1,286.16,166.25Zm-4.82-4.78a3.31,3.31,0,0,0-1.18.18,1.42,1.42,0,0,0-1,1.38c.11.57.73,1,2,1.32a15.83,15.83,0,0,0,6.16.82,5.22,5.22,0,0,0,4.55-4.22c.44-1.85-.14-3-.89-4.53-.28-.58-.58-1.17-.85-1.86a21.44,21.44,0,0,1-1-6.79c0-.7-.06-1.4-.11-2.08a8.9,8.9,0,0,0-.44-2.59,7.2,7.2,0,0,0-1.91-2.53,21.43,21.43,0,0,0-11-5.46c-1.35-.24-3-.11-3.41.94-.31.71,0,1.65.88,2.78a22.51,22.51,0,0,0,5.92,5,.5.5,0,0,1,.22.52.49.49,0,0,1-.41.39c-1.14.19-2.72.56-3.29,1.49a2.25,2.25,0,0,0-.08,1.93c.47,1.5,3.71,4.61,5.12,4.62a.5.5,0,0,1,.5.5.51.51,0,0,1-.5.5h0a18.52,18.52,0,0,0-3.31.25c-.51.08-1.38.3-1.51.84a1.31,1.31,0,0,0,.13.74c1,2.6,3.88,3.88,6.75,5a.5.5,0,0,1,.3.59.49.49,0,0,1-.53.38A10,10,0,0,0,281.34,161.47Z" fill="#231f20"></path><path d="M250.26,141.32h-.09c-.14,0-13.83-2.77-11.7-20.62a.5.5,0,0,1,1,.12c-2,16.9,10.36,19.42,10.89,19.52a.5.5,0,0,1,.4.58A.51.51,0,0,1,250.26,141.32Z" fill="#231f20"></path><path d="M158.36,147.18l-15.2,44.58s-10.47-24.83-11.47-29.13c-.73-3.13-2.19-7-2-10.12s1.2-6.23.92-9.55c-.31-3.75-1.89-7.56-5-9.71a5,5,0,0,0-3-1.05,5.38,5.38,0,0,0-2.53.93c-4.75,2.91-7.55,8.35-8.33,13.86-1.14,8,1.61,16.26,3.06,24.13,1.32,7.1,2.89,14.16,4.86,21.1,2.14,7.54,4.66,15.16,8.54,22,2.62,4.62,6.6,10.36,12.41,10.9A9.32,9.32,0,0,0,143,225c20.43-3.38,39.16-52.35,39.16-52.35S174.43,148.46,158.36,147.18Z" fill="#fff"></path><path d="M141.48,225.67a8.83,8.83,0,0,1-.89,0c-6.12-.58-10.24-6.64-12.8-11.16-4.08-7.2-6.63-15.22-8.58-22.11-1.85-6.55-3.45-13.46-4.87-21.15-.35-1.87-.78-3.81-1.19-5.68-1.36-6.11-2.76-12.43-1.88-18.61s4.08-11.46,8.57-14.22a6,6,0,0,1,2.77-1,5.25,5.25,0,0,1,3.32,1.14c2.93,2,4.81,5.72,5.18,10.07a25,25,0,0,1-.45,6c-.19,1.19-.39,2.41-.47,3.64a24.11,24.11,0,0,0,1.29,7.32c.25.92.5,1.81.7,2.65.85,3.67,8.82,22.81,10.93,27.84L157.89,147a.52.52,0,0,1,.51-.33c16.22,1.28,23.92,24.85,24.24,25.85a.53.53,0,0,1,0,.33,206.33,206.33,0,0,1-11.95,25c-9.69,16.94-19,26.26-27.6,27.69A10.79,10.79,0,0,1,141.48,225.67Zm-18.69-93h-.14a5.18,5.18,0,0,0-2.29.85c-4.24,2.61-7.27,7.66-8.1,13.52s.53,12.22,1.86,18.24c.42,1.88.85,3.83,1.2,5.72,1.42,7.66,3,14.54,4.85,21.06,1.94,6.84,4.46,14.78,8.49,21.89,2.45,4.32,6.37,10.12,12,10.65a8.81,8.81,0,0,0,2.23-.08c19.33-3.2,37.48-48.75,38.71-51.87-.72-2.11-8.32-23.44-22.92-25l-15.08,44.2a.48.48,0,0,1-.45.34.53.53,0,0,1-.48-.31c-.43-1-10.5-24.92-11.5-29.21-.19-.83-.43-1.71-.69-2.62a24.4,24.4,0,0,1-1.31-7.64,36.52,36.52,0,0,1,.47-3.73,23.18,23.18,0,0,0,.44-5.75c-.34-4.06-2.07-7.47-4.75-9.34A4.59,4.59,0,0,0,122.79,132.69Z" fill="#231f20"></path><circle cx="118.94" cy="102.02" r="18.52" fill="#68e1fd"></circle><circle cx="115.2" cy="83.52" r="12.03" fill="#68e1fd"></circle><polygon points="119.37 168.8 133.28 114.8 104.77 114.98 119.37 168.8" fill="#fff"></polygon><path d="M119.37,169.3a.5.5,0,0,1-.48-.37l-14.61-53.82a.48.48,0,0,1,.09-.43.5.5,0,0,1,.39-.2l28.51-.18h0a.49.49,0,0,1,.39.19.48.48,0,0,1,.09.43l-13.9,54a.5.5,0,0,1-.49.37Zm-14-53.82,13.94,51.37,13.27-51.55Z" fill="#231f20"></path><path d="M129.73,154.18s6.76-10.89,3.76-15-11.24-10.72-10.86-7,5.36,9.59,5.36,9.59-7.08,7.13-3.7,11.82" fill="#fff"></path><path d="M129.73,154.68a.48.48,0,0,1-.26-.07.51.51,0,0,1-.17-.69c1.83-2.95,6.08-11.3,3.78-14.47-2.79-3.83-8.68-8.31-9.85-7.85-.14.06-.11.43-.1.55.35,3.55,5.19,9.26,5.24,9.31a.5.5,0,0,1,0,.68c-.07.07-6.74,6.89-3.65,11.18a.51.51,0,0,1-.11.7.5.5,0,0,1-.7-.12c-3.19-4.43,2.05-10.63,3.44-12.13-1.09-1.34-4.85-6.15-5.19-9.52-.11-1.09.42-1.46.75-1.58,2.16-.83,8.63,4.92,11,8.2,3.17,4.35-3.45,15.12-3.74,15.57A.47.47,0,0,1,129.73,154.68Z" fill="#231f20"></path><path d="M213.9,187.07c-1.16,0-2.37,0-3.62-.1a.5.5,0,0,1-.47-.53.48.48,0,0,1,.52-.47c20.11,1.09,28-7.53,28-7.62a.48.48,0,0,1,.7,0,.49.49,0,0,1,.05.7C238.81,179.36,231.86,187.07,213.9,187.07Z" fill="#231f20"></path><path d="M114.09,127a.49.49,0,0,1-.41-.21.51.51,0,0,1,.12-.7L124,119a.5.5,0,0,1,.58.82L114.37,127A.46.46,0,0,1,114.09,127Z" fill="#e6e7e8"></path><path d="M113.41,134.65a.48.48,0,0,1-.41-.23.49.49,0,0,1,.14-.69l13.14-8.64a.5.5,0,0,1,.55.84l-13.14,8.64A.57.57,0,0,1,113.41,134.65Z" fill="#e6e7e8"></path><path d="M114.09,142.3a.52.52,0,0,1-.42-.22.51.51,0,0,1,.14-.7c.36-.24,7-4.12,7.7-4.57a.5.5,0,1,1,.51.87c-2.94,1.73-7.4,4.37-7.65,4.54A.6.6,0,0,1,114.09,142.3Z" fill="#e6e7e8"></path><path d="M126.55,130a.47.47,0,0,1-.39-.2l-8.63-11.36a.5.5,0,0,1,.8-.6L127,129.15a.49.49,0,0,1-.09.7A.51.51,0,0,1,126.55,130Z" fill="#e6e7e8"></path><path d="M122.24,141.31a.49.49,0,0,1-.41-.21L109,122.61a.51.51,0,0,1,.12-.7.5.5,0,0,1,.7.13l12.86,18.49a.5.5,0,0,1-.12.69A.52.52,0,0,1,122.24,141.31Z" fill="#e6e7e8"></path><path d="M121.77,151.73a.52.52,0,0,1-.38-.17c-2-2.24-5.34-5.9-5.81-6.27a.5.5,0,0,1,.37-.92c.16,0,.46.13,6.19,6.52a.5.5,0,0,1,0,.71A.46.46,0,0,1,121.77,151.73Z" fill="#e6e7e8"></path><path d="M116.23,152.2a.49.49,0,0,1-.39-.19.51.51,0,0,1,.08-.71l6-4.69a.5.5,0,0,1,.62.79l-6,4.69A.51.51,0,0,1,116.23,152.2Z" fill="#e6e7e8"></path><path d="M263.37,150.5a.32.32,0,0,1-.13,0,.5.5,0,0,1-.36-.6l3.34-12.9a.5.5,0,0,1,1,.25l-3.34,12.89A.5.5,0,0,1,263.37,150.5Z" fill="#e6e7e8"></path><path d="M269.17,155.21l-.1,0a.49.49,0,0,1-.38-.59l2.46-11.38a.5.5,0,0,1,1,.21l-2.47,11.38A.5.5,0,0,1,269.17,155.21Z" fill="#e6e7e8"></path><path d="M275,161.4a.51.51,0,0,1-.5-.5v-2.82a.5.5,0,0,1,.5-.5.5.5,0,0,1,.5.5v2.82A.5.5,0,0,1,275,161.4Z" fill="#e6e7e8"></path><path d="M273.9,154.22a.46.46,0,0,1-.29-.1c-5.48-3.9-14.7-10.47-14.91-10.68a.5.5,0,0,1,0-.71.51.51,0,0,1,.69,0c.41.34,9.07,6.52,14.8,10.6a.5.5,0,0,1,.12.7A.52.52,0,0,1,273.9,154.22Z" fill="#e6e7e8"></path><path d="M273.2,147.53a.52.52,0,0,1-.29-.09l-10.55-7.32a.5.5,0,0,1-.13-.7.51.51,0,0,1,.7-.12l10.55,7.32a.49.49,0,0,1,.13.69A.5.5,0,0,1,273.2,147.53Z" fill="#e6e7e8"></path></g></svg>