<svg id="_550_surfing_flatline" data-name="#550_surfing_flatline" xmlns="http://www.w3.org/2000/svg" viewBox="0 0 400 300" width="406" height="306" class="illustration styles_illustrationTablet__1DWOa"><path d="M145.5,250.45a14.08,14.08,0,0,1-1.45-.07c-1.44-.14-2.82-.39-4.15-.63a32.28,32.28,0,0,0-6.23-.73h0a.5.5,0,0,1-.5-.5.5.5,0,0,1,.5-.5h0a35.54,35.54,0,0,1,6.4.74c1.31.24,2.67.49,4.06.62a25.37,25.37,0,0,0,8.36-1c3.22-.76,6.55-1.54,10-.88.79.15,1.56.37,2.31.58a15,15,0,0,0,3.77.73,24.59,24.59,0,0,0,7.19-1.28c2.82-.78,5.74-1.59,8.82-1.27,2.33.23,4.53.66,6.66,1.07,4,.78,7.8,1.52,12.21,1,1-.13,2.11-.3,3.16-.47s2.4-.38,3.62-.52a77.76,77.76,0,0,1,8.47-.33l60.48-.15h0a.5.5,0,0,1,0,1l-60.48.15a78,78,0,0,0-8.36.32c-1.19.14-2.4.33-3.57.52s-2.13.34-3.2.47c-4.56.56-8.43-.19-12.52-1-2.11-.41-4.28-.83-6.57-1.06-2.9-.28-5.72.49-8.45,1.24a27,27,0,0,1-7.48,1.32,15.9,15.9,0,0,1-4-.77c-.73-.21-1.48-.42-2.22-.56-3.25-.62-6.47.14-9.59.87A32,32,0,0,1,145.5,250.45Z" fill="#231f20"></path><path d="M183,187.4l12,75s26.85,3.84,27.05,0c.18-3.53-13.08-6.93-13.08-6.93l-10-71.7Z" fill="#fff"></path><path d="M214.8,264.62A168.12,168.12,0,0,1,195,262.9a.49.49,0,0,1-.42-.41l-12.05-75a.49.49,0,0,1,.38-.56l16.05-3.62a.49.49,0,0,1,.39.08.49.49,0,0,1,.22.34l9.92,71.37a64.94,64.94,0,0,1,6.34,2.08c4.66,1.82,6.88,3.55,6.79,5.27a1.43,1.43,0,0,1-.56,1C221,264.31,218.21,264.62,214.8,264.62ZM195.48,262c6.71,1,23.43,2.77,25.92.73a.46.46,0,0,0,.19-.31c.12-2.27-7.73-5.14-12.7-6.42a.5.5,0,0,1-.38-.41l-9.89-71.16-15.06,3.39Z" fill="#231f20"></path><path d="M152.53,183.71,152,253.4s-18.29,7.61-16.8,9.94c.91,1.41,29.39-2.27,30.53-3.3s5.35-73.31,5.35-73.31Z" fill="#fff"></path><path d="M137.39,264.15a13.85,13.85,0,0,1-1.49-.07c-.59-.08-.91-.22-1.08-.47a1.08,1.08,0,0,1-.1-.94c.86-2.77,14.17-8.49,16.82-9.61L152,183.7a.52.52,0,0,1,.58-.49l18.59,3a.5.5,0,0,1,.42.52c-1.27,21.79-4.36,72.59-5.52,73.65S144.16,264.15,137.39,264.15Zm-1.8-1.16c1.88,1.07,27.85-2.45,29.79-3.3.88-2.77,3.58-44.52,5.22-72.54L153,184.29l-.49,69.11a.5.5,0,0,1-.31.46c-6.09,2.54-16,7.26-16.56,9.11a.07.07,0,0,1-.08,0Zm0,0Zm29.76-3.22ZM152,253.4h0Z" fill="#231f20"></path><path d="M198.93,89.15s11.19,30.37,15.21,33,30.74-19.38,30.74-19.38l9.75,14.64s-34.34,26.21-43.74,23S192,106.78,192,106.78Z" fill="#fff"></path><path d="M212.73,141.17a6.25,6.25,0,0,1-2-.3c-9.53-3.3-18.78-32.69-19.17-33.94a.53.53,0,0,1,0-.33L198.47,89a.49.49,0,0,1,.46-.31h0a.5.5,0,0,1,.46.32c3.1,8.41,11.83,30.69,15,32.8,2.69,1.79,19.92-10.92,30.14-19.35a.5.5,0,0,1,.39-.11.49.49,0,0,1,.34.22L255,117.17a.49.49,0,0,1-.11.67C253.61,118.85,224.22,141.17,212.73,141.17ZM192.56,106.8c.77,2.42,9.79,30.11,18.49,33.13,8.52,3,39.15-19.78,42.9-22.6l-9.18-13.79c-1.6,1.3-7.38,6-13.46,10.36-13.13,9.46-16.25,9.5-17.45,8.7-3.68-2.44-12.77-26.25-14.94-32Z" fill="#231f20"></path><path d="M274.16,130.21c0,33.16-3.13,80.24-8.22,109.24a128,128,0,0,1-4.25,18.13H228.06a129.2,129.2,0,0,1-4.26-18.13c-5.08-29-8.21-76.08-8.21-109.24,0-67.84,29.29-96,29.29-96S274.16,62.37,274.16,130.21Z" fill="#fff"></path><path d="M244.88,34.18s29.28,28.19,29.28,96c0,33.16-3.13,80.24-8.22,109.24a128,128,0,0,1-4.25,18.13H228.06a129.2,129.2,0,0,1-4.26-18.13c-5.08-29-8.21-76.08-8.21-109.24,0-67.84,29.29-96,29.29-96m0-1a1,1,0,0,0-.69.28c-.31.29-7.54,7.35-14.86,22.87C222.6,70.59,214.59,95,214.59,130.21c0,31,2.82,78.59,8.23,109.41a129.73,129.73,0,0,0,4.29,18.28,1,1,0,0,0,.95.68h33.63a1,1,0,0,0,.95-.68,128.31,128.31,0,0,0,4.29-18.28c5.4-30.79,8.23-78.35,8.23-109.41,0-19.44-2.55-48.05-14.73-73.88-7.32-15.52-14.55-22.58-14.86-22.87a1,1,0,0,0-.69-.28Z" fill="#231f20"></path><path d="M244.88,258.08a.5.5,0,0,1-.5-.5V34.17a.5.5,0,0,1,.5-.5.51.51,0,0,1,.5.5V257.58A.5.5,0,0,1,244.88,258.08Z" fill="#231f20"></path><path d="M181,68.39a15.73,15.73,0,0,1-3.1-.54c-2-.58-3.23-1.87-5-2.84-1.53-.86-3.22-1-4.11-2.78-.69-1.38-.13-3.42,1.36-3.8a6.78,6.78,0,0,1-3.28-4.23c-.31-1.81,1-3.94,2.83-3.9a6.63,6.63,0,0,1-1.95-5,3.9,3.9,0,0,1,3.52-3.58,6.1,6.1,0,0,1,8-3.53c1.89-2.07,4.22-4.33,7-4,2.36.27,4.13,2.34,6.41,3,1.5.44,3.13.27,4.59.79a5.24,5.24,0,0,1,2.75,7.09,3.76,3.76,0,0,1,.09,7.37c1.33.54,1.54,2.47.79,3.7a8.93,8.93,0,0,1-3.32,2.68c-3.11,1.87-3.24,5.5-6.17,7.74-1.84,1.41-3.55,1.26-5.72,1.57A22.23,22.23,0,0,1,181,68.39Z" fill="#fff"></path><path d="M182.31,68.93c-.45,0-.9,0-1.34-.05h0a15.4,15.4,0,0,1-3.19-.55,11.44,11.44,0,0,1-3.42-1.81,18.42,18.42,0,0,0-1.67-1.08c-.41-.22-.84-.4-1.27-.58a5,5,0,0,1-3-2.41,3.6,3.6,0,0,1,0-3,2.87,2.87,0,0,1,.87-1.09,6.65,6.65,0,0,1-2.8-4.06,4.15,4.15,0,0,1,1-3.35,3.13,3.13,0,0,1,1.43-1,6.77,6.77,0,0,1-1.51-4.67,4.46,4.46,0,0,1,3.66-4,6.67,6.67,0,0,1,8.26-3.65c2.09-2.25,4.39-4.22,7.19-3.91a9.27,9.27,0,0,1,3.82,1.65,11.44,11.44,0,0,0,2.69,1.38,11.22,11.22,0,0,0,2.06.33,10.23,10.23,0,0,1,2.55.47,5.48,5.48,0,0,1,3.19,3.25,5.61,5.61,0,0,1,.09,4,4.25,4.25,0,0,1,.43,7.84,2.53,2.53,0,0,1,.51.91,3.6,3.6,0,0,1-.33,2.9,8.26,8.26,0,0,1-3.12,2.63l-.37.22a9,9,0,0,0-3.1,3.77,11.73,11.73,0,0,1-3,3.94,8.28,8.28,0,0,1-4.66,1.51c-.41,0-.85.09-1.3.16A24.62,24.62,0,0,1,182.31,68.93Zm-1.27-1a21.46,21.46,0,0,0,4.65-.22c.46-.07.91-.12,1.34-.16a7.2,7.2,0,0,0,4.15-1.32,10.69,10.69,0,0,0,2.76-3.63,9.79,9.79,0,0,1,3.45-4.14l.38-.22a7.55,7.55,0,0,0,2.77-2.29,2.55,2.55,0,0,0,.24-2.07,1.41,1.41,0,0,0-.79-.91.5.5,0,0,1,.08-1,3.26,3.26,0,0,0-.07-6.39.5.5,0,0,1-.35-.72,4.76,4.76,0,0,0-2.47-6.39,9.54,9.54,0,0,0-2.31-.41,11.86,11.86,0,0,1-2.26-.38,12,12,0,0,1-2.93-1.48,8.37,8.37,0,0,0-3.4-1.51c-2.44-.28-4.61,1.69-6.58,3.86a.5.5,0,0,1-.58.12,5.29,5.29,0,0,0-4.35.06,5.35,5.35,0,0,0-3,3.16.48.48,0,0,1-.47.35,3.42,3.42,0,0,0-3,3.13A6.09,6.09,0,0,0,170.1,50a.51.51,0,0,1,.09.54.49.49,0,0,1-.47.3,2.09,2.09,0,0,0-1.6.79,3.22,3.22,0,0,0-.73,2.53A6.46,6.46,0,0,0,170.46,58a.5.5,0,0,1-.15.9,1.65,1.65,0,0,0-1.06,1,2.64,2.64,0,0,0,0,2.15,4.21,4.21,0,0,0,2.54,1.93,11.19,11.19,0,0,1,1.38.63,19.55,19.55,0,0,1,1.75,1.13,10.17,10.17,0,0,0,3.12,1.67,14.81,14.81,0,0,0,3,.52Z" fill="#231f20"></path><path d="M198.77,144.27H154s-1.45-25.36-3.8-48.54c-.73-7.25,11.72-17.79,27.63-17.52,8.86.16,18.26,6.41,21.14,9.94C200.11,89.59,199.61,120.41,198.77,144.27Z" fill="#68e1fd"></path><path d="M196.62,52.2c-.84-1.28-3.39-.76-4.88-.8a40.06,40.06,0,0,0-8.12.37c-2.54.48-4.86,1.48-5,4.44a17.69,17.69,0,0,0,.49,3.68,5.67,5.67,0,0,1-.18,2.62,2.25,2.25,0,0,1-.58,1.11c-1,.91-2-.72-2.58-1.35s-1.86-1.33-2.35-.31c-.31.63,0,2.38,0,3.09,0,2.9.61,5.76.65,8.66a83.48,83.48,0,0,1,0,8.52l0,.07c.28,1.08,4.14,15.42,9.76,18,5.84,2.64,6-14.43,6-14.43l-.67-10.7s5.83.35,7.43-4.88a31.27,31.27,0,0,0,.79-11.92C197.27,56.81,197.45,53.47,196.62,52.2Z" fill="#fff"></path><path d="M185,101a3.45,3.45,0,0,1-1.38-.32c-5.77-2.61-9.62-16.69-10-18.28a2.24,2.24,0,0,1,0-.24,59.82,59.82,0,0,0,.07-6.56c0-.64,0-1.28,0-1.91,0-1.36-.17-2.74-.32-4.08a43.48,43.48,0,0,1-.33-4.6,7.31,7.31,0,0,0-.06-.82,5.29,5.29,0,0,1,.1-2.48,1.28,1.28,0,0,1,1-.76,2.88,2.88,0,0,1,2.18.94c.12.13.26.29.4.47.33.39.82,1,1.17,1a.45.45,0,0,0,.31-.14,1.68,1.68,0,0,0,.43-.87,5.1,5.1,0,0,0,.18-2.4c-.05-.29-.11-.58-.17-.87a12.27,12.27,0,0,1-.32-2.92c.16-3.52,3.16-4.49,5.4-4.91a39.84,39.84,0,0,1,8.22-.38c.33,0,.7,0,1.1,0,1.5-.08,3.38-.18,4.19,1.06.7,1.07.75,3.21.8,4.94,0,.54,0,1,.06,1.41a32.18,32.18,0,0,1-.81,12.11c-1.39,4.54-5.8,5.16-7.37,5.23l.63,10.17c0,.54-.17,12.43-3.89,14.8A2.66,2.66,0,0,1,185,101ZM174.55,82.18c.36,1.33,4.18,15.22,9.49,17.62a1.89,1.89,0,0,0,1.89,0c2.7-1.73,3.38-10.64,3.42-13.93l-.66-10.67a.49.49,0,0,1,.14-.38.48.48,0,0,1,.38-.15c.22,0,5.46.26,6.93-4.53a31.22,31.22,0,0,0,.76-11.72c0-.4-.05-.91-.06-1.47,0-1.52-.09-3.59-.64-4.42h0c-.49-.76-2-.68-3.3-.61-.42,0-.82,0-1.17,0a39,39,0,0,0-8,.37c-3.12.58-4.49,1.76-4.6,4a11,11,0,0,0,.32,2.69c.05.3.11.59.16.89a6,6,0,0,1-.19,2.82,2.65,2.65,0,0,1-.73,1.36,1.42,1.42,0,0,1-1.05.4c-.78-.06-1.38-.78-1.87-1.36a3.89,3.89,0,0,0-.35-.41,2,2,0,0,0-1.3-.65c-.08,0-.16,0-.25.21a6,6,0,0,0,0,1.94c0,.37.06.7.06.93a39.37,39.37,0,0,0,.33,4.48c.15,1.36.3,2.77.32,4.18,0,.63,0,1.26,0,1.89A60.24,60.24,0,0,1,174.55,82.18Z" fill="#231f20"></path><path d="M189.53,80.75a7.53,7.53,0,0,1-6.36-3c-2.62-3.38-2-5.8-2-5.8a11.59,11.59,0,0,0,8,3.13Z" fill="#231f20"></path><path d="M189.12,81.26a8,8,0,0,1-6.34-3.17c-2.74-3.52-2.15-6.11-2.12-6.22a.49.49,0,0,1,.35-.36.5.5,0,0,1,.49.13,11.1,11.1,0,0,0,7.66,3,.47.47,0,0,1,.52.47l.35,5.62a.5.5,0,0,1-.44.53A3.13,3.13,0,0,1,189.12,81.26Zm-7.51-8.21a8.51,8.51,0,0,0,1.95,4.43A7,7,0,0,0,189,80.26l-.28-4.62h0A11.8,11.8,0,0,1,181.61,73.05Z" fill="#231f20"></path><path d="M188.45,59.37s1.61,5.44.64,6.29-3-.37-3-.37" fill="#fff"></path><path d="M188.19,66.46a5.2,5.2,0,0,1-2.33-.74.5.5,0,0,1,.52-.86c.56.34,1.86.88,2.38.43s0-3.06-.79-5.77a.5.5,0,1,1,.95-.29c.52,1.73,1.59,5.85.5,6.81A1.81,1.81,0,0,1,188.19,66.46Z" fill="#231f20"></path><ellipse cx="183.51" cy="58.68" rx="1.27" ry="0.9" transform="translate(111.59 237.41) rotate(-85.81)" fill="#231f20"></ellipse><ellipse cx="192.93" cy="59.95" rx="1.27" ry="0.9" transform="translate(119.06 247.99) rotate(-85.81)" fill="#231f20"></ellipse><path d="M177.32,64.88a2.75,2.75,0,0,0-.64-1.56,7.63,7.63,0,0,0-1.86-1.94,3.92,3.92,0,0,0-2.55-.72,3.66,3.66,0,0,0-3,3.77,5.11,5.11,0,0,0,2.87,4.16,4.54,4.54,0,0,0,4.1.2" fill="#fff"></path><path d="M174.48,69.69A5.7,5.7,0,0,1,171.9,69a5.61,5.61,0,0,1-3.14-4.59,4.15,4.15,0,0,1,3.45-4.28,4.37,4.37,0,0,1,2.89.79,8.08,8.08,0,0,1,2,2.07,3.22,3.22,0,0,1,.73,1.86.48.48,0,0,1-.51.49.49.49,0,0,1-.49-.51,2.35,2.35,0,0,0-.55-1.26,7.09,7.09,0,0,0-1.73-1.82,3.46,3.46,0,0,0-2.22-.63,3.17,3.17,0,0,0-2.56,3.25,4.59,4.59,0,0,0,2.6,3.74,4.07,4.07,0,0,0,3.64.2.5.5,0,1,1,.46.89A4.36,4.36,0,0,1,174.48,69.69Z" fill="#231f20"></path><path d="M190.69,70.23c-2.15,0-6.36-.36-9.31-2.87a.5.5,0,1,1,.65-.76c3.71,3.16,9.89,2.58,9.95,2.58a.5.5,0,1,1,.1,1A13.17,13.17,0,0,1,190.69,70.23Z" fill="#231f20"></path><path d="M265.94,239.45a128,128,0,0,1-4.25,18.13H228.06a129.2,129.2,0,0,1-4.26-18.13Z" fill="#68e1fd"></path><polygon points="153.96 144.27 150.03 195.78 176.37 195.78 178 164.99 182.01 195.78 206.74 195.78 197.77 144.27 153.96 144.27" fill="#231f20"></polygon><path d="M206.74,196.28H182a.51.51,0,0,1-.5-.43l-3.3-25.37-1.35,25.33a.49.49,0,0,1-.49.47H150a.51.51,0,0,1-.37-.16.52.52,0,0,1-.13-.38l3.93-51.5a.5.5,0,0,1,.5-.47h43.81a.51.51,0,0,1,.5.42l9,51.51a.52.52,0,0,1-.11.4A.5.5,0,0,1,206.74,196.28Zm-24.29-1h23.7l-8.8-50.51H154.42l-3.85,50.51h25.32L177.5,165a.5.5,0,0,1,.48-.48.47.47,0,0,1,.51.44Z" fill="#231f20"></path><path d="M163.89,99.35s-22.5,20.85-32.8,21.8c-6.82.63-8-20.37-6.71-35.15a12.33,12.33,0,0,1-3.26-6.13c-.38-2.1-.84-22.16,1.53-22.46s2.47,8.33,2.47,8.33a2.78,2.78,0,0,1,2-1.89c1.78-.65,2.53,1.76,2.53,1.76a2.52,2.52,0,0,1,2-1.72c1.78-.4,2.12,2.33,2.12,2.33.75-2.18,2.94-2.39,3.83-1.43s-.14,9.21-.14,9.21c3.07-4.37,5.05-4,5.66-2.87s-2.18,4.51-4,7.53-4.31,6.14-4.31,6.14l0,.17,3.35,14,24.15-17.16s6.07-2.23,6.07,5.77S163.89,99.35,163.89,99.35Z" fill="#fff"></path><path d="M130.79,121.66a3.76,3.76,0,0,1-2.72-1.21c-4.48-4.45-5.32-20.83-4.21-34.26A12.75,12.75,0,0,1,120.63,80c-.34-1.84-.84-19.79,1.18-22.54a1.12,1.12,0,0,1,.78-.5,1.41,1.41,0,0,1,1.16.37c1.28,1.12,1.68,4.74,1.81,6.88a4.13,4.13,0,0,1,1.36-.78,2,2,0,0,1,1.63,0,3,3,0,0,1,1.1,1.07,3.39,3.39,0,0,1,1.91-1.1,1.79,1.79,0,0,1,1.47.26A2.84,2.84,0,0,1,134,64.9a3,3,0,0,1,1.74-1.1,2.44,2.44,0,0,1,2.29.65c.77.82.5,4.94.2,7.83,1.71-2,3-2.41,3.81-2.37a1.91,1.91,0,0,1,1.59,1c.57,1-.49,2.69-2.42,5.55-.55.82-1.12,1.66-1.62,2.48-1.62,2.64-3.75,5.43-4.23,6.06l3.14,13.1L162,81.35l.12-.06a5.34,5.34,0,0,1,4.55.45c1.45,1,2.19,3,2.19,5.79,0,8-4.36,12-4.64,12.2-1,.94-22.76,21-33.09,21.92Zm-8-63.76h-.06s-1.14.62-1.37,10.36a106.71,106.71,0,0,0,.27,11.51,12,12,0,0,0,3.11,5.86.47.47,0,0,1,.15.4c-1.15,13.68-.19,29.64,3.9,33.7a2.76,2.76,0,0,0,2.27.91c10-.92,32.28-21.46,32.51-21.66v0s4.3-3.79,4.3-11.44c0-2.48-.59-4.16-1.76-5a4.34,4.34,0,0,0-3.58-.35l-24.1,17.11a.5.5,0,0,1-.77-.29l-3.34-13.94a.33.33,0,0,1,0-.17l0-.18a.46.46,0,0,1,.1-.25s2.46-3.15,4.27-6.1c.51-.83,1.08-1.68,1.64-2.51,1.07-1.58,2.67-4,2.38-4.5a.9.9,0,0,0-.77-.47c-.49,0-1.86.26-4.05,3.38a.5.5,0,0,1-.59.18.5.5,0,0,1-.31-.53c.46-3.79.7-8.24.26-8.82a1.48,1.48,0,0,0-1.35-.34,2.28,2.28,0,0,0-1.63,1.61.5.5,0,0,1-1-.1,3.05,3.05,0,0,0-.84-1.8.81.81,0,0,0-.67-.11,2,2,0,0,0-1.68,1.33.5.5,0,0,1-.46.4.48.48,0,0,1-.5-.35,2.66,2.66,0,0,0-1.05-1.42,1,1,0,0,0-.84,0c-1.44.54-1.64,1.47-1.65,1.51a.53.53,0,0,1-.54.41.51.51,0,0,1-.45-.49c0-2.49-.47-6.78-1.53-7.7A.46.46,0,0,0,122.77,57.9Z" fill="#231f20"></path><path d="M135.12,76a1.9,1.9,0,0,1-1.12-.34,2.9,2.9,0,0,1-1-2.05,22.85,22.85,0,0,1,.28-7.38.5.5,0,0,1,.58-.4.5.5,0,0,1,.4.58,22,22,0,0,0-.27,7.06,2.05,2.05,0,0,0,.59,1.38,1.22,1.22,0,0,0,1.33-.1,3.43,3.43,0,0,0,1.05-1.4.5.5,0,1,1,.9.43,4.43,4.43,0,0,1-1.38,1.8A2.47,2.47,0,0,1,135.12,76Z" fill="#231f20"></path><path d="M131,76.16h-.07a2.59,2.59,0,0,1-2.17-1.78,6.68,6.68,0,0,1-.24-2.56l.29-6.64a.46.46,0,0,1,.52-.48.51.51,0,0,1,.48.52l-.29,6.64A5.78,5.78,0,0,0,129.7,74,1.63,1.63,0,0,0,131,75.16c.63,0,1.68-1,2.06-1.87a.52.52,0,0,1,.67-.25.5.5,0,0,1,.24.67C133.56,74.55,132.27,76.16,131,76.16Z" fill="#231f20"></path><path d="M127.14,75.77a2.84,2.84,0,0,1-1.53-.43c-1.13-.75-1.67-2.82-1.7-4a21,21,0,0,1,.57-4.9l.15-.74a.5.5,0,0,1,.58-.4.51.51,0,0,1,.4.59l-.15.74a19.9,19.9,0,0,0-.55,4.68c0,1.16.55,2.78,1.25,3.24a1.93,1.93,0,0,0,1.47.22A1.81,1.81,0,0,0,128.8,74a.5.5,0,0,1,.69-.17.49.49,0,0,1,.17.68,2.79,2.79,0,0,1-1.81,1.23A2.92,2.92,0,0,1,127.14,75.77Z" fill="#231f20"></path><path d="M131,79.8a.48.48,0,0,1-.32-.11.51.51,0,0,1-.06-.71A14.88,14.88,0,0,1,136,74.66a.5.5,0,0,1,.36.93,14.27,14.27,0,0,0-5,4A.52.52,0,0,1,131,79.8Z" fill="#231f20"></path><path d="M270.84,260.08a.47.47,0,0,1-.17,0,26.1,26.1,0,0,0-9.26-1.57h0a.49.49,0,0,1-.5-.49.5.5,0,0,1,.49-.51A27.65,27.65,0,0,1,271,259.1a.5.5,0,0,1,.3.64A.51.51,0,0,1,270.84,260.08Z" fill="#231f20"></path><path d="M224.09,259.17a.49.49,0,0,1-.49-.42.5.5,0,0,1,.42-.57l3.52-.54a.51.51,0,0,1,.57.42.5.5,0,0,1-.42.57l-3.52.54Z" fill="#231f20"></path><path d="M181.15,257.87a.5.5,0,0,1-.08-1,37.84,37.84,0,0,1,6.29-.49.51.51,0,0,1,.5.51.5.5,0,0,1-.5.49.93.93,0,0,0-.29,0,35.76,35.76,0,0,0-5.84.48Z" fill="#231f20"></path><path d="M156.93,266.33a.5.5,0,0,1-.48-.37.51.51,0,0,1,.35-.62,16.41,16.41,0,0,1,5.54-.49.5.5,0,0,1,.46.54.48.48,0,0,1-.54.45,15.46,15.46,0,0,0-5.2.47Z" fill="#231f20"></path><path d="M174.12,157.94a.39.39,0,0,1-.15,0,.5.5,0,0,1-.32-.64c.14-.41,3.34-10.65,3.38-10.75a.49.49,0,0,1,.45-.35.48.48,0,0,1,.49.31l3.94,9.64a.51.51,0,0,1-.27.65.52.52,0,0,1-.66-.27l-3.41-8.36c-.88,2.82-2.86,9.12-3,9.45A.5.5,0,0,1,174.12,157.94Z" fill="#fff"></path><path d="M154.42,192.63h0a.5.5,0,0,1-.46-.53l2.81-45.45a.48.48,0,0,1,.53-.47.5.5,0,0,1,.47.53l-2.81,45.45A.51.51,0,0,1,154.42,192.63Z" fill="#fff"></path><path d="M202.47,191.78a.49.49,0,0,1-.49-.41L194.78,148a.51.51,0,0,1,.41-.58.5.5,0,0,1,.57.42L203,191.2a.51.51,0,0,1-.41.58Z" fill="#fff"></path><path d="M221.62,151.94a.51.51,0,0,1-.36-.15.48.48,0,0,1,0-.7l47.3-46.32a.5.5,0,0,1,.7.71L222,151.8A.45.45,0,0,1,221.62,151.94Z" fill="#231f20"></path><path d="M236.26,207.18a.51.51,0,0,1-.4-.2.5.5,0,0,1,.09-.7l29.68-22.9a.51.51,0,1,1,.62.8l-29.69,22.89A.5.5,0,0,1,236.26,207.18Z" fill="#231f20"></path><path d="M223.8,101a.47.47,0,0,1-.35-.15.48.48,0,0,1,0-.7l15.83-15.87A.5.5,0,0,1,240,85l-15.84,15.86A.47.47,0,0,1,223.8,101Z" fill="#231f20"></path><path d="M247.52,266.29a.5.5,0,0,1-.5-.48.51.51,0,0,1,.49-.52l6-.18a.5.5,0,0,1,0,1l-6,.18Z" fill="#231f20"></path><path d="M237.48,264.16a.49.49,0,0,1-.45-.29.5.5,0,0,1,.24-.67,4,4,0,0,1,2.25-.33.51.51,0,0,1,.42.57.5.5,0,0,1-.57.42,3,3,0,0,0-1.68.25A.54.54,0,0,1,237.48,264.16Z" fill="#231f20"></path><path d="M274.35,252.29a.49.49,0,0,1-.46-.3.5.5,0,0,1,.27-.66,4.51,4.51,0,0,1,2.54-.27.5.5,0,0,1,.4.59.49.49,0,0,1-.58.39,3.62,3.62,0,0,0-2,.21A.43.43,0,0,1,274.35,252.29Z" fill="#231f20"></path><path d="M173.55,255.39a.51.51,0,0,1-.45-.27.5.5,0,0,1,.23-.67,3.48,3.48,0,0,1,2.31-.29.5.5,0,0,1-.22,1,2.55,2.55,0,0,0-1.65.2A.42.42,0,0,1,173.55,255.39Z" fill="#231f20"></path></svg>