<svg xmlns="http://www.w3.org/2000/svg" viewBox="0 0 400 300" width="406" height="306" class="illustration styles_illustrationTablet__1DWOa"><g id="_258_fornite_outline" data-name="#258_fornite_outline"><path d="M149,64.05c-3.95,2-7.82,5-9,9.33-.76,2.82-.26,5.83-.68,8.72A14,14,0,0,1,128,93.53c7.62,5.65,19.63,4,25.49-3.43,1.31-1.68,2.37-3.62,4.1-4.88,3.57-2.61,8-2.13,10.44-6.35,1.55-2.66,3-7.13,2.34-10.24C168.4,59,155.31,60.79,149,64.05Z" fill="#725858"></path><path d="M138.69,97.94a19,19,0,0,1-11.34-3.61,1,1,0,0,1-.37-1,1,1,0,0,1,.82-.75A13,13,0,0,0,138.38,82a25.91,25.91,0,0,0,.19-3.57,20.52,20.52,0,0,1,.52-5.26c1-3.9,4.24-7.25,9.48-10h0c4-2.07,12-4.16,17.64-1.45a9.06,9.06,0,0,1,5.1,6.73c.65,3.28-.75,8-2.47,10.93s-4.19,3.82-6.61,4.71a15.77,15.77,0,0,0-4.1,2,13.38,13.38,0,0,0-2.82,3.21c-.35.5-.71,1-1.09,1.48A19.77,19.77,0,0,1,138.69,97.94Zm-8.21-4c7.13,3.77,17.16,1.93,22.17-4.45.36-.46.69-.94,1-1.41A14.91,14.91,0,0,1,157,84.42a17.44,17.44,0,0,1,4.59-2.22c2.28-.83,4.25-1.55,5.57-3.83,1.49-2.56,2.78-6.78,2.23-9.54a7.11,7.11,0,0,0-4-5.31c-4.42-2.13-11.46-.86-15.85,1.41-4.72,2.45-7.57,5.38-8.47,8.72a18.84,18.84,0,0,0-.45,4.75,27.71,27.71,0,0,1-.21,3.84A14.92,14.92,0,0,1,130.48,93.94Z" fill="#093f68"></path><path d="M168.3,67.88c2.37,0,4.93,1,6,3.07,1.36,2.66-.13,5.86-1.83,8.32-3,4.37-11.22,13-14.39,3.89C155.6,76,160.5,67.89,168.3,67.88Z" fill="#68e1fd"></path><path d="M162.36,88.16a4.82,4.82,0,0,1-.65,0c-2.05-.28-3.59-1.84-4.56-4.63a12.82,12.82,0,0,1,1.65-11.64,11.56,11.56,0,0,1,9.5-5h0c2.44,0,5.53,1,6.89,3.61s.65,5.68-1.9,9.35C172.69,80.72,167.39,88.16,162.36,88.16Zm5.94-19.28A9.58,9.58,0,0,0,160.43,73a10.88,10.88,0,0,0-1.4,9.82c.71,2,1.7,3.14,2.95,3.31,3,.42,7.45-4.22,9.68-7.44,1.44-2.08,2.91-5,1.76-7.3-.95-1.86-3.34-2.52-5.11-2.52Z" fill="#093f68"></path><path d="M186.18,211.46a21,21,0,0,1-6.4,7.85c-3.63,2.63-8.14,3.78-12.6,4.22-3.82.38-8.47-.17-10.21-3.6-1.28-2.53-.39-5.57.46-8.28,4.45-14.24,8-30,8.07-45a8.35,8.35,0,0,1,8.35-8.34h16.32c1.25,0-1,44.32-2.1,48.18A30,30,0,0,1,186.18,211.46Z" fill="#ffc9b0"></path><path d="M165.14,224.64c-4.42,0-7.67-1.5-9.06-4.26-1.5-3-.41-6.47.39-9,5.39-17.24,8-31.85,8-44.66a9.37,9.37,0,0,1,9.35-9.34h16.32a1.17,1.17,0,0,1,.86.44c.28.37,1,1.36-.05,23.85-.51,10.63-1.33,23-1.95,25.17a31.78,31.78,0,0,1-1.95,5.09,21.9,21.9,0,0,1-6.71,8.22c-3.34,2.43-7.62,3.87-13.09,4.41C166.54,224.6,165.83,224.64,165.14,224.64Zm8.71-65.29a7.36,7.36,0,0,0-7.35,7.34c0,13-2.67,27.82-8.12,45.26-.73,2.36-1.65,5.29-.52,7.53,1.73,3.41,7,3.28,9.23,3.06,5.1-.51,9.06-1.83,12.11-4a19.9,19.9,0,0,0,6.08-7.49,28.66,28.66,0,0,0,1.83-4.76c1.11-3.86,2.92-41.47,2.32-46.9Z" fill="#093f68"></path><path d="M210.26,158.35h24.67a0,0,0,0,1,0,0V219.3a0,0,0,0,1,0,0H219a8.78,8.78,0,0,1-8.78-8.78V158.35A0,0,0,0,1,210.26,158.35Z" transform="translate(445.19 377.65) rotate(-180)" fill="#ffc9b0"></path><path d="M234.93,220.3H210.26a1,1,0,0,1-1-1v-61a1,1,0,0,1,1-1h15.89a9.8,9.8,0,0,1,9.78,9.79V219.3A1,1,0,0,1,234.93,220.3Zm-23.67-2h22.67V167.14a7.79,7.79,0,0,0-7.78-7.79H211.26Z" fill="#093f68"></path><path d="M175.4,199l.36,20.1h48.43L225,199s11.47-26.76-2.68-40.6H178.1C163.94,172.19,175.4,199,175.4,199Z" fill="#68e1fd"></path><path d="M224.19,220.05H175.76a1,1,0,0,1-1-1l-.36-19.91a64.36,64.36,0,0,1-4-15.19c-1.47-11.34.93-20.45,7-26.33a1,1,0,0,1,.7-.29h44.23a1,1,0,0,1,.7.29c6,5.88,8.43,15,6.95,26.33a64.94,64.94,0,0,1-4,15.2l-.83,19.92A1,1,0,0,1,224.19,220.05Zm-47.45-2h46.49l.8-19.14a.85.85,0,0,1,.08-.35c.11-.26,10.87-25.93-2.19-39.21H178.51c-13.07,13.3-2.3,39-2.19,39.21a1,1,0,0,1,.08.38Z" fill="#093f68"></path><path d="M215.4,158.35v10.91c0,8.9-6.58,16.12-14.69,16.12h-1c-8.11,0-14.69-7.22-14.69-16.12V158.35Z" fill="#ffc9b0"></path><path d="M200.71,186.38h-1c-8.65,0-15.69-7.68-15.69-17.12V158.35a1,1,0,0,1,1-1H215.4a1,1,0,0,1,1,1v10.91C216.4,178.7,209.36,186.38,200.71,186.38Zm-14.68-27v9.91c0,8.34,6.14,15.12,13.69,15.12h1c7.55,0,13.69-6.78,13.69-15.12v-9.91Z" fill="#093f68"></path><path d="M194.66,159.9v-6.74h11.72v6.74" fill="#ffc9b0"></path><path d="M206.38,160.9a1,1,0,0,1-1-1v-5.74h-9.72v5.74a1,1,0,0,1-2,0v-6.74a1,1,0,0,1,1-1h11.72a1,1,0,0,1,1,1v6.74A1,1,0,0,1,206.38,160.9Z" fill="#093f68"></path><ellipse cx="167.02" cy="122.71" rx="11.39" ry="9.81" fill="#ffc9b0"></ellipse><path d="M167,133.52c-6.83,0-12.39-4.85-12.39-10.81S160.19,111.9,167,111.9s12.39,4.85,12.39,10.81S173.85,133.52,167,133.52Zm0-19.62c-5.73,0-10.39,3.95-10.39,8.81s4.66,8.81,10.39,8.81,10.39-4,10.39-8.81S172.75,113.9,167,113.9Z" fill="#093f68"></path><ellipse cx="233.41" cy="122.71" rx="11.39" ry="9.81" fill="#ffc9b0"></ellipse><path d="M233.41,133.52c-6.83,0-12.39-4.85-12.39-10.81s5.56-10.81,12.39-10.81,12.39,4.85,12.39,10.81S240.24,133.52,233.41,133.52Zm0-19.62c-5.73,0-10.39,3.95-10.39,8.81s4.66,8.81,10.39,8.81,10.39-4,10.39-8.81S239.14,113.9,233.41,113.9Z" fill="#093f68"></path><path d="M221.4,93.63a32.81,32.81,0,0,1-12.16-2.79c-6-2.79-11.08-7.13-15.86-11.66-3.15,8.63-11.88,13.7-20,18-1.73.93-4,1.83-5.51.61-1.68,7.22-1.73,15.13-1.73,22.51a34.35,34.35,0,0,0,68.69,0V93.64C230.39,93.63,225.86,93.89,221.4,93.63Z" fill="#ffc9b0"></path><path d="M200.52,155.69a35.38,35.38,0,0,1-35.35-35.34c0-6.77,0-15.18,1.75-22.73a1,1,0,0,1,.64-.72,1,1,0,0,1,1,.16c.84.67,2.29.44,4.42-.71,8.6-4.63,16.56-9.45,19.5-17.52a1,1,0,0,1,1.63-.38c4.3,4.08,9.51,8.64,15.59,11.49a31.71,31.71,0,0,0,11.8,2.69h0c2.89.17,5.87.12,8.76.07q2.33,0,4.65-.06a1,1,0,0,1,1,1v26.71A35.38,35.38,0,0,1,200.52,155.69ZM168.6,99.3c-1.43,7-1.43,14.76-1.43,21a33.35,33.35,0,0,0,66.69,0V94.64l-3.61.06c-2.92,0-5.94.1-8.91-.07h0a33.45,33.45,0,0,1-12.52-2.88C203,89,198,84.82,193.76,80.91c-3.52,7.88-11.41,12.65-19.87,17.2C172.41,98.91,170.39,99.79,168.6,99.3Z" fill="#093f68"></path><circle cx="217.42" cy="121.47" r="3.18" fill="#093f68"></circle><circle cx="189.6" cy="121.47" r="3.18" fill="#093f68"></circle><path d="M202,131.61a21.18,21.18,0,0,1-3.1-.25,1,1,0,0,1-.81-1.16,1,1,0,0,1,1.16-.81,15.28,15.28,0,0,0,4.7.05c.19-.92-1-4.32-2.67-7.51a1,1,0,0,1,.42-1.35A1,1,0,0,1,203,121c1.12,2.14,3.61,7.33,2.69,9.36a1.69,1.69,0,0,1-1.15,1A10.65,10.65,0,0,1,202,131.61Z" fill="#093f68"></path><path d="M193.92,115.56l-.22,0-15-2.14a1.59,1.59,0,0,1,.44-3.15l15,2.14a1.59,1.59,0,0,1-.23,3.17Z" fill="#093f68"></path><path d="M210,116.16a1.59,1.59,0,0,1-.35-3.14l14.79-3.34a1.59,1.59,0,0,1,.7,3.1l-14.79,3.34A2.09,2.09,0,0,1,210,116.16Z" fill="#093f68"></path><path d="M208,143a27.93,27.93,0,0,1-21.89-9.78,1,1,0,1,1,1.53-1.29c10.48,12.42,26.21,8.5,26.37,8.46a1,1,0,0,1,.5,1.94A29.51,29.51,0,0,1,208,143Z" fill="#093f68"></path><path d="M224.59,66.17A35.94,35.94,0,0,0,206,59.69,26.35,26.35,0,0,0,187.59,66a5,5,0,0,1-2.07,1.36,5.18,5.18,0,0,1-2.27-.19c-5.67-1.19-11.75.8-16.16,4.56-6.94,5.91-8.74,13.24-8.8,22,0,2.36-.45,22.22-5.23,21.34a32.91,32.91,0,0,0,22.91-3.8c6.75-4.13,11.68-11.42,12.21-19.32,4.82,6.17,12.34,9.46,19.54,12.52l16.74,7.11c5.41,2.29,10.89,4.61,16.69,5.55s12.06.37,17-2.78c-7.66-5.7-12-14.81-15.32-23.75C239.23,81,233.2,72,224.59,66.17Z" fill="#725858"></path><path d="M246.12,118.5a31.31,31.31,0,0,1-5.13-.42c-6-1-11.53-3.33-16.92-5.61l-16.74-7.11c-6-2.54-13.31-5.65-18.43-11.07a26.61,26.61,0,0,1-12.41,17.8c-6.61,4-15.21,5.47-23.6,3.94h0a1,1,0,0,1,.36-2,.68.68,0,0,0,.6-.19c2.44-2,3.41-13.45,3.45-20.18.05-7.45,1.18-16,9.15-22.77a20.24,20.24,0,0,1,17-4.78l.26.06a2.53,2.53,0,0,0,3.06-.86l.14-.13a27.23,27.23,0,0,1,19.13-6.51,36.82,36.82,0,0,1,19.11,6.64h0c10.27,7,15.8,17.37,18.62,24.88,3.15,8.35,7.39,17.64,15,23.3a1,1,0,0,1,.4.84,1,1,0,0,1-.46.81A23.46,23.46,0,0,1,246.12,118.5ZM188.18,90.92a1,1,0,0,1,.79.39c4.78,6.11,12.41,9.35,19.14,12.21l16.74,7.11c5.28,2.24,10.74,4.56,16.46,5.48a24.38,24.38,0,0,0,15.08-1.91c-7.27-6-11.39-15.09-14.48-23.28-2.72-7.23-8-17.25-17.88-23.93A34.9,34.9,0,0,0,206,60.69a25.2,25.2,0,0,0-17.71,6l-.14.12a4.35,4.35,0,0,1-4.82,1.33l-.25-.05a18.2,18.2,0,0,0-15.31,4.34c-5.86,5-8.38,11.35-8.45,21.26,0,1.74-.2,16-3.34,20.75a31.5,31.5,0,0,0,19.5-4.07c6.74-4.12,11.24-11.22,11.73-18.53a1,1,0,0,1,.71-.88A.93.93,0,0,1,188.18,90.92Z" fill="#093f68"></path><rect x="156.51" y="91.22" width="88.53" height="5.72" fill="#fff"></rect><path d="M245,97.94H156.51a1,1,0,0,1-1-1V91.22a1,1,0,0,1,1-1H245a1,1,0,0,1,1,1v5.72A1,1,0,0,1,245,97.94Zm-87.53-2H244V92.22H157.51Z" fill="#093f68"></path><path d="M200.22,82.22H166.5V92.71a12.61,12.61,0,0,0,12.6,12.61h8.51a12.62,12.62,0,0,0,12.61-12.61,12.61,12.61,0,0,0,12.61,12.61h8.5a12.62,12.62,0,0,0,12.61-12.61V82.22Z" fill="#fff"></path><path d="M221.33,106.32h-8.5a13.63,13.63,0,0,1-12.61-8.49,13.65,13.65,0,0,1-12.61,8.49H179.1a13.62,13.62,0,0,1-13.6-13.61V82.22a1,1,0,0,1,1-1h67.44a1,1,0,0,1,1,1V92.71A13.63,13.63,0,0,1,221.33,106.32ZM200.22,91.71a1,1,0,0,1,1,1,11.62,11.62,0,0,0,11.61,11.61h8.5a11.63,11.63,0,0,0,11.61-11.61V83.22H167.5v9.49a11.62,11.62,0,0,0,11.6,11.61h8.51a11.63,11.63,0,0,0,11.61-11.61A1,1,0,0,1,200.22,91.71Z" fill="#093f68"></path><rect x="172.62" y="219.05" width="55.13" height="17.97" fill="#093f68"></rect><path d="M227.75,238H172.62a1,1,0,0,1-1-1v-18a1,1,0,0,1,1-1h55.13a1,1,0,0,1,1,1v18A1,1,0,0,1,227.75,238Zm-54.13-2h53.13v-16H173.62Z" fill="#093f68"></path><path d="M264.05,174.28,221.26,241a4.31,4.31,0,0,1-7.25-4.65l42.79-66.75Z" fill="#68e1fd"></path><path d="M217.63,244a5.31,5.31,0,0,1-5.17-4.17,5.24,5.24,0,0,1,.71-4L256,169.09a1,1,0,0,1,.63-.43,1,1,0,0,1,.75.13l7.25,4.64a1,1,0,0,1,.3,1.39L222.1,241.57a5.28,5.28,0,0,1-3.33,2.31A5.52,5.52,0,0,1,217.63,244Zm39.47-73-42.25,65.91a3.3,3.3,0,0,0,5.56,3.57l42.25-65.91Z" fill="#093f68"></path><path d="M268.11,187.65l-22.66-17.27a4.07,4.07,0,0,1-1-5.44l11.9-18.56a4.07,4.07,0,0,1,5.35-1.4l25.15,13.38a4.08,4.08,0,0,1,1.52,5.8L274,186.61A4.09,4.09,0,0,1,268.11,187.65Z" fill="#f56132"></path><path d="M270.59,189.48a5.12,5.12,0,0,1-3.08-1l-22.67-17.28a5.1,5.1,0,0,1-1.19-6.77l11.9-18.56a5.11,5.11,0,0,1,6.66-1.75l25.15,13.39a5.09,5.09,0,0,1,2.53,3.19,5.15,5.15,0,0,1-.64,4l-14.39,22.45a5.13,5.13,0,0,1-3.39,2.26A5.3,5.3,0,0,1,270.59,189.48Zm-10.76-44a3.09,3.09,0,0,0-2.6,1.42l-11.9,18.56a3.08,3.08,0,0,0,.73,4.1l22.66,17.28h0a3.08,3.08,0,0,0,2.4.58,3,3,0,0,0,2.05-1.37l14.4-22.45a3.08,3.08,0,0,0,.38-2.44,3,3,0,0,0-1.53-1.94l-25.15-13.38A3.1,3.1,0,0,0,259.83,145.5Z" fill="#093f68"></path><path d="M250.79,146.14h0a0,0,0,0,1,0,0V162.8a0,0,0,0,1,0,0h0a4.41,4.41,0,0,1-4.41-4.41v-7.85A4.41,4.41,0,0,1,250.79,146.14Z" transform="translate(122.67 -109.73) rotate(32.66)" fill="#ffbc0e"></path><path d="M245.94,163.67a1,1,0,0,1-.54-.16,5.41,5.41,0,0,1-1.63-7.47l4.24-6.61a5.41,5.41,0,0,1,7.47-1.63,1,1,0,0,1,.3,1.38l-9,14a1,1,0,0,1-.62.44Zm6.62-14.73a3.63,3.63,0,0,0-.73.08,3.42,3.42,0,0,0-2.14,1.49l-4.24,6.61a3.42,3.42,0,0,0,.27,4l7.75-12.09A3.45,3.45,0,0,0,252.56,148.94Z" fill="#093f68"></path><rect x="275.41" y="153.7" width="8.21" height="41.19" rx="2.59" transform="matrix(0.84, 0.54, -0.54, 0.84, 138.26, -123.29)" fill="#ffbc0e"></rect><path d="M271.07,193.86a3.56,3.56,0,0,1-1.94-.57l-2.54-1.62a3.65,3.65,0,0,1-1.57-2.26,3.59,3.59,0,0,1,.49-2.71l19.43-30.31a3.6,3.6,0,0,1,5-1.09h0l2.54,1.63a3.61,3.61,0,0,1,1.09,5L274.1,192.21A3.59,3.59,0,0,1,271.07,193.86ZM288,156.74a1.6,1.6,0,0,0-1.35.73l-19.43,30.31a1.61,1.61,0,0,0,.48,2.2l2.54,1.63a1.61,1.61,0,0,0,1.21.22,1.63,1.63,0,0,0,1-.7l19.43-30.31a1.59,1.59,0,0,0,.21-1.2,1.57,1.57,0,0,0-.7-1L288.82,157A1.56,1.56,0,0,0,288,156.74Z" fill="#093f68"></path><path d="M228.18,230.22,221.26,241a4.31,4.31,0,0,1-7.25-4.65l6.93-10.8Z" fill="#ffbc0e"></path><path d="M217.63,244a5.31,5.31,0,0,1-5.17-4.17,5.24,5.24,0,0,1,.71-4L220.1,225a1,1,0,0,1,1.38-.31l7.24,4.65a1,1,0,0,1,.31,1.38l-6.93,10.81a5.28,5.28,0,0,1-3.33,2.31A5.52,5.52,0,0,1,217.63,244Zm3.61-17-6.39,10a3.3,3.3,0,0,0,5.56,3.57l6.39-10Z" fill="#093f68"></path><line x1="253.85" y1="151.08" x2="279.28" y2="165.95" fill="#ffbc0e"></line><path d="M279.28,167a1,1,0,0,1-.5-.14l-25.43-14.87a1,1,0,0,1-.36-1.36,1,1,0,0,1,1.37-.36l25.43,14.86a1,1,0,0,1,.35,1.37A1,1,0,0,1,279.28,167Z" fill="#093f68"></path><line x1="247.71" y1="160.67" x2="271.83" y2="177.57" fill="#ffbc0e"></line><path d="M271.83,178.57a1,1,0,0,1-.58-.18l-24.12-16.9a1,1,0,0,1-.24-1.4,1,1,0,0,1,1.39-.24l24.12,16.9a1,1,0,0,1,.25,1.39A1,1,0,0,1,271.83,178.57Z" fill="#093f68"></path><circle cx="264.24" cy="164.5" r="3.5" fill="#ffbc0e"></circle><path d="M264.23,169a4.49,4.49,0,0,1-3.77-6.92,4.49,4.49,0,1,1,7.56,4.85h0A4.48,4.48,0,0,1,264.23,169Zm0-7a2.5,2.5,0,1,0,2.09,3.84h0a2.5,2.5,0,0,0-.75-3.45A2.54,2.54,0,0,0,264.25,162Z" fill="#093f68"></path><rect x="233.22" y="206.15" width="13.64" height="4.6" rx="2.3" transform="translate(326.3 514.45) rotate(-146.71)" fill="#ffc9b0"></rect><path d="M243.82,214.24a3.29,3.29,0,0,1-1.81-.55l-7.56-5h0a3.31,3.31,0,0,1-1.42-2.09,3.3,3.3,0,0,1,5-3.43l7.56,5a3.3,3.3,0,0,1-1.14,6A3.81,3.81,0,0,1,243.82,214.24Zm-8.27-7.18,7.56,5a1.3,1.3,0,0,0,1,.19,1.28,1.28,0,0,0,.82-.56,1.31,1.31,0,0,0-.37-1.8l-7.56-5a1.3,1.3,0,0,0-1-.19,1.28,1.28,0,0,0-.82.56,1.3,1.3,0,0,0-.19,1,1.28,1.28,0,0,0,.56.82Z" fill="#093f68"></path><rect x="230.7" y="210" width="13.64" height="4.6" rx="2.3" transform="translate(319.55 520.12) rotate(-146.71)" fill="#ffc9b0"></rect><path d="M241.29,218.08a3.33,3.33,0,0,1-1.8-.54l-7.56-5h0a3.3,3.3,0,0,1-1-4.57,3.33,3.33,0,0,1,2.09-1.42,3.3,3.3,0,0,1,2.48.48l7.56,5a3.3,3.3,0,0,1-1.14,6A3.14,3.14,0,0,1,241.29,218.08ZM233,210.9l7.56,5a1.28,1.28,0,0,0,1.79-.37,1.29,1.29,0,0,0-.37-1.8l-7.56-5a1.28,1.28,0,0,0-1-.19,1.3,1.3,0,0,0-.45,2.36Z" fill="#093f68"></path><rect x="228.17" y="213.84" width="13.64" height="4.6" rx="2.3" transform="translate(312.81 525.79) rotate(-146.71)" fill="#ffc9b0"></rect><path d="M238.77,221.92a3.28,3.28,0,0,1-1.81-.54l-7.55-5h0A3.3,3.3,0,0,1,233,210.9l7.56,5a3.3,3.3,0,0,1,.94,4.57,3.25,3.25,0,0,1-2.08,1.42A3.21,3.21,0,0,1,238.77,221.92Zm-8.27-7.17,7.56,5a1.26,1.26,0,0,0,1,.18,1.27,1.27,0,0,0,.82-.55,1.3,1.3,0,0,0,.19-1,1.28,1.28,0,0,0-.56-.82l-7.56-5a1.3,1.3,0,0,0-1-.18,1.31,1.31,0,0,0-1,1.53,1.33,1.33,0,0,0,.56.83Z" fill="#093f68"></path><rect x="225.65" y="217.69" width="13.64" height="4.6" rx="2.3" transform="translate(306.07 531.47) rotate(-146.71)" fill="#ffc9b0"></rect><path d="M236.25,225.76a3.27,3.27,0,0,1-1.81-.54l-7.56-5a3.3,3.3,0,0,1-.95-4.57,3.33,3.33,0,0,1,2.09-1.42,3.24,3.24,0,0,1,2.48.48l7.56,5a3.29,3.29,0,0,1-1.81,6Zm-7.56-9.56-.26,0a1.28,1.28,0,0,0-.82.56,1.3,1.3,0,0,0-.19,1,1.28,1.28,0,0,0,.56.82h0l7.56,5a1.29,1.29,0,0,0,2-1.35,1.28,1.28,0,0,0-.56-.82l-7.55-5A1.33,1.33,0,0,0,228.69,216.2Z" fill="#093f68"></path><rect x="227.24" y="201.03" width="4.52" height="11.65" rx="2.26" transform="translate(307.82 505.72) rotate(-146.71)" fill="#ffc9b0"></rect><path d="M227.54,213.09a3.17,3.17,0,0,1-1.78-.54,3.24,3.24,0,0,1-.94-4.51l3.92-6a3.26,3.26,0,1,1,5.44,3.58l-3.91,6A3.27,3.27,0,0,1,227.54,213.09Zm3.92-10.48a1.25,1.25,0,0,0-1.05.57l-3.92,6a1.27,1.27,0,0,0-.18,1,1.23,1.23,0,0,0,.54.79h0a1.23,1.23,0,0,0,1,.18,1.28,1.28,0,0,0,.8-.54l3.91-6a1.26,1.26,0,0,0-.36-1.74A1.24,1.24,0,0,0,231.46,202.61Z" fill="#093f68"></path><path d="M167.33,207.36a2.71,2.71,0,0,0,.24.35,2,2,0,0,0,2.83.22l9.23-7.88a2,2,0,0,0,.46-2.48l-9.23-17.06a2,2,0,0,0-2.72-.81l-8.68,4.7a2,2,0,0,0,1.91,3.53l6.92-3.75,7.5,13.87-8,6.83A2,2,0,0,0,167.33,207.36Z" fill="#ffbc0e"></path><path d="M169.1,209.41a3,3,0,0,1-2.29-1,3.1,3.1,0,0,1-.36-.53,3,3,0,0,1,.69-3.71l7.38-6.3-6.64-12.28-6,3.27a3,3,0,1,1-2.86-5.29l8.69-4.7a3,3,0,0,1,4.07,1.22L181,197.1a3,3,0,0,1-.69,3.71l-9.23,7.88A3,3,0,0,1,169.1,209.41Zm-.81-26.23a.92.92,0,0,1,.28,0,1,1,0,0,1,.6.48l7.5,13.87a1,1,0,0,1-.23,1.23l-8,6.83a1,1,0,0,0-.23,1.24h0a1.4,1.4,0,0,0,.12.18,1,1,0,0,0,1.42.11l9.23-7.88a1,1,0,0,0,.23-1.24L170,181a1,1,0,0,0-.59-.49,1,1,0,0,0-.77.08l-8.68,4.7a1,1,0,0,0-.41,1.36,1,1,0,0,0,.6.48,1,1,0,0,0,.76-.07l6.92-3.75A1.14,1.14,0,0,1,168.29,183.18Z" fill="#093f68"></path><polygon points="172.49 209.32 187.13 236.38 171.6 244.78 167.61 223.66 169.15 221.7 165.53 211.3 172.49 209.32" fill="#68e1fd"></polygon><path d="M171.6,245.78a.91.91,0,0,1-.43-.1,1,1,0,0,1-.56-.71l-4-21.13a1,1,0,0,1,.2-.8l1.2-1.53-3.44-9.89a1,1,0,0,1,.67-1.29l7-2a1,1,0,0,1,1.15.49L188,235.91a1,1,0,0,1,.07.76,1,1,0,0,1-.48.6l-15.53,8.39A1,1,0,0,1,171.6,245.78Zm-2.92-21.86,3.65,19.33L185.77,236,172,210.5,166.83,212l3.27,9.4a1,1,0,0,1-.16.95Z" fill="#093f68"></path><polygon points="165.94 211.46 153.95 223.75 147.79 218.89 158.3 207.65 165.94 211.46" fill="#093f68"></polygon><path d="M154,224.75a1,1,0,0,1-.62-.21l-6.15-4.86a1,1,0,0,1-.12-1.47L157.57,207a1,1,0,0,1,1.18-.21l7.64,3.81a1.06,1.06,0,0,1,.54.73,1,1,0,0,1-.27.87l-12,12.29A1,1,0,0,1,154,224.75Zm-4.68-6,4.6,3.63,10.4-10.67-5.75-2.87Z" fill="#093f68"></path><path d="M134.23,178.89H185a0,0,0,0,1,0,0v14.88a0,0,0,0,1,0,0H134.23a7.44,7.44,0,0,1-7.44-7.44v0A7.44,7.44,0,0,1,134.23,178.89Z" transform="translate(66.13 412.08) rotate(-118.4)" fill="#68e1fd"></path><path d="M166.2,213.82a8.49,8.49,0,0,1-7.44-4.43l-24.13-44.64a1,1,0,0,1-.08-.76,1,1,0,0,1,.48-.59l13.09-7.08a1,1,0,0,1,1.35.4l24.14,44.64a8.46,8.46,0,0,1-3.41,11.44A8.35,8.35,0,0,1,166.2,213.82Zm-29.34-49.14,23.66,43.76a6.44,6.44,0,1,0,11.33-6.13l-23.66-43.75Z" fill="#093f68"></path><rect x="128.82" y="149.18" width="18.27" height="6.78" transform="translate(69.36 346.49) rotate(-118.4)" fill="#68e1fd"></rect><path d="M139.32,163.21a1,1,0,0,1-.88-.52l-8.69-16.07a1,1,0,0,1,.4-1.35l6-3.23a1,1,0,0,1,.76-.07.94.94,0,0,1,.59.48l8.69,16.07a1,1,0,0,1,.08.76,1,1,0,0,1-.49.59l-6,3.22A.89.89,0,0,1,139.32,163.21ZM132,146.55l7.74,14.31,4.2-2.27-7.73-14.31Z" fill="#093f68"></path><polygon points="120.3 130.97 130.63 146.15 136.59 142.92 129.54 125.97 120.3 130.97" fill="#f56132"></polygon><path d="M130.63,147.15a1,1,0,0,1-.83-.44l-10.33-15.18a1,1,0,0,1-.14-.8,1,1,0,0,1,.5-.64l9.24-5a1,1,0,0,1,.81-.06,1,1,0,0,1,.59.56l7.05,16.95a1,1,0,0,1-.45,1.26l-6,3.23A1,1,0,0,1,130.63,147.15Zm-8.88-15.83,9.2,13.52,4.37-2.37-6.27-15.09Z" fill="#093f68"></path><polygon points="158.45 151.87 155.69 146.78 140.94 150.96 145.28 158.99 158.45 151.87" fill="#f56132"></polygon><path d="M145.28,160a1,1,0,0,1-.88-.52l-4.34-8a1,1,0,0,1,.6-1.43l14.76-4.18a1,1,0,0,1,1.15.48l2.76,5.1a1,1,0,0,1-.41,1.35l-13.17,7.12A1,1,0,0,1,145.28,160Zm-2.87-8.41,3.27,6.06,11.41-6.17-1.9-3.51Z" fill="#093f68"></path><path d="M155.41,201.08s-7.82,5.83-14.18,4.46l-3.83-7.08s10.27-1.39,14-4.71Z" fill="#ffbc0e"></path><path d="M143.28,206.75a10.09,10.09,0,0,1-2.26-.24,1,1,0,0,1-.67-.5l-3.83-7.08a1,1,0,0,1,0-.93,1,1,0,0,1,.75-.54c.1,0,10-1.38,13.52-4.46a1,1,0,0,1,.84-.23,1,1,0,0,1,.7.51l4,7.33a1,1,0,0,1-.28,1.27C155.71,202.1,149.41,206.75,143.28,206.75Zm-1.4-2.11c4.71.75,10.28-2.58,12.22-3.87l-3-5.52c-3.43,2.27-9.43,3.5-12.17,4Z" fill="#093f68"></path><line x1="153.7" y1="166.64" x2="140.61" y2="173.72" fill="#68e1fd"></line><path d="M140.61,174.72a1,1,0,0,1-.47-1.88l13.08-7.08a1,1,0,0,1,1.36.41,1,1,0,0,1-.41,1.35l-13.08,7.08A1,1,0,0,1,140.61,174.72Z" fill="#093f68"></path><line x1="156.38" y1="171.61" x2="143.3" y2="178.69" fill="#68e1fd"></line><path d="M143.3,179.69a1,1,0,0,1-.88-.53,1,1,0,0,1,.4-1.35l13.09-7.08a1,1,0,0,1,1,1.76l-13.09,7.08A1,1,0,0,1,143.3,179.69Z" fill="#093f68"></path><line x1="159.07" y1="176.58" x2="145.98" y2="183.65" fill="#68e1fd"></line><path d="M146,184.65a1,1,0,0,1-.89-.52,1,1,0,0,1,.41-1.36l13.08-7.07a1,1,0,1,1,1,1.76l-13.09,7.07A.89.89,0,0,1,146,184.65Z" fill="#093f68"></path><rect x="150.41" y="208.53" width="13.64" height="4.6" rx="2.3" transform="translate(133.91 472.8) rotate(-138.2)" fill="#ffc9b0"></rect><path d="M160.6,217.14a3.25,3.25,0,0,1-2.2-.84l-6.74-6h0a3.3,3.3,0,0,1-.26-4.66,3.29,3.29,0,0,1,4.66-.26l6.74,6a3.3,3.3,0,0,1-2,5.75ZM153,208.79l6.74,6a1.27,1.27,0,0,0,.94.33,1.3,1.3,0,0,0,.8-2.26l-6.75-6a1.3,1.3,0,0,0-1.73,1.94Z" fill="#093f68"></path><rect x="147.34" y="211.96" width="13.64" height="4.6" rx="2.3" transform="translate(126.27 476.74) rotate(-138.2)" fill="#ffc9b0"></rect><path d="M157.53,220.57a3.27,3.27,0,0,1-2.19-.84l-6.75-6h0a3.3,3.3,0,1,1,4.4-4.91l6.74,6a3.3,3.3,0,0,1-2.2,5.76Zm-7.6-8.36,6.74,6a1.3,1.3,0,0,0,1.73-1.94l-6.74-6a1.22,1.22,0,0,0-.94-.33,1.29,1.29,0,0,0-.79,2.26Z" fill="#093f68"></path><rect x="144.28" y="215.39" width="13.64" height="4.6" rx="2.3" transform="translate(118.64 480.68) rotate(-138.2)" fill="#ffc9b0"></rect><path d="M154.47,224a3.29,3.29,0,0,1-2.2-.84l-6.74-6h0a3.3,3.3,0,0,1,2-5.75,3.24,3.24,0,0,1,2.39.83l6.74,6a3.3,3.3,0,0,1-2.2,5.76Zm-7.61-8.36,6.74,6a1.3,1.3,0,1,0,1.74-1.94l-6.75-6a1.22,1.22,0,0,0-.93-.32,1.25,1.25,0,0,0-.9.43,1.3,1.3,0,0,0,.1,1.83Z" fill="#093f68"></path><rect x="141.21" y="218.82" width="13.64" height="4.6" rx="2.3" transform="translate(111 484.62) rotate(-138.2)" fill="#ffc9b0"></rect><path d="M151.4,227.43a3.27,3.27,0,0,1-2.19-.84l-6.75-6h0a3.29,3.29,0,0,1,2-5.75,3.21,3.21,0,0,1,2.38.83l6.74,6a3.3,3.3,0,0,1-2.2,5.76Zm-6.73-10.63h-.08a1.32,1.32,0,0,0-.9.44,1.26,1.26,0,0,0-.32.93,1.29,1.29,0,0,0,.43.9h0l6.74,6a1.3,1.3,0,0,0,1.83-.11,1.27,1.27,0,0,0,.33-.93,1.29,1.29,0,0,0-.43-.9l-6.74-6A1.32,1.32,0,0,0,144.67,216.8Z" fill="#093f68"></path><rect x="157.7" y="214.72" width="4.52" height="11.65" rx="2.26" transform="translate(107.13 487.82) rotate(-132.87)" fill="#ffc9b0"></rect><path d="M157.34,226.23a3.26,3.26,0,0,1-2.21-5.65l5.22-4.85a3.26,3.26,0,1,1,4.44,4.77l-5.23,4.86A3.26,3.26,0,0,1,157.34,226.23Zm5.23-9.37a1.21,1.21,0,0,0-.85.34l-5.23,4.85a1.26,1.26,0,1,0,1.71,1.84l5.23-4.85a1.31,1.31,0,0,0,.4-.88,1.26,1.26,0,0,0-1.26-1.3Z" fill="#093f68"></path><rect x="206.38" y="207.43" width="14.56" height="18.14" rx="2.03" fill="#70cc40"></rect><path d="M218.91,226.58H208.4a3,3,0,0,1-3-3V209.46a3,3,0,0,1,3-3h10.51a3,3,0,0,1,3,3v14.09A3,3,0,0,1,218.91,226.58ZM208.4,208.43a1,1,0,0,0-1,1v14.09a1,1,0,0,0,1,1h10.51a1,1,0,0,0,1-1V209.46a1,1,0,0,0-1-1Z" fill="#093f68"></path><path d="M220,215.35H206.82a1,1,0,0,1,0-2H220a1,1,0,0,1,0,2Z" fill="#093f68"></path><path d="M174.84,99.76a1,1,0,0,1-.71-1.71l11.62-11.59a1,1,0,0,1,1.42,0,1,1,0,0,1,0,1.41l-11.63,11.6A1,1,0,0,1,174.84,99.76Z" fill="#dfeaef"></path><path d="M189.6,96.51a1,1,0,0,1-.67-1.74l7.76-6.93a1,1,0,0,1,1.33,1.5l-7.76,6.92A1,1,0,0,1,189.6,96.51Z" fill="#dfeaef"></path><path d="M210,99.76a1,1,0,0,1-.67-1.74l12-10.87a1,1,0,0,1,1.41.07,1,1,0,0,1-.07,1.42l-12,10.86A1,1,0,0,1,210,99.76Z" fill="#dfeaef"></path><path d="M223.32,96.51a1,1,0,0,1-.67-1.74l5.08-4.52a1,1,0,0,1,1.41.08,1,1,0,0,1-.08,1.42L224,96.26A1,1,0,0,1,223.32,96.51Z" fill="#dfeaef"></path></g></svg>